<svg xmlns="http://www.w3.org/2000/svg" width="168" height="32" viewBox="0 0 168 32"><g><g><g><path fill="#fff" d="M41.631 18.605a148.57 148.57 0 0 0-2.587.003c-.186.002-.233-.05-.23-.231.01-.93.005-1.862.005-2.793 0-.93.002-1.861-.005-2.792 0-.171.032-.24.226-.238 1.09.022 2.179-.028 3.269.032a5.46 5.46 0 0 1 1.367.258c1.07.343 1.651 1.08 1.75 2.19.045.516.023 1.03-.136 1.528-.363 1.14-1.236 1.663-2.331 1.912a5.96 5.96 0 0 1-1.328.131zm7.005 9.063a1475.254 1475.254 0 0 0-3.997-6.948c-.129-.226-.101-.278.14-.365 1.501-.548 2.633-1.497 3.134-3.058.358-1.117.35-2.261.095-3.405-.29-1.308-1.063-2.225-2.267-2.8-1.074-.517-2.221-.73-3.398-.747-2.013-.03-4.028-.01-6.044-.023-.203 0-.265.047-.265.26.007 5.7.007 11.4 0 17.098 0 .219.05.29.278.286a49.79 49.79 0 0 1 2.204 0c.25.005.308-.075.308-.316-.01-2.172-.003-4.34-.01-6.513 0-.218.034-.305.283-.3a58.52 58.52 0 0 0 2.383 0c.2-.003.292.072.384.238a2034.53 2034.53 0 0 0 3.341 6.02c.157.285.263.67.51.814.245.143.635.047.96.05.692.002 1.385 0 2.122 0-.077-.137-.117-.217-.161-.291z"/></g><g><path fill="#fff" d="M68.478 10.015c1.965.014 3.677.674 5.135 1.995.154.14.211.235.043.425-.387.437-.752.895-1.11 1.357-.13.168-.205.162-.365.03-1.129-.942-2.42-1.453-3.906-1.402-.693.024-1.357.165-1.932.585a2.034 2.034 0 0 0-.177 3.175c.507.467 1.135.716 1.75.985 1.106.482 2.22.946 3.323 1.43a6.444 6.444 0 0 1 1.783 1.165c1.169 1.075 1.502 2.45 1.318 3.95-.271 2.214-1.635 3.597-3.691 4.198-3.196.933-6.064.197-8.547-2.027-.184-.164-.182-.266-.019-.445.44-.484.866-.981 1.28-1.487.133-.163.196-.137.334-.01 1.072.99 2.304 1.678 3.766 1.88.965.133 1.92.083 2.81-.375 1.643-.844 1.77-3.03.23-4.046-.79-.52-1.694-.807-2.546-1.201-.906-.42-1.853-.753-2.721-1.25-1.11-.637-1.976-1.492-2.345-2.756-.64-2.19.312-4.344 2.405-5.444.994-.523 2.06-.751 3.182-.732z"/></g><g><path fill="#fff" d="M84.375 24.394c-.591 1.047-1.47 1.64-2.699 1.643-1.23.002-2.169-.563-2.69-1.64-1.01-2.088-1.063-4.23.159-6.241 1.208-1.996 3.88-1.926 5.118.052.608.973.797 2.053.787 3.205.012 1.032-.15 2.05-.675 2.98zm2.717-6.526c-.997-2.085-2.74-3.257-5.078-3.373-2.415-.122-4.277.893-5.548 2.951-.744 1.206-.988 2.55-1.003 4.046.018.804.1 1.7.417 2.554.916 2.482 2.664 4.004 5.33 4.208 2.581.196 4.597-.914 5.798-3.21 1.226-2.343 1.219-4.805.084-7.176z"/></g><g><path fill="#fff" d="M98.278 25.995c-.31.29-.61.57-.91.853-1.155 1.086-2.5 1.595-4.1 1.4-1.586-.195-2.567-1.082-3.048-2.57-.256-.79-.341-1.608-.344-2.431-.012-2.716-.001-5.432-.01-8.148-.002-.25.07-.313.313-.307.714.016 1.43.016 2.143 0 .238-.006.294.064.293.295-.008 2.607-.01 5.214-.002 7.82.002.605.064 1.205.275 1.781.288.79.872 1.157 1.689 1.231 1.233.11 2.108-.505 2.906-1.343.385-.405.547-.822.54-1.392-.03-2.686-.008-5.372-.02-8.058-.001-.28.082-.341.345-.334.714.017 1.43.01 2.144.003.178-.002.262.023.261.236-.006 4.232-.006 8.465 0 12.697 0 .184-.056.238-.236.235a44.028 44.028 0 0 0-1.757.001c-.197.005-.278-.044-.294-.25-.037-.473-.098-.945-.15-1.418-.011-.105-.027-.21-.038-.3z"/></g><g><path fill="#fff" d="M131.62 20.204c-.96-.01-1.92-.005-2.884-.005-.99 0-1.983.002-2.973 0-.097 0-.224.05-.187-.154.221-1.246.713-2.328 1.852-3.001 1.936-1.147 4.093-.084 4.411 2.167.035.236.03.477.07.71.044.253-.067.285-.288.283zm2.48-1.502c-.623-2.974-3.008-4.64-5.997-4.16-2.117.342-3.557 1.598-4.473 3.485-.762 1.571-.868 3.242-.576 4.932.323 1.86 1.23 3.376 2.858 4.393 2.3 1.433 5.408 1.16 7.739-.374.122-.08.117-.147.052-.263a43.616 43.616 0 0 1-.752-1.38c-.084-.17-.156-.17-.305-.075a6.11 6.11 0 0 1-2.033.802c-2.594.514-4.82-1.105-5.091-3.689-.025-.23.022-.278.248-.275 1.36.01 2.72.005 4.078.005 1.37 0 2.74-.005 4.11.005.19 0 .252-.052.274-.244.114-1.06.09-2.114-.132-3.162z"/></g><g><path fill="#fff" d="M58.27 20.196c-.984.005-1.964.003-2.947.003-.98 0-1.961.002-2.944 0-.104 0-.253.054-.213-.161.23-1.279.747-2.376 1.933-3.046 1.286-.722 2.969-.41 3.746.69.506.717.633 1.544.66 2.393.005.196-.149.121-.236.121zm2.402-1.566c-.703-2.984-2.897-4.513-5.965-4.08-2.19.307-3.641 1.648-4.545 3.601-.742 1.601-.821 3.299-.479 5.002.415 2.055 1.504 3.668 3.468 4.535 2.47 1.09 4.833.672 7.082-.703.139-.087.124-.156.054-.28a41.499 41.499 0 0 1-.75-1.383c-.081-.151-.148-.159-.29-.07-.479.298-.993.53-1.539.688-2.427.705-5.148-.362-5.59-3.492-.034-.256-.015-.358.29-.353 1.341.018 2.682.008 4.022.008 1.368 0 2.738-.003 4.108.002.174 0 .256-.022.278-.228.127-1.092.107-2.177-.144-3.247z"/></g><g><path fill="#fff" d="M114.424 21.414c.01.87.134 1.715.51 2.509.939 1.98 3.094 2.685 5.03 1.647.324-.174.638-.366.909-.613.153-.141.21-.09.299.057.292.482.59.962.901 1.431.11.165.065.242-.07.357-3.065 2.624-8.9 1.947-10.153-3.3-.455-1.905-.366-3.799.535-5.586 1.482-2.94 5.13-4.265 8.058-2.943.5.225.949.53 1.374.875.13.104.14.168.035.3-.38.483-.753.971-1.112 1.469-.108.15-.17.126-.292.027-.533-.439-1.105-.812-1.811-.894-1.554-.178-2.898.564-3.634 1.994-.388.752-.58 1.642-.579 2.67z"/></g><g><path fill="#fff" d="M106.298 17.228c.185-.283.317-.5.463-.707.598-.853 1.33-1.55 2.342-1.884.747-.245 1.502-.215 2.252.018.164.051.218.126.18.299a90.432 90.432 0 0 0-.407 1.975c-.03.15-.068.195-.232.147-1.81-.536-3.012.323-3.816 1.622-.349.563-.542 1.149-.531 1.841.038 2.358.008 4.717.022 7.075.002.297-.084.36-.364.352-.674-.02-1.35-.02-2.024 0-.28.009-.365-.056-.364-.352.013-2.685.008-5.37.008-8.056 0-1.486.006-2.973-.006-4.46-.002-.251.074-.315.317-.306.525.019 1.053.03 1.577-.003.328-.02.391.108.408.396.037.652.11 1.301.175 2.043z"/></g><g><path fill="#fff" d="M20.794 13.073c0 1.623-1.33 2.92-2.997 2.921-1.66.001-3.017-1.327-3.017-2.951 0-1.632 1.312-2.876 3.03-2.874 1.725.002 2.984 1.227 2.984 2.904z"/></g><g><path fill="#fff" d="M9.582 18.272c.002-2.2 2.225-3.61 4.116-2.611 1.053.556 1.743 1.892 1.581 3.062-.186 1.341-1.046 2.308-2.286 2.568-1.46.306-3.03-.793-3.343-2.342a3.352 3.352 0 0 1-.068-.677z"/></g><g><path fill="#fff" d="M18.007 26.34c-1.184 0-1.983-.378-2.589-1.136-.912-1.141-.799-2.614.263-3.643 1.246-1.207 3.448-1.077 4.499.285.687.89.766 1.882.282 2.877-.53 1.092-1.462 1.593-2.455 1.617z"/></g><g><path fill="#fff" d="M151.005 17.362c.476-.72.971-1.396 1.647-1.918.94-.73 1.98-.944 3.131-.6.218.064.275.161.202.383-.09.27-.143.554-.2.835-.025.123-.07.135-.18.098-1.465-.484-2.563.106-3.476 1.203-.434.522-.724 1.13-.989 1.75-.057.133-.053.27-.053.408 0 2.703-.005 5.408.007 8.111.002.283-.084.355-.345.332a3.805 3.805 0 0 0-.713 0c-.281.029-.365-.055-.364-.35.013-2.734.007-5.468.007-8.201 0-1.357.01-2.714-.007-4.071-.003-.284.087-.368.347-.327.038.006.079.001.118.001.73 0 .726 0 .763.749.027.533.07 1.065.105 1.597z"/></g><g><path fill="#fff" d="M23.24 10.922c-1.334-.014-2.647-.955-3.008-2.165-.346-1.155.217-2.187 1.374-2.523 1.525-.443 3.311.517 3.776 2.028.386 1.259-.356 2.426-1.668 2.618-.157.023-.316.028-.473.042z"/></g><g><path fill="#fff" d="M12.581 10.912c-1.175.002-1.997-.505-2.303-1.296-.207-.536-.153-1.07.055-1.592.649-1.632 2.659-2.175 3.89-1.733 1.142.41 1.622 1.727.99 2.875-.61 1.105-1.575 1.689-2.632 1.746z"/></g><g><path fill="#fff" d="M25.42 12.92c-.005-.19.028-.435.093-.675.36-1.324 1.628-1.88 2.851-1.252 1.295.665 1.989 2.305 1.561 3.693-.42 1.36-1.799 1.842-3.024 1.056-.9-.578-1.487-1.674-1.48-2.823z"/></g><g><path fill="#fff" d="M10.212 13.068c-.064 1.214-.618 2.16-1.662 2.77-1.185.694-2.515.1-2.854-1.228-.326-1.277.237-2.733 1.337-3.458 1.38-.911 2.987-.148 3.15 1.498.014.137.02.276.03.418z"/></g><g><path fill="#fff" d="M10.313 23.628c-.01.17-.017.355-.059.541-.25 1.13-1.193 1.692-2.308 1.37-1.538-.444-2.538-2.256-2.093-3.795.322-1.113 1.448-1.584 2.58-1.078 1.086.485 1.88 1.73 1.88 2.962z"/></g><g><path fill="#94bb46" d="M17.724 6.423c-.61-.029-1.256-.157-1.813-.564-.923-.673-.926-1.732-.013-2.41 1.032-.766 2.84-.749 3.856.037.841.65.846 1.658.011 2.319-.492.39-1.225.62-2.041.618z"/></g><g><path fill="#fff" d="M5.842 18.36c-.026.686-.155 1.36-.631 1.915-.544.634-1.314.662-1.889.057-.648-.682-.827-1.535-.8-2.44.016-.475.108-.942.334-1.371.547-1.035 1.642-1.139 2.353-.212.458.596.61 1.295.633 2.051z"/></g><g><path fill="#fff" d="M10.286 3.847c.827-.005 1.257.574.95 1.345-.39.977-1.182 1.56-2.115 1.969-.422.185-.866.278-1.331.173-.552-.124-.79-.503-.668-1.057.104-.48.375-.866.69-1.226.594-.674 1.677-1.2 2.474-1.204z"/></g><g><path fill="#94bb46" d="M27.503 7.336c-1.19-.017-2.67-1.104-3.043-2.234-.262-.797.189-1.421 1-1.328 1.314.151 2.27.856 2.918 1.995.038.068.063.144.09.219.286.815-.105 1.36-.965 1.348z"/></g><g><path fill="#fff" d="M3.33 10.58c.133-1.068.705-2.076 1.82-2.745.125-.075.272-.12.415-.155.524-.13.924.12 1.044.646.136.598-.005 1.16-.259 1.695-.332.7-.795 1.304-1.481 1.692-.893.504-1.558.096-1.538-1.133z"/></g><g><path fill="#fff" d="M6.938 27.39c-.002.775-.437 1.082-1.165.822-1.124-.401-2.189-1.97-2.148-3.165.018-.524.35-.819.873-.769.337.032.63.182.885.39.675.546 1.18 1.219 1.453 2.051.071.217.109.441.102.671z"/></g><g><path fill="#fff" d="M8.357 28.795c.301-.006.592.056.87.162a4.662 4.662 0 0 1 1.925 1.39c.193.229.331.491.365.797.049.447-.198.767-.644.836a1.97 1.97 0 0 1-.822-.06c-.891-.242-1.669-.663-2.215-1.434a2.84 2.84 0 0 1-.269-.46c-.34-.746-.027-1.23.79-1.231z"/></g><g><path fill="#fff" d="M12.928 3.462a2.408 2.408 0 0 1-.849-.129c-.47-.168-.595-.547-.327-.966.13-.203.299-.377.5-.502.905-.557 1.889-.792 2.95-.669.16.02.304.084.437.173.33.22.405.527.205.871-.132.229-.333.39-.553.528-.723.45-1.517.664-2.363.694z"/></g><g><path fill="#94bb46" d="M21.16 1.175a4.404 4.404 0 0 1 2.253.708c.168.109.316.24.442.393.355.428.243.864-.28 1.053-.487.176-.99.161-1.494.072-.77-.137-1.501-.373-2.079-.93-.533-.515-.391-1.027.32-1.222.242-.066.489-.07.838-.074z"/></g><g><path fill="#fff" d="M2.994 13.408c-.015 1.027-.273 1.815-.757 2.527-.18.263-.398.544-.765.449-.36-.093-.482-.412-.524-.754-.124-1.03.035-2.008.553-2.917.113-.199.255-.378.44-.516.304-.228.58-.175.775.147.23.378.292.794.278 1.064z"/></g><g><path fill="#fff" d="M3.17 22.911c.01.312-.023.612-.174.893-.165.31-.373.378-.68.207a1.493 1.493 0 0 1-.574-.59c-.493-.881-.746-1.824-.67-2.84.008-.116.04-.236.087-.342.173-.393.5-.48.839-.219.116.09.224.199.307.319.536.774.842 1.627.866 2.572z"/></g><g><path fill="#94bb46" d="M17.856 1.081c-.487 0-.97-.04-1.44-.173a1.529 1.529 0 0 1-.356-.143c-.233-.137-.228-.308.006-.451.197-.121.42-.172.646-.21.889-.147 1.775-.156 2.649.09.191.054.46.098.455.353-.005.248-.272.289-.463.347-.487.148-.99.19-1.497.187z"/></g><g><path fill="#95bb46" d="M29.882 5.422a1.165 1.165 0 0 1-.482-.14c-.883-.438-1.646-1.03-2.248-1.813-.126-.162-.334-.367-.168-.576.157-.198.397-.044.576.037a6.115 6.115 0 0 1 2.354 1.86c.078.1.141.217.188.335.078.2-.003.304-.22.297z"/></g><g><path fill="#fff" d="M5.868 5.47c-.286-.001-.364-.144-.217-.393.255-.43.623-.765.993-1.091a6.59 6.59 0 0 1 1.397-.94 1.66 1.66 0 0 1 .387-.14c.268-.06.406.096.303.351a1.38 1.38 0 0 1-.248.4c-.591.657-1.248 1.235-2.046 1.637a1.811 1.811 0 0 1-.569.176z"/></g><g><path fill="#fff" d="M4.892 6.437c-.012.208-.114.444-.231.672-.388.755-.88 1.431-1.544 1.969-.147.119-.33.307-.522.168-.208-.152-.078-.388.003-.57.39-.875.898-1.67 1.607-2.324.087-.08.186-.147.284-.214.092-.064.2-.11.305-.049.106.062.103.183.098.348z"/></g><g><path fill="#fff" d="M.905 18.346c.008.405-.02.858-.178 1.292-.05.135-.062.33-.247.325-.177-.005-.198-.198-.248-.331-.167-.442-.175-.912-.209-1.374-.042-.573-.034-1.147.092-1.712a1.62 1.62 0 0 1 .056-.2c.038-.103.076-.225.199-.235.144-.012.193.119.234.23.235.63.308 1.285.301 2.005z"/></g><g><path fill="#fff" d="M5.3 29.383c0 .207-.088.26-.23.198a1.113 1.113 0 0 1-.268-.183 7.745 7.745 0 0 1-1.81-2.327c-.066-.128-.218-.3-.06-.426.14-.114.307.017.426.114a6.785 6.785 0 0 1 1.86 2.352c.047.097.064.207.083.272z"/></g><g><path fill="#95bb46" d="M25.996 2.322c-.794-.13-1.54-.44-2.264-.81a6.702 6.702 0 0 1-.707-.433c-.09-.062-.236-.143-.181-.271.055-.128.208-.078.322-.06.284.044.56.122.831.215a8.86 8.86 0 0 1 1.877.872c.092.058.178.126.261.195.069.056.153.123.115.22-.04.103-.153.06-.254.072z"/></g><g><path fill="#fff" d="M9.767 2.32c-.144-.004-.3.03-.338-.068-.051-.132.105-.198.198-.258.881-.565 1.851-.927 2.854-1.209.065-.018.138-.014.207-.01.172.007.218.081.103.221a.722.722 0 0 1-.15.142c-.827.56-1.717.977-2.704 1.167-.067.013-.137.012-.17.015z"/></g><g><path fill="#fff" d="M1.976 10.087c-.006.28-.07.53-.142.775-.225.76-.539 1.485-.915 2.181-.051.096-.108.254-.249.196-.117-.047-.062-.193-.046-.297.166-1.046.56-2.01 1.078-2.928.047-.083.106-.215.202-.19.135.034.04.187.072.263z"/></g><g><path fill="#fff" d="M2.312 26.02c-.13-.003-.172-.093-.212-.164-.516-.912-.994-1.84-1.221-2.874-.016-.073-.077-.172.012-.214.112-.054.147.075.185.14.514.88.976 1.782 1.23 2.775a.589.589 0 0 1 .006.336z"/></g><g><path fill="#fff" d="M146.584 16.33c-.273 1.417-1.176 2.234-2.527 2.618-.807.23-1.633.307-2.468.31-.912.001-1.825-.009-2.737.006-.24.004-.318-.047-.315-.303.015-1.208.007-2.417.007-3.625 0-1.209.001-2.417-.002-3.625 0-.162-.007-.275.225-.269 1.337.033 2.677-.049 4.013.074a7.537 7.537 0 0 1 1.825.384c1.193.42 1.849 1.265 2.019 2.509a5.87 5.87 0 0 1-.04 1.92zm1.463-2.335c-.23-1.373-.95-2.389-2.219-2.998-.943-.453-1.948-.661-2.983-.726-1.813-.114-3.63-.024-5.445-.058-.244-.004-.313.06-.312.308.009 2.854.006 5.708.006 8.562v8.503c0 .418-.056.37.387.373.248.002.499-.02.744.006.274.028.323-.08.322-.332-.01-2.299-.002-4.598-.011-6.897-.001-.236.064-.297.297-.294 1.092.012 2.183.006 3.275.005a8.43 8.43 0 0 0 2.548-.372c1.402-.444 2.53-1.222 3.103-2.636.452-1.115.485-2.273.288-3.445z"/></g><g><path fill="#fff" d="M165.595 25.09c-1.677 2.646-5.268 2.636-6.937-.014-.773-1.229-.996-2.588-.932-4.01.058-1.273.391-2.462 1.16-3.495 1.775-2.383 5.148-2.218 6.713.322.68 1.104.927 2.321.931 3.6-.002 1.28-.24 2.501-.935 3.598zm1.391-7.64c-2.017-3.397-6.796-3.74-9.25-.653-.923 1.163-1.342 2.517-1.439 3.984-.116 1.77.145 3.452 1.142 4.967 2.1 3.194 6.662 3.423 9.061.448 1.109-1.374 1.501-2.981 1.5-4.71-.003-1.43-.274-2.79-1.014-4.036z"/></g></g></g></svg>