<svg xmlns="http://www.w3.org/2000/svg" xmlns:xlink="http://www.w3.org/1999/xlink" width="19" height="29" viewBox="0 0 19 29">
    <defs>
        <path id="prefix__a" d="M0.5 0.5L28.5 0.5 28.5 18.5 0.5 18.5z"/>
    </defs>
    <g fill="none" fill-rule="evenodd" transform="rotate(90 9.5 9.5)">
        <mask id="prefix__b" fill="#fff">
            <use xlink:href="#prefix__a"/>
        </mask>
        <path fill="#019CFF" d="M19.692.815c-.422-.42-1.104-.42-1.525 0-.422.42-.422 1.097 0 1.517l6.128 6.095H1.579C.983 8.427.5 8.907.5 9.5c0 .592.483 1.073 1.079 1.073h22.866l-6.128 6.095c-.422.42-.422 1.1 0 1.518.21.21.486.314.762.314s.552-.104.763-.314l8.658-8.61L19.692.814z" mask="url(#prefix__b)"/>
    </g>
</svg>
