<svg xmlns="http://www.w3.org/2000/svg" width="60" height="60" viewBox="0 0 60 60"><g><g opacity=".6"><path fill="#0968c9" d="M30 60c16.569 0 30-13.431 30-30C60 13.431 46.569 0 30 0 13.431 0 0 13.431 0 30c0 16.569 13.431 30 30 30z"/></g><g opacity=".6" transform="rotate(-90 31.5 30)"><path fill="#fff" d="M42.632 24.17l-.753-.782a1.231 1.231 0 0 0-1.78 0l-8.594 8.857-8.604-8.867a1.231 1.231 0 0 0-1.78 0l-.753.777a1.326 1.326 0 0 0 0 1.834l10.244 10.595c.237.244.552.416.892.416h.004c.337 0 .653-.172.89-.416l10.234-10.566a1.33 1.33 0 0 0 .368-.926c0-.348-.13-.678-.368-.922z"/><path fill="none" stroke="#0968c9" stroke-miterlimit="20" d="M42.632 24.17l-.753-.782a1.231 1.231 0 0 0-1.78 0l-8.594 8.857v0l-8.604-8.867a1.231 1.231 0 0 0-1.78 0l-.753.777a1.326 1.326 0 0 0 0 1.834l10.244 10.595c.237.244.552.416.892.416h.004c.337 0 .653-.172.89-.416l10.234-10.566a1.33 1.33 0 0 0 .368-.926c0-.348-.13-.678-.368-.922z"/></g></g></svg>