<svg xmlns="http://www.w3.org/2000/svg" width="16" height="25" viewBox="0 0 16 25"><g><g opacity=".6" transform="rotate(-90 8.5 13)"><path fill="#fff" d="M19.632 7.17l-.753-.782a1.231 1.231 0 0 0-1.78 0l-8.594 8.857-8.604-8.867a1.231 1.231 0 0 0-1.78 0l-.753.777a1.326 1.326 0 0 0 0 1.834L7.612 19.584c.237.244.552.416.892.416h.004c.337 0 .653-.172.89-.416L19.632 9.018A1.33 1.33 0 0 0 20 8.092c0-.348-.13-.678-.368-.922z"/><path fill="none" stroke="#0968c9" stroke-miterlimit="20" d="M19.632 7.17l-.753-.782a1.231 1.231 0 0 0-1.78 0l-8.594 8.857v0L-.099 6.378a1.231 1.231 0 0 0-1.78 0l-.753.777a1.326 1.326 0 0 0 0 1.834L7.612 19.584c.237.244.552.416.892.416h.004c.337 0 .653-.172.89-.416L19.632 9.018A1.33 1.33 0 0 0 20 8.092c0-.348-.13-.678-.368-.922z"/></g></g></svg>