<svg xmlns="http://www.w3.org/2000/svg" width="25" height="21" viewBox="0 0 25 21"><g><g><g><path fill="#fff" d="M6.969 12.329l-4.59-5.305 4.59-5.304c.37-.43.327-1.08-.098-1.456A1.016 1.016 0 0 0 5.43.363L.252 6.346a1.038 1.038 0 0 0 0 1.357l5.177 5.983a1.017 1.017 0 0 0 1.442.098 1.038 1.038 0 0 0 .098-1.455z"/></g><g><path fill="#fff" d="M17.575 6H1.022C.457 6 0 6.462 0 7.032c0 .57.457 1.031 1.022 1.031h16.553c2.967 0 5.381 2.437 5.381 5.433s-2.414 5.433-5.381 5.433H2.385c-.565 0-1.023.462-1.023 1.032 0 .57.458 1.031 1.022 1.031h15.19c4.095 0 7.426-3.363 7.426-7.496C25 9.363 21.669 6 17.575 6z"/></g></g></g></svg>