<svg xmlns="http://www.w3.org/2000/svg" width="37" height="49" viewBox="0 0 37 49"><g><g><path fill="none" stroke="#f4811f" stroke-linecap="round" stroke-linejoin="round" stroke-miterlimit="20" stroke-width="2.3" d="M30.933 45.212H3.88C2.752 45.212 2 44.454 2 43.317V3.895C2 2.758 2.752 2 3.879 2H31.12C32.248 2 33 2.758 33 3.895v39.422c-.188.947-.94 1.895-2.067 1.895z"/></g><g opacity=".22"><path fill="#f4811f" d="M6 7a2 2 0 0 1 2-2h27a2 2 0 0 1 2 2v40a2 2 0 0 1-2 2H8a2 2 0 0 1-2-2z"/></g><g><path fill="none" stroke="#f27218" stroke-linecap="round" stroke-linejoin="round" stroke-miterlimit="20" stroke-width="2.3" d="M6.7 14.21h19.727"/></g><g><path fill="none" stroke="#f27218" stroke-linecap="round" stroke-linejoin="round" stroke-miterlimit="20" stroke-width="2.3" d="M6.7 21.73h19.727"/></g><g><path fill="none" stroke="#f27218" stroke-linecap="round" stroke-linejoin="round" stroke-miterlimit="20" stroke-width="2.3" d="M21.73 33h4.697"/></g></g></svg>