<svg xmlns="http://www.w3.org/2000/svg" width="24" height="24" viewBox="0 0 24 24"><g><g><g><path fill="#fff" d="M21.777 16.855c-.051 1.172-.248 1.805-.412 2.227a3.982 3.982 0 0 1-2.28 2.279c-.421.164-1.06.36-2.227.412-1.266.056-1.646.07-4.849.07-3.202 0-3.587-.014-4.848-.07-1.173-.051-1.806-.248-2.228-.412a3.694 3.694 0 0 1-1.378-.896 3.731 3.731 0 0 1-.896-1.378c-.164-.422-.361-1.06-.413-2.227-.056-1.266-.07-1.646-.07-4.848 0-3.203.014-3.587.07-4.848.052-1.172.249-1.805.413-2.227.192-.52.497-.994.9-1.379.39-.398.858-.703 1.379-.895.422-.164 1.06-.36 2.227-.413 1.266-.056 1.646-.07 4.849-.07 3.208 0 3.587.014 4.849.07 1.172.052 1.805.249 2.227.413.52.192.994.497 1.379.895.398.39.703.858.896 1.379.164.422.36 1.06.412 2.227.057 1.266.07 1.645.07 4.848 0 3.202-.013 3.577-.07 4.843zm2.162-9.799c-.056-1.275-.262-2.152-.558-2.911a5.857 5.857 0 0 0-1.388-2.129A5.908 5.908 0 0 0 19.869.633C19.104.338 18.232.13 16.957.075 15.672.015 15.264 0 12.005 0c-3.26 0-3.667.014-4.948.07-1.275.057-2.152.263-2.912.558a5.857 5.857 0 0 0-2.129 1.388A5.909 5.909 0 0 0 .633 4.14C.338 4.904.131 5.776.075 7.05.015 8.336 0 8.744 0 12.002c0 3.259.014 3.667.07 4.947.057 1.275.263 2.152.558 2.911a5.918 5.918 0 0 0 1.388 2.129c.6.61 1.328 1.083 2.125 1.383.764.295 1.636.501 2.912.558 1.28.056 1.688.07 4.947.07 3.26 0 3.667-.014 4.947-.07 1.276-.057 2.153-.263 2.912-.558a6.14 6.14 0 0 0 3.513-3.512c.295-.764.501-1.636.558-2.911.056-1.28.07-1.688.07-4.947 0-3.258-.005-3.666-.061-4.946z"/></g><g><path fill="#fff" d="M8.508 12.4a3.893 3.893 0 1 1 7.785.001 3.893 3.893 0 0 1-7.785-.001zm3.892-6c-3.312 0-6 2.687-6 6s2.688 6 6 6c3.313 0 6-2.687 6-6s-2.687-6-6-6z"/></g><g><path fill="#fff" d="M20.8 4.8a1.6 1.6 0 1 1-3.2 0 1.6 1.6 0 0 1 3.2 0z"/></g></g></g></svg>