<svg xmlns="http://www.w3.org/2000/svg" width="14" height="9" viewBox="0 0 14 9"><g><g><path fill="#242424" d="M12.808 1.585l-.393-.39a.656.656 0 0 0-.464-.19.656.656 0 0 0-.464.19L7.003 5.622l-4.49-4.434A.655.655 0 0 0 2.05 1a.656.656 0 0 0-.464.19l-.393.388a.643.643 0 0 0 0 .917l5.345 5.297A.675.675 0 0 0 7.002 8h.002c.176 0 .34-.086.464-.208l5.34-5.283a.65.65 0 0 0 0-.924z"/><path fill="none" stroke="#fff" stroke-miterlimit="20" stroke-width=".5" d="M12.808 1.585l-.393-.39a.656.656 0 0 0-.464-.19.656.656 0 0 0-.464.19L7.003 5.622v0l-4.49-4.434A.655.655 0 0 0 2.05 1a.656.656 0 0 0-.464.19l-.393.388a.643.643 0 0 0 0 .917l5.345 5.297A.675.675 0 0 0 7.002 8h.002c.176 0 .34-.086.464-.208l5.34-5.283a.65.65 0 0 0 0-.924z"/></g></g></svg>