<svg xmlns="http://www.w3.org/2000/svg" width="27" height="24" viewBox="0 0 27 24"><g><g><g><path fill="#fff" d="M27.2 3.452c-1.012.45-2.09.748-3.213.892A5.607 5.607 0 0 0 26.44 1.22a11.054 11.054 0 0 1-3.536 1.369A5.553 5.553 0 0 0 18.831.8c-3.087 0-5.573 2.54-5.573 5.653 0 .448.038.88.13 1.29C8.751 7.512 4.648 5.26 1.893 1.83a5.75 5.75 0 0 0-.764 2.857 5.68 5.68 0 0 0 2.477 4.697 5.45 5.45 0 0 1-2.519-.696v.062c0 2.747 1.933 5.028 4.468 5.554a5.495 5.495 0 0 1-1.462.186c-.357 0-.718-.02-1.056-.097.722 2.239 2.773 3.884 5.21 3.938a11.11 11.11 0 0 1-6.914 2.41c-.457 0-.895-.02-1.334-.077A15.546 15.546 0 0 0 8.554 23.2c10.262 0 15.872-8.615 15.872-16.083 0-.25-.009-.491-.02-.73A11.21 11.21 0 0 0 27.2 3.451z"/></g></g></g></svg>