<svg xmlns="http://www.w3.org/2000/svg" width="26" height="21" viewBox="0 0 26 21"><g><g opacity=".3"><path d="M25.5 2.405c-.93.408-1.92.678-2.953.81A5.096 5.096 0 0 0 24.802.38c-.991.59-2.085 1.008-3.25 1.24a5.124 5.124 0 0 0-8.866 3.505c0 .407.034.797.119 1.17C8.544 6.086 4.773 4.045 2.24.933a5.16 5.16 0 0 0-.702 2.591c0 1.775.914 3.348 2.277 4.26A5.062 5.062 0 0 1 1.5 7.152v.056c0 2.491 1.777 4.56 4.106 5.036a5.115 5.115 0 0 1-1.343.17c-.329 0-.66-.02-.97-.088.663 2.03 2.548 3.521 4.788 3.57a10.298 10.298 0 0 1-6.354 2.186 9.6 9.6 0 0 1-1.227-.07c2.27 1.464 4.96 2.3 7.863 2.3 9.43 0 14.587-7.813 14.587-14.585 0-.226-.008-.445-.019-.662A10.224 10.224 0 0 0 25.5 2.405z"/></g></g></svg>