<?xml version="1.0" standalone="no"?>
<!DOCTYPE svg PUBLIC "-//W3C//DTD SVG 1.1//EN" "http://www.w3.org/Graphics/SVG/1.1/DTD/svg11.dtd" >
<svg xmlns="http://www.w3.org/2000/svg" xmlns:xlink="http://www.w3.org/1999/xlink" version="1.1">
<metadata>
Created by FontForge 20190801 at Mon Jun 29 18:25:12 2015
 By Jimmy Wärting
2015 published by Monotype GmbH
</metadata>
<defs>
<font id="DINOT-Extlight" horiz-adv-x="519" >
  <font-face 
    font-family="DINOT-Extlight"
    font-weight="300"
    font-stretch="normal"
    units-per-em="1000"
    panose-1="2 11 4 4 2 1 1 1 1 2"
    ascent="764"
    descent="-236"
    x-height="476"
    cap-height="712"
    bbox="-158 -255 1081 1081"
    underline-thickness="29"
    underline-position="-141"
    stemh="33"
    stemv="36"
    unicode-range="U+000D-FEFF"
  />
<missing-glyph horiz-adv-x="557" 
d="M455 712v-712h-353v712h353zM427 685h-297v-658h297v658z" />
    <glyph glyph-name=".notdef" horiz-adv-x="557" 
d="M455 712v-712h-353v712h353zM427 685h-297v-658h297v658z" />
    <glyph glyph-name=".null" horiz-adv-x="0" 
 />
    <glyph glyph-name=".null" horiz-adv-x="0" 
 />
    <glyph glyph-name="CR" unicode="&#xd;" horiz-adv-x="259" 
 />
    <glyph glyph-name="space" unicode=" " horiz-adv-x="259" 
 />
    <glyph glyph-name="exclam" unicode="!" horiz-adv-x="295" 
d="M181 712l-3 -526h-34l-2 526h39zM188 54v-54h-54v54h54z" />
    <glyph glyph-name="quotedbl" unicode="&#x22;" horiz-adv-x="394" 
d="M297 712v-155h-48v155h48zM145 712v-155h-48v155h48z" />
    <glyph glyph-name="numbersign" unicode="#" horiz-adv-x="662" 
d="M516 712l-38 -236h100v-32h-104l-27 -166h101v-32h-106l-38 -246h-36l39 246h-187l-38 -246h-36l38 246h-100v32h105l27 166h-102v32h106l38 236h36l-38 -236h187l37 236h36zM438 444h-187l-26 -166h186z" />
    <glyph glyph-name="dollar" unicode="$" horiz-adv-x="586" 
d="M303 806v-88c81 -3 133 -28 191 -76l-26 -26c-45 40 -92 64 -165 68v-307c102 -16 130 -26 164 -55c38 -31 58 -78 58 -135c0 -114 -84 -187 -222 -193v-108h-33v108c-96 3 -157 31 -218 92l28 28c56 -58 110 -81 190 -85v317c-78 11 -113 25 -146 53
c-34 28 -55 71 -55 129c0 110 77 182 201 189v89h33zM303 340v-311c113 4 184 60 184 157c0 46 -14 84 -44 108c-33 27 -61 33 -140 46zM270 382v301c-101 -6 -163 -64 -163 -154c0 -45 14 -80 41 -102c29 -24 65 -36 122 -45z" />
    <glyph glyph-name="percent" unicode="%" horiz-adv-x="818" 
d="M228 0l330 712h34l-331 -712h-33zM197 344c-76 0 -126 54 -126 129v116c0 75 50 129 126 129c77 0 127 -54 127 -129v-116c0 -75 -50 -129 -127 -129zM197 373c62 0 95 44 95 106v104c0 62 -33 106 -95 106c-61 0 -94 -44 -94 -106v-104c0 -62 33 -106 94 -106zM621 -6
c-77 0 -127 54 -127 129v116c0 75 50 129 127 129c76 0 126 -54 126 -129v-116c0 -75 -50 -129 -126 -129zM621 23c61 0 94 44 94 106v104c0 62 -33 106 -94 106c-62 0 -95 -44 -95 -106v-104c0 -62 33 -106 95 -106z" />
    <glyph glyph-name="ampersand" unicode="&#x26;" horiz-adv-x="696" 
d="M312 718c74 0 133 -55 133 -132c0 -66 -47 -103 -137 -170l221 -268c30 49 44 102 44 187h38c0 -90 -20 -161 -59 -215l99 -120h-48l-75 91c-45 -53 -125 -97 -223 -97c-133 0 -219 83 -219 199c0 103 57 151 169 228c-46 56 -82 101 -82 161c0 79 63 136 139 136z
M506 118l-230 278c-99 -68 -152 -110 -152 -202c0 -95 71 -165 180 -165c71 0 142 24 202 89zM312 683c-57 0 -101 -41 -101 -100c0 -38 15 -69 75 -141c81 55 121 88 121 144s-42 97 -95 97z" />
    <glyph glyph-name="quotesingle" unicode="'" horiz-adv-x="242" 
d="M145 712v-155h-48v155h48z" />
    <glyph glyph-name="parenleft" unicode="(" horiz-adv-x="273" 
d="M180 806l25 -25c-28 -28 -42 -44 -53 -66c-12 -24 -15 -47 -15 -75v-568c0 -28 3 -51 15 -75c11 -22 25 -38 53 -66l-25 -25c-35 34 -50 51 -62 76c-15 30 -18 55 -18 86v576c0 30 3 57 18 86c12 25 27 42 62 76z" />
    <glyph glyph-name="parenright" unicode=")" horiz-adv-x="273" 
d="M68 781l25 25c35 -34 49 -51 62 -76c15 -30 18 -55 18 -86v-576c0 -30 -3 -57 -18 -86c-13 -25 -27 -42 -62 -76l-25 25c28 28 42 44 53 66c11 24 14 47 14 75v568c0 28 -3 51 -14 75c-11 22 -25 38 -53 66z" />
    <glyph glyph-name="asterisk" unicode="*" horiz-adv-x="496" 
d="M266 712l-3 -155l132 79l17 -29l-135 -75l135 -75l-17 -29l-132 79l3 -155h-35l2 155l-132 -79l-17 29l135 75l-135 75l17 29l132 -79l-2 155h35z" />
    <glyph glyph-name="plus" unicode="+" horiz-adv-x="509" 
d="M271 457v-184h184v-33h-184v-184h-33v184h-184v33h184v184h33z" />
    <glyph glyph-name="comma" unicode="," horiz-adv-x="244" 
d="M148 60v-128l-50 -50v178h50z" />
    <glyph glyph-name="hyphen" unicode="-" horiz-adv-x="426" 
d="M340 273v-33h-254v33h254z" />
    <glyph glyph-name="period" unicode="." horiz-adv-x="255" 
d="M158 61v-61h-61v61h61z" />
    <glyph glyph-name="slash" unicode="/" horiz-adv-x="323" 
d="M323 786l-285 -860h-38l285 860h38z" />
    <glyph glyph-name="zero" unicode="0" horiz-adv-x="507" 
d="M254 -6c-110 0 -182 80 -182 186v352c0 106 72 186 182 186s181 -80 181 -186v-352c0 -106 -71 -186 -181 -186zM254 26c95 0 145 71 145 159v342c0 88 -50 159 -145 159c-96 0 -146 -71 -146 -159v-342c0 -88 50 -159 146 -159z" />
    <glyph glyph-name="one" unicode="1" horiz-adv-x="507" 
d="M269 0v669l-135 -118v45l135 116h36v-712h-36z" />
    <glyph glyph-name="two" unicode="2" horiz-adv-x="507" 
d="M74 0v32l281 374c34 46 49 83 49 130c0 89 -53 149 -146 149c-85 0 -144 -51 -148 -150h-36c3 108 73 183 184 183c112 0 182 -73 182 -182c0 -54 -15 -93 -55 -146l-268 -357h323v-33h-366z" />
    <glyph glyph-name="three" unicode="3" horiz-adv-x="507" 
d="M240 -6c-103 0 -189 61 -198 174h36c10 -94 82 -141 162 -141c89 0 162 63 162 162c0 101 -68 163 -167 163h-17v33h16c92 0 152 54 152 150s-66 150 -147 150c-84 0 -138 -51 -148 -136h-36c13 107 83 169 184 169c107 0 183 -71 183 -183c0 -74 -34 -135 -111 -165
c83 -28 127 -93 127 -181c0 -121 -89 -195 -198 -195z" />
    <glyph glyph-name="four" unicode="4" horiz-adv-x="507" 
d="M328 0v118h-284v33l267 561h39l-268 -561h246v242h36v-242h101v-33h-101v-118h-36z" />
    <glyph glyph-name="five" unicode="5" horiz-adv-x="507" 
d="M258 -6c-65 0 -107 16 -138 47c-24 24 -41 59 -46 108h36c12 -80 60 -122 148 -122c43 0 80 12 104 37c39 39 51 98 51 167c0 90 -26 199 -150 199c-74 0 -121 -35 -142 -90h-31v372h344v-33h-312v-282c35 46 81 66 143 66c54 0 95 -17 124 -46c45 -44 60 -106 60 -186
c0 -82 -14 -143 -58 -188c-34 -34 -80 -49 -133 -49z" />
    <glyph glyph-name="six" unicode="6" horiz-adv-x="507" 
d="M259 -6c-118 0 -186 87 -186 202c0 46 10 87 36 139l187 377h37l-171 -344c26 22 61 32 99 32c116 0 184 -89 184 -201c0 -114 -68 -205 -186 -205zM259 27c90 0 150 67 150 170c0 98 -57 170 -150 170c-91 0 -150 -67 -150 -170s59 -170 150 -170z" />
    <glyph glyph-name="seven" unicode="7" horiz-adv-x="507" 
d="M155 0l255 679h-287v-111h-36v144h360v-33l-256 -679h-36z" />
    <glyph glyph-name="eight" unicode="8" horiz-adv-x="507" 
d="M254 -6c-113 0 -199 85 -199 195c0 81 43 144 121 182c-73 36 -106 92 -106 165c0 104 77 182 184 182s184 -78 184 -182c0 -73 -32 -129 -106 -165c78 -38 121 -101 121 -182c0 -110 -86 -195 -199 -195zM254 27c92 0 163 69 163 162c0 94 -72 164 -163 164
c-92 0 -163 -70 -163 -164c0 -93 71 -162 163 -162zM254 386c85 0 148 61 148 150c0 88 -63 149 -148 149s-148 -61 -148 -149c0 -89 63 -150 148 -150z" />
    <glyph glyph-name="nine" unicode="9" horiz-adv-x="507" 
d="M179 0l172 344c-26 -22 -62 -32 -99 -32c-116 0 -184 89 -184 201c0 114 68 205 186 205c117 0 186 -87 186 -202c0 -46 -10 -87 -36 -139l-187 -377h-38zM254 345c91 0 150 67 150 170s-59 170 -150 170s-150 -67 -150 -170c0 -98 57 -170 150 -170z" />
    <glyph glyph-name="colon" unicode=":" horiz-adv-x="282" 
d="M186 380v-61h-61v61h61zM186 61v-61h-61v61h61z" />
    <glyph glyph-name="semicolon" unicode=";" horiz-adv-x="282" 
d="M178 60v-128l-50 -50v178h50zM186 380v-61h-61v61h61z" />
    <glyph glyph-name="less" unicode="&#x3c;" horiz-adv-x="509" 
d="M398 431v-38l-251 -136l251 -136v-38l-286 157v34z" />
    <glyph glyph-name="equal" unicode="=" horiz-adv-x="509" 
d="M455 354v-33h-401v33h401zM455 200v-33h-401v33h401z" />
    <glyph glyph-name="greater" unicode="&#x3e;" horiz-adv-x="509" 
d="M111 431l286 -157v-34l-286 -157v38l251 136l-251 136v38z" />
    <glyph glyph-name="question" unicode="?" horiz-adv-x="479" 
d="M255 718c99 0 173 -77 173 -172c0 -43 -16 -76 -43 -116l-88 -131c-12 -18 -18 -43 -18 -63v-51h-36v48c0 36 8 57 28 87l85 129c23 36 36 58 36 97c0 80 -60 139 -137 139c-84 0 -138 -65 -138 -138h-36c0 90 68 171 174 171zM289 54v-54h-54v54h54z" />
    <glyph glyph-name="at" unicode="@" horiz-adv-x="712" 
d="M271 712h150c55 0 101 -20 134 -52c35 -35 53 -84 53 -147v-513h-36v81c-32 -65 -88 -87 -149 -87c-53 0 -91 16 -118 42c-45 45 -59 112 -59 201c0 90 13 157 59 202c27 26 65 42 118 42c61 0 117 -22 149 -87v121c0 54 -11 90 -43 122c-30 29 -65 42 -116 42h-134
c-51 0 -86 -13 -116 -42c-32 -32 -43 -67 -43 -122v-360c0 -72 14 -97 63 -134l-20 -28c-64 43 -79 77 -79 162v358c0 63 19 112 53 147c33 33 79 52 134 52zM428 448c-125 0 -145 -108 -145 -211s20 -210 145 -210s145 107 145 210s-20 211 -145 211z" />
    <glyph glyph-name="A" unicode="A" horiz-adv-x="590" 
d="M312 712l262 -712h-39l-67 183h-346l-66 -183h-40l261 712h35zM295 661l-161 -443h322z" />
    <glyph glyph-name="B" unicode="B" horiz-adv-x="670" 
d="M114 712h259c110 0 202 -57 202 -182c0 -76 -42 -140 -118 -163c87 -27 129 -89 129 -176c0 -131 -93 -191 -209 -191h-263v712zM371 347h-219v-312h219c99 0 177 46 177 156s-78 156 -177 156zM367 677h-215v-295h215c91 0 170 40 170 148s-79 147 -170 147z" />
    <glyph glyph-name="C" unicode="C" horiz-adv-x="640" 
d="M324 718c127 0 215 -81 238 -205h-38c-23 107 -99 170 -200 170c-58 0 -105 -19 -143 -56c-52 -51 -59 -119 -59 -271s7 -220 59 -271c38 -37 85 -56 143 -56c101 0 177 63 200 170h38c-23 -124 -111 -205 -238 -205c-71 0 -126 24 -170 67c-63 63 -70 127 -70 295
s7 232 70 295c44 43 99 67 170 67z" />
    <glyph glyph-name="D" unicode="D" horiz-adv-x="678" 
d="M114 712h231c69 0 131 -17 178 -64c63 -63 71 -156 71 -292s-8 -229 -71 -292c-47 -47 -109 -64 -178 -64h-231v712zM336 677h-184v-642h184c58 0 117 11 161 56c52 53 59 149 59 265s-7 212 -59 265c-44 45 -103 56 -161 56z" />
    <glyph glyph-name="E" unicode="E" horiz-adv-x="595" 
d="M539 712v-35h-387v-300h330v-35h-330v-307h387v-35h-425v712h425z" />
    <glyph glyph-name="F" unicode="F" horiz-adv-x="572" 
d="M539 712v-35h-387v-313h330v-35h-330v-329h-38v712h425z" />
    <glyph glyph-name="G" unicode="G" horiz-adv-x="647" 
d="M324 718c126 0 217 -82 239 -205h-38c-22 107 -99 170 -200 170c-58 0 -105 -19 -143 -56c-53 -52 -60 -118 -60 -271s7 -219 60 -271c38 -37 85 -56 142 -56c55 0 109 20 149 62c39 42 54 96 54 161v72h-202v35h240v-112c0 -74 -19 -133 -63 -178
c-47 -49 -109 -75 -178 -75c-71 0 -126 24 -170 67c-62 61 -70 126 -70 295s8 234 70 295c44 43 99 67 170 67z" />
    <glyph glyph-name="H" unicode="H" horiz-adv-x="701" 
d="M587 712v-712h-38v342h-397v-342h-38v712h38v-335h397v335h38z" />
    <glyph glyph-name="I" unicode="I" horiz-adv-x="266" 
d="M152 712v-712h-38v712h38z" />
    <glyph glyph-name="J" unicode="J" horiz-adv-x="493" 
d="M389 712v-506c0 -125 -77 -212 -205 -212c-62 0 -112 20 -151 59l27 28c31 -31 67 -52 124 -52c109 0 167 69 167 188v495h38z" />
    <glyph glyph-name="K" unicode="K" horiz-adv-x="637" 
d="M577 712l-218 -270l258 -442h-44l-239 414l-182 -223v-191h-38v712h38v-470l380 470h45z" />
    <glyph glyph-name="L" unicode="L" horiz-adv-x="569" 
d="M152 712v-677h387v-35h-425v712h38z" />
    <glyph glyph-name="M" unicode="M" horiz-adv-x="817" 
d="M114 0v712h38l258 -519l255 519h38v-712h-38v627l-237 -476h-38l-238 476v-627h-38z" />
    <glyph glyph-name="N" unicode="N" horiz-adv-x="741" 
d="M627 712v-712h-38l-437 647v-647h-38v712h38l437 -647v647h38z" />
    <glyph glyph-name="O" unicode="O" horiz-adv-x="647" 
d="M324 718c71 0 126 -24 169 -67c63 -63 70 -127 70 -295s-7 -232 -70 -295c-43 -43 -98 -67 -169 -67s-126 24 -170 67c-63 63 -70 127 -70 295s7 232 70 295c44 43 99 67 170 67zM324 683c-58 0 -105 -19 -143 -56c-52 -51 -59 -119 -59 -271s7 -220 59 -271
c38 -37 85 -56 143 -56s104 19 142 56c52 52 59 119 59 271s-7 219 -59 271c-38 37 -84 56 -142 56z" />
    <glyph glyph-name="P" unicode="P" horiz-adv-x="630" 
d="M114 712h255c123 0 215 -68 215 -202s-92 -202 -215 -202h-217v-308h-38v712zM362 677h-210v-334h210c108 0 184 50 184 167s-76 167 -184 167z" />
    <glyph glyph-name="Q" unicode="Q" horiz-adv-x="647" 
d="M324 718c71 0 126 -24 169 -67c63 -63 70 -127 70 -295c0 -155 -6 -221 -56 -280l89 -90l-25 -26l-90 90c-41 -36 -92 -56 -157 -56c-71 0 -126 24 -170 67c-63 63 -70 127 -70 295s7 232 70 295c44 43 99 67 170 67zM324 683c-58 0 -105 -19 -143 -56
c-52 -51 -59 -119 -59 -271s7 -220 59 -271c38 -37 85 -56 143 -56c53 0 96 16 132 46l-96 96l26 26l95 -95c38 50 44 118 44 254c0 152 -7 219 -59 271c-38 37 -84 56 -142 56z" />
    <glyph glyph-name="R" unicode="R" horiz-adv-x="654" 
d="M114 712h267c116 0 202 -63 202 -189c0 -114 -71 -176 -173 -187l176 -336h-43l-175 335h-216v-335h-38v712zM374 677h-222v-308h222c100 0 171 46 171 154s-71 154 -171 154z" />
    <glyph glyph-name="S" unicode="S" horiz-adv-x="586" 
d="M290 718c88 0 144 -24 204 -76l-26 -26c-46 43 -98 67 -179 67c-112 0 -182 -57 -182 -154c0 -45 14 -80 41 -102c26 -22 63 -35 106 -42l86 -14c61 -9 94 -21 127 -49c38 -31 58 -78 58 -135c0 -118 -90 -193 -238 -193c-104 0 -171 28 -235 92l28 28
c60 -62 120 -85 209 -85c121 0 198 57 198 157c0 46 -14 84 -44 108c-28 23 -57 33 -113 42l-86 14c-51 8 -87 21 -120 48c-34 28 -55 71 -55 130c0 116 86 190 221 190z" />
    <glyph glyph-name="T" unicode="T" horiz-adv-x="532" 
d="M502 712v-35h-217v-677h-38v677h-217v35h472z" />
    <glyph glyph-name="U" unicode="U" horiz-adv-x="689" 
d="M585 712v-485c0 -135 -98 -233 -241 -233s-240 98 -240 233v485h38v-478c0 -123 79 -205 202 -205c122 0 203 82 203 205v478h38z" />
    <glyph glyph-name="V" unicode="V" horiz-adv-x="522" 
d="M244 0l-233 712h40l210 -647l211 647h39l-234 -712h-33z" />
    <glyph glyph-name="W" unicode="W" horiz-adv-x="834" 
d="M199 0l-178 712h41l157 -649l180 649h38l179 -649l158 649h39l-177 -712h-38l-180 651l-181 -651h-38z" />
    <glyph glyph-name="X" unicode="X" horiz-adv-x="517" 
d="M484 712l-204 -347l217 -365h-45l-194 333l-196 -333h-42l216 365l-204 347h45l181 -315l184 315h42z" />
    <glyph glyph-name="Y" unicode="Y" horiz-adv-x="491" 
d="M227 0v296l-216 416h41l195 -377l193 377h40l-215 -416v-296h-38z" />
    <glyph glyph-name="Z" unicode="Z" horiz-adv-x="567" 
d="M64 0v34l392 644h-380v34h420v-34l-391 -644h398v-34h-439z" />
    <glyph glyph-name="bracketleft" unicode="[" horiz-adv-x="281" 
d="M235 786v-33h-99v-794h99v-33h-135v860h135z" />
    <glyph glyph-name="backslash" unicode="\" horiz-adv-x="323" 
d="M38 786l285 -860h-38l-285 860h38z" />
    <glyph glyph-name="bracketright" unicode="]" horiz-adv-x="281" 
d="M181 786v-860h-135v32h99v796h-99v32h135z" />
    <glyph glyph-name="asciicircum" unicode="^" horiz-adv-x="509" 
d="M271 718l154 -290h-37l-134 250l-133 -250h-37l154 290h33z" />
    <glyph glyph-name="underscore" unicode="_" horiz-adv-x="498" 
d="M498 -127v-29h-498v29h498z" />
    <glyph glyph-name="grave" unicode="`" 
d="M184 730l101 -142h-41l-108 142h48z" />
    <glyph glyph-name="a" unicode="a" horiz-adv-x="517" 
d="M231 -6c-71 0 -109 11 -141 43c-22 22 -32 56 -32 90c0 89 63 136 165 136h163v60c0 82 -39 126 -143 126c-72 0 -108 -18 -139 -64l-28 22c37 54 85 75 166 75c126 0 180 -54 180 -154v-328h-36v57c-34 -45 -82 -63 -155 -63zM231 26c45 0 90 5 126 40
c19 19 29 50 29 98v68h-159c-88 0 -133 -34 -133 -104c0 -69 43 -102 137 -102z" />
    <glyph glyph-name="b" unicode="b" horiz-adv-x="533" 
d="M136 712v-317c33 65 89 87 149 87c53 0 92 -16 118 -42c45 -46 59 -113 59 -203c0 -89 -14 -156 -59 -201c-26 -26 -65 -42 -118 -42c-60 0 -116 22 -149 87v-81h-36v712h36zM281 449c-125 0 -145 -109 -145 -212s20 -210 145 -210s145 107 145 210s-20 212 -145 212z
" />
    <glyph glyph-name="c" unicode="c" horiz-adv-x="487" 
d="M273 482c66 0 109 -20 154 -75l-27 -22c-38 46 -73 64 -128 64c-50 0 -88 -17 -118 -51c-35 -41 -47 -94 -47 -160s12 -119 47 -160c30 -34 68 -51 118 -51c55 0 90 18 128 64l27 -22c-45 -55 -88 -75 -154 -75c-136 0 -202 101 -202 244s66 244 202 244z" />
    <glyph glyph-name="d" unicode="d" horiz-adv-x="533" 
d="M433 712v-712h-36v81c-33 -65 -89 -87 -149 -87c-53 0 -92 16 -118 42c-45 45 -59 112 -59 201c0 90 14 157 59 203c26 26 65 42 118 42c60 0 116 -22 149 -87v317h36zM252 449c-125 0 -145 -109 -145 -212s20 -210 145 -210s145 107 145 210s-20 212 -145 212z" />
    <glyph glyph-name="e" unicode="e" horiz-adv-x="515" 
d="M257 482c119 0 187 -90 187 -234v-16h-337c0 -133 57 -205 165 -205c57 0 95 19 138 63l27 -23c-48 -49 -91 -73 -168 -73c-134 0 -198 91 -198 243c0 153 67 245 186 245zM257 449c-47 0 -86 -21 -112 -57c-23 -31 -34 -67 -38 -129h300c-4 62 -15 98 -38 129
c-26 36 -65 57 -112 57z" />
    <glyph glyph-name="f" unicode="f" horiz-adv-x="297" 
d="M264 712v-33h-44c-47 0 -68 -28 -68 -73v-130h112v-29h-112v-447h-36v447h-68v29h68v130c0 64 36 106 98 106h50z" />
    <glyph glyph-name="g" unicode="g" horiz-adv-x="533" 
d="M248 482c60 0 116 -22 149 -87v81h36v-517c0 -121 -62 -201 -184 -201c-71 0 -112 20 -160 63l26 27c38 -37 70 -57 135 -57c101 0 147 66 147 171v119c-33 -65 -89 -87 -149 -87c-53 0 -92 16 -118 42c-45 45 -59 113 -59 202c0 90 14 156 59 202c26 26 65 42 118 42z
M252 449c-126 0 -145 -108 -145 -211s19 -211 145 -211c125 0 145 108 145 211s-20 211 -145 211z" />
    <glyph glyph-name="h" unicode="h" horiz-adv-x="553" 
d="M136 712v-308c32 53 81 78 149 78c57 0 101 -17 131 -49c28 -31 43 -73 43 -131v-302h-36v295c0 98 -46 154 -141 154s-146 -57 -146 -153v-296h-36v712h36z" />
    <glyph glyph-name="i" unicode="i" horiz-adv-x="239" 
d="M138 476v-476h-36v476h36zM141 712v-77h-43v77h43z" />
    <glyph glyph-name="j" unicode="j" horiz-adv-x="240" 
d="M138 476v-606c0 -66 -34 -106 -98 -106h-50v33h44c49 0 68 27 68 74v605h36zM141 712v-77h-43v77h43z" />
    <glyph glyph-name="k" unicode="k" horiz-adv-x="514" 
d="M136 712v-527l254 291h45l-153 -176l191 -300h-44l-172 273l-121 -137v-136h-36v712h36z" />
    <glyph glyph-name="l" unicode="l" horiz-adv-x="277" 
d="M133 712v-605c0 -47 18 -74 68 -74h44v-33h-51c-63 0 -97 40 -97 105v607h36z" />
    <glyph glyph-name="m" unicode="m" horiz-adv-x="876" 
d="M608 482c55 0 97 -17 127 -46c31 -30 47 -74 47 -134v-302h-36v295c0 98 -46 154 -141 154c-94 0 -146 -58 -146 -150v-299h-36v296c0 97 -46 153 -141 153s-146 -58 -146 -153v-296h-36v476h36v-72c32 53 81 78 150 78c79 0 134 -35 158 -99c31 66 86 99 164 99z" />
    <glyph glyph-name="n" unicode="n" horiz-adv-x="553" 
d="M285 482c55 0 97 -16 127 -46c31 -30 47 -74 47 -134v-302h-36v295c0 98 -46 154 -141 154s-146 -58 -146 -153v-296h-36v476h36v-72c32 53 81 78 149 78z" />
    <glyph glyph-name="o" unicode="o" 
d="M259 -6c-53 0 -96 16 -132 52c-52 52 -56 124 -56 192s4 140 56 192c36 36 79 52 132 52c54 0 96 -16 132 -52c52 -52 57 -124 57 -192s-5 -140 -57 -192c-36 -36 -78 -52 -132 -52zM259 27c43 0 79 14 107 42c43 43 46 113 46 169s-3 126 -46 169c-28 28 -64 42 -107 42
c-42 0 -78 -14 -107 -42c-43 -43 -45 -113 -45 -169s2 -126 45 -169c29 -28 65 -42 107 -42z" />
    <glyph glyph-name="p" unicode="p" horiz-adv-x="533" 
d="M100 -236v712h36v-81c33 65 89 87 149 87c53 0 92 -16 118 -42c45 -45 59 -112 59 -201c0 -90 -14 -157 -59 -203c-26 -26 -65 -42 -118 -42c-60 0 -116 22 -149 87v-317h-36zM281 27c125 0 145 109 145 212s-20 210 -145 210s-145 -107 -145 -210s20 -212 145 -212z" />
    <glyph glyph-name="q" unicode="q" horiz-adv-x="533" 
d="M397 -236v317c-33 -65 -89 -87 -149 -87c-53 0 -92 16 -118 42c-45 46 -59 113 -59 203c0 89 14 156 59 201c26 26 65 42 118 42c60 0 116 -22 149 -87v81h36v-712h-36zM252 27c125 0 145 109 145 212s-20 210 -145 210s-145 -107 -145 -210s20 -212 145 -212z" />
    <glyph glyph-name="r" unicode="r" horiz-adv-x="399" 
d="M278 482c48 0 81 -12 116 -46l-27 -26c-29 28 -55 39 -95 39c-85 0 -136 -73 -136 -153v-296h-36v476h36v-79c29 56 82 85 142 85z" />
    <glyph glyph-name="s" unicode="s" horiz-adv-x="492" 
d="M242 482c69 0 122 -17 163 -50l-25 -26c-35 29 -81 43 -138 43c-84 0 -132 -35 -132 -99c0 -54 35 -82 103 -89l78 -8c78 -8 139 -32 139 -121c0 -86 -69 -138 -191 -138c-84 0 -141 26 -186 69l26 25c37 -38 88 -61 159 -61c102 0 156 35 156 105c0 61 -45 82 -104 88
l-80 8c-89 8 -136 47 -136 122c0 80 64 132 168 132z" />
    <glyph glyph-name="t" unicode="t" horiz-adv-x="318" 
d="M149 631v-155h112v-29h-112v-341c0 -45 20 -73 67 -73h45v-33h-51c-62 0 -97 42 -97 106v341h-69v29h69v155h36z" />
    <glyph glyph-name="u" unicode="u" horiz-adv-x="553" 
d="M453 476v-476h-36v71c-32 -52 -81 -77 -149 -77c-55 0 -96 15 -127 45c-32 30 -47 75 -47 134v303h36v-295c0 -98 46 -154 142 -154c95 0 145 57 145 153v296h36z" />
    <glyph glyph-name="v" unicode="v" horiz-adv-x="416" 
d="M401 476l-174 -476h-38l-174 476h39l154 -433l154 433h39z" />
    <glyph glyph-name="w" unicode="w" horiz-adv-x="713" 
d="M174 0l-159 476h39l140 -433l144 433h37l144 -433l140 433h39l-159 -476h-38l-144 432l-145 -432h-38z" />
    <glyph glyph-name="x" unicode="x" horiz-adv-x="443" 
d="M43 0l159 242l-152 234h44l128 -205l128 205h43l-152 -234l159 -242h-44l-134 213l-135 -213h-44z" />
    <glyph glyph-name="y" unicode="y" horiz-adv-x="416" 
d="M401 476l-231 -628c-8 -23 -19 -42 -33 -55c-20 -20 -49 -29 -84 -29h-22v33h17c57 0 76 23 93 68l50 135l-176 476h39l155 -431l153 431h39z" />
    <glyph glyph-name="z" unicode="z" horiz-adv-x="445" 
d="M55 0v33l294 410h-278v33h319v-32l-294 -412h294v-32h-335z" />
    <glyph glyph-name="braceleft" unicode="{" horiz-adv-x="302" 
d="M245 786v-33h-6c-37 0 -49 -2 -60 -12c-11 -11 -14 -28 -14 -65v-227c0 -45 -13 -72 -59 -93c46 -21 59 -48 59 -93v-227c0 -37 3 -54 14 -65c11 -10 23 -12 60 -12h6v-33h-6c-46 0 -68 5 -87 23c-17 17 -23 36 -23 86v227c0 28 -6 47 -18 59c-11 11 -23 19 -41 19h-13
v32h13c18 0 30 8 41 19c12 12 18 31 18 59v227c0 50 6 69 23 86c19 18 41 23 87 23h6z" />
    <glyph glyph-name="bar" unicode="|" horiz-adv-x="304" 
d="M169 786v-860h-34v860h34z" />
    <glyph glyph-name="braceright" unicode="}" horiz-adv-x="302" 
d="M57 786h6c46 0 68 -5 87 -23c17 -17 22 -36 22 -86v-227c0 -28 6 -47 18 -59c11 -11 24 -19 42 -19h13v-32h-13c-18 0 -31 -8 -42 -19c-12 -12 -18 -31 -18 -59v-227c0 -50 -5 -69 -22 -86c-19 -18 -41 -23 -87 -23h-6v32h6c37 0 49 3 59 13c11 11 14 28 14 65v227
c0 45 14 72 60 93c-46 21 -60 48 -60 93v227c0 37 -3 54 -14 65c-10 10 -22 13 -59 13h-6v32z" />
    <glyph glyph-name="asciitilde" unicode="~" horiz-adv-x="509" 
d="M174 299c33 0 65 -14 91 -26c31 -14 49 -25 72 -25c26 0 43 6 86 42l23 -22c-53 -48 -77 -53 -111 -53c-31 0 -54 12 -92 29c-25 11 -46 22 -71 22s-43 -6 -86 -42l-23 22c52 47 77 53 111 53z" />
    <glyph glyph-name="uni00A0" unicode="&#xa0;" horiz-adv-x="259" 
 />
    <glyph glyph-name="exclamdown" unicode="&#xa1;" horiz-adv-x="295" 
d="M150 290l3 -526h-39l2 526h34zM161 476v-55h-54v55h54z" />
    <glyph glyph-name="cent" unicode="&#xa2;" horiz-adv-x="487" 
d="M280 712v-102c61 -1 104 -22 147 -75l-27 -22c-36 44 -70 63 -120 65v-423c50 1 84 20 120 64l27 -22c-43 -53 -86 -73 -147 -75v-122h-32v124c-120 11 -177 109 -177 243c0 132 57 230 177 242v103h32zM248 156v420c-39 -4 -69 -22 -94 -50c-35 -41 -47 -94 -47 -159
c0 -67 12 -120 47 -161c25 -28 55 -45 94 -50z" />
    <glyph glyph-name="sterling" unicode="&#xa3;" horiz-adv-x="528" 
d="M321 718c62 0 112 -20 151 -59l-27 -28c-31 31 -66 52 -124 52c-109 0 -166 -69 -166 -188v-120h166v-29h-166v-311h317v-35h-355v346h-68v29h68v131c0 125 76 212 204 212z" />
    <glyph glyph-name="currency" unicode="&#xa4;" horiz-adv-x="652" 
d="M541 495l23 -24l-75 -75c31 -37 51 -86 51 -139s-20 -102 -52 -140l76 -75l-23 -23l-76 75c-38 -32 -86 -51 -139 -51s-101 19 -139 51l-75 -75l-24 23l76 75c-33 38 -52 87 -52 140s19 102 51 139l-75 75l24 24l75 -75c38 31 86 51 139 51s102 -20 139 -51zM326 439
c-98 0 -178 -81 -178 -182s80 -181 178 -181s178 80 178 181s-80 182 -178 182z" />
    <glyph glyph-name="yen" unicode="&#xa5;" horiz-adv-x="491" 
d="M227 0v208h-155v28h155v59l-29 56h-126v28h110l-171 333h41l195 -377l193 377h40l-172 -333h111v-28h-127l-27 -56v-59h154v-28h-154v-208h-38z" />
    <glyph glyph-name="brokenbar" unicode="&#xa6;" horiz-adv-x="304" 
d="M169 786v-351h-34v351h34zM169 276v-351h-34v351h34z" />
    <glyph glyph-name="section" unicode="&#xa7;" horiz-adv-x="569" 
d="M286 718c89 0 167 -43 172 -146h-37c-7 79 -55 113 -135 113c-84 0 -137 -41 -137 -122c0 -62 36 -101 103 -119l62 -17c101 -28 153 -95 153 -184c0 -88 -60 -152 -131 -171c75 -20 122 -68 122 -150c0 -99 -69 -159 -175 -159c-92 0 -168 44 -175 147h37
c7 -77 57 -114 138 -114c84 0 138 43 138 124c0 60 -35 104 -104 122l-62 16c-102 27 -153 95 -153 185c0 88 59 152 130 171c-74 22 -120 65 -120 148c0 100 72 156 174 156zM284 392c-41 0 -77 -16 -104 -43c-28 -29 -41 -64 -41 -106c0 -43 15 -80 41 -106
c27 -28 63 -43 104 -43c42 0 78 15 104 43c26 27 41 62 41 106c0 41 -12 77 -41 106c-27 27 -63 43 -104 43z" />
    <glyph glyph-name="dieresis" unicode="&#xa8;" 
d="M381 681v-83h-41v83h41zM180 681v-83h-41v83h41z" />
    <glyph glyph-name="copyright" unicode="&#xa9;" horiz-adv-x="892" 
d="M446 -6c-200 0 -362 162 -362 362s162 362 362 362s362 -162 362 -362s-162 -362 -362 -362zM448 149c-118 0 -169 92 -169 206c0 115 51 207 169 207c56 0 93 -17 130 -59l-24 -21c-33 36 -61 50 -106 50c-100 0 -137 -78 -137 -177c0 -101 41 -176 137 -176
c45 0 73 14 106 50l24 -21c-36 -41 -74 -59 -130 -59zM446 22c183 0 332 149 332 334s-149 334 -332 334s-332 -149 -332 -334s149 -334 332 -334z" />
    <glyph glyph-name="ordfeminine" unicode="&#xaa;" horiz-adv-x="452" 
d="M202 317c-58 0 -90 9 -116 36c-18 18 -26 45 -26 73c0 73 52 112 135 112h134v48c0 66 -33 102 -118 102c-58 0 -88 -14 -114 -53l-24 18c32 45 72 63 138 63c102 0 149 -45 149 -126v-268h-31v46c-27 -36 -68 -51 -127 -51zM202 345c37 0 75 3 104 32c15 15 23 41 23 79
v56h-131c-71 0 -108 -28 -108 -85c0 -56 36 -82 112 -82z" />
    <glyph glyph-name="guillemotleft" unicode="&#xab;" horiz-adv-x="507" 
d="M422 443v-47l-139 -139l139 -139v-48l-186 187zM229 443v-47l-139 -139l139 -139v-48l-186 187z" />
    <glyph glyph-name="logicalnot" unicode="&#xac;" horiz-adv-x="509" 
d="M455 273v-164h-33v131h-368v33h401z" />
    <glyph glyph-name="uni00AD" unicode="&#xad;" horiz-adv-x="426" 
d="M340 273v-33h-254v33h254z" />
    <glyph glyph-name="registered" unicode="&#xae;" horiz-adv-x="892" 
d="M446 -6c-200 0 -362 162 -362 362s162 362 362 362s362 -162 362 -362s-162 -362 -362 -362zM446 22c183 0 332 149 332 334s-149 334 -332 334s-332 -149 -332 -334s149 -334 332 -334zM317 153v404h174c73 0 115 -37 115 -110c0 -69 -39 -100 -97 -106l98 -188h-32
l-96 185h-133v-185h-29zM346 364h140c58 0 92 25 92 83c0 59 -34 84 -92 84h-140v-167z" />
    <glyph glyph-name="macron" unicode="&#xaf;" 
d="M394 646v-34h-268v34h268z" />
    <glyph glyph-name="degree" unicode="&#xb0;" horiz-adv-x="450" 
d="M225 717c84 0 152 -68 152 -152s-68 -152 -152 -152s-152 68 -152 152s68 152 152 152zM224 686c-66 0 -118 -53 -118 -121s52 -121 119 -121c66 0 118 53 118 121c0 67 -52 121 -119 121z" />
    <glyph glyph-name="plusminus" unicode="&#xb1;" horiz-adv-x="509" 
d="M271 485v-184h184v-33h-184v-185h-33v185h-184v33h184v184h33zM455 33v-33h-401v33h401z" />
    <glyph glyph-name="twosuperior" unicode="&#xb2;" horiz-adv-x="207" 
d="M29 434v25l108 136c14 18 18 33 18 51c0 26 -17 49 -50 49c-28 0 -47 -18 -50 -51h-26c4 45 34 75 76 75c47 0 76 -34 76 -73c0 -23 -7 -42 -26 -65l-97 -122h114v-25h-143z" />
    <glyph glyph-name="threesuperior" unicode="&#xb3;" horiz-adv-x="208" 
d="M98 431c-41 0 -76 27 -81 71h26c3 -27 27 -46 55 -46c32 0 57 21 57 57s-29 56 -58 56h-9v23h9c27 0 51 19 51 51c0 34 -21 51 -50 51c-27 0 -45 -18 -50 -44h-26c7 42 33 69 76 69c42 0 76 -28 76 -75c0 -30 -15 -52 -40 -63c28 -11 47 -37 47 -70
c0 -47 -37 -80 -83 -80z" />
    <glyph glyph-name="acute" unicode="&#xb4;" 
d="M393 730l-108 -142h-41l101 142h48z" />
    <glyph glyph-name="mu" unicode="&#xb5;" horiz-adv-x="559" 
d="M100 -236v712h36v-296c0 -97 46 -154 141 -154s146 58 146 154v296h36v-476h-36v71c-33 -52 -81 -77 -149 -77c-63 0 -110 21 -138 61v-291h-36z" />
    <glyph glyph-name="paragraph" unicode="&#xb6;" horiz-adv-x="561" 
d="M447 712v-946h-36v911h-128v-911h-36v570c-134 0 -201 98 -201 188c0 92 70 188 207 188h194z" />
    <glyph glyph-name="periodcentered" unicode="&#xb7;" horiz-adv-x="257" 
d="M159 287v-61h-61v61h61z" />
    <glyph glyph-name="cedilla" unicode="&#xb8;" 
d="M181 -215l69 143h36l-63 -143h-42z" />
    <glyph glyph-name="onesuperior" unicode="&#xb9;" horiz-adv-x="218" 
d="M111 434v251l-58 -50v32l58 49h27v-282h-27z" />
    <glyph glyph-name="ordmasculine" unicode="&#xba;" horiz-adv-x="454" 
d="M227 716c44 0 78 -13 108 -43c42 -42 46 -101 46 -156c0 -56 -4 -115 -46 -157c-30 -30 -64 -42 -108 -42s-79 12 -108 42c-42 43 -46 101 -46 157c0 55 4 113 46 156c29 30 64 43 108 43zM227 688c-35 0 -64 -12 -88 -35c-35 -34 -36 -92 -36 -136c0 -45 2 -102 36 -137
c23 -23 53 -35 88 -35s64 12 87 35c35 35 37 92 37 137c0 44 -2 101 -37 136c-23 23 -52 35 -87 35z" />
    <glyph glyph-name="guillemotright" unicode="&#xbb;" horiz-adv-x="507" 
d="M278 443l186 -186l-186 -187v48l139 139l-139 139v47zM85 443l186 -186l-186 -187v48l139 139l-139 139v47z" />
    <glyph glyph-name="onequarter" unicode="&#xbc;" horiz-adv-x="784" 
d="M214 0l331 712h34l-332 -712h-33zM678 0v70h-170v29l157 328h32l-157 -328h138v129h31v-129h50v-29h-50v-70h-31zM161 285v391l-80 -70v38l80 68h30v-427h-30z" />
    <glyph glyph-name="onehalf" unicode="&#xbd;" horiz-adv-x="798" 
d="M214 0l331 712h34l-332 -712h-33zM528 0v29l171 218c22 28 30 46 30 75c0 48 -33 80 -85 80c-48 0 -82 -27 -85 -79h-30c3 64 46 108 115 108c70 0 115 -45 115 -109c0 -36 -11 -58 -37 -92l-158 -201h189v-29h-225zM161 285v391l-80 -70v38l80 68h30v-427h-30z" />
    <glyph glyph-name="threequarters" unicode="&#xbe;" horiz-adv-x="782" 
d="M212 0l331 712h34l-332 -712h-33zM676 0v70h-170v29l157 328h32l-157 -328h138v129h31v-129h50v-29h-50v-70h-31zM147 281c-61 0 -115 37 -122 104h31c6 -49 48 -75 91 -75c52 0 92 34 92 90c0 55 -40 92 -95 92h-13v28h12c51 0 87 33 87 84c0 54 -38 83 -84 83
c-45 0 -76 -29 -83 -73h-31c8 62 54 102 114 102c66 0 115 -42 115 -112c0 -47 -25 -81 -65 -97c45 -17 73 -55 73 -107c0 -75 -53 -119 -122 -119z" />
    <glyph glyph-name="questiondown" unicode="&#xbf;" horiz-adv-x="479" 
d="M235 291v-48c0 -36 -7 -56 -27 -87l-86 -129c-23 -35 -35 -57 -35 -97c0 -80 59 -139 137 -139c83 0 138 65 138 139h36c0 -91 -69 -172 -174 -172c-100 0 -173 77 -173 172c0 44 15 76 42 116l88 132c12 17 18 42 18 63v50h36zM244 476v-54h-54v54h54z" />
    <glyph glyph-name="Agrave" unicode="&#xc0;" horiz-adv-x="590" 
d="M312 712l262 -712h-39l-67 183h-346l-66 -183h-40l261 712h35zM295 661l-161 -443h322zM220 920l101 -142h-41l-107 142h47z" />
    <glyph glyph-name="Aacute" unicode="&#xc1;" horiz-adv-x="590" 
d="M312 712l262 -712h-39l-67 183h-346l-66 -183h-40l261 712h35zM295 661l-161 -443h322zM418 920l-107 -142h-41l101 142h47z" />
    <glyph glyph-name="Acircumflex" unicode="&#xc2;" horiz-adv-x="590" 
d="M312 712l262 -712h-39l-67 183h-346l-66 -183h-40l261 712h35zM295 661l-161 -443h322zM311 920l122 -142h-42l-97 112l-97 -112h-42l122 142h34z" />
    <glyph glyph-name="Atilde" unicode="&#xc3;" horiz-adv-x="590" 
d="M312 712l262 -712h-39l-67 183h-346l-66 -183h-40l261 712h35zM295 661l-161 -443h322zM234 873c24 0 38 -6 66 -24c25 -16 37 -21 54 -21c16 0 32 5 63 37l22 -21c-43 -44 -65 -48 -86 -48c-22 0 -35 4 -66 24c-24 15 -37 21 -54 21s-32 -5 -64 -37l-21 21
c43 43 64 48 86 48z" />
    <glyph glyph-name="Adieresis" unicode="&#xc4;" horiz-adv-x="590" 
d="M312 712l262 -712h-39l-67 183h-346l-66 -183h-40l261 712h35zM295 661l-161 -443h322zM415 869v-80h-41v80h41zM214 869v-80h-41v80h41z" />
    <glyph glyph-name="Aring" unicode="&#xc5;" horiz-adv-x="590" 
d="M312 712l262 -712h-39l-67 183h-346l-66 -183h-40l261 712h35zM295 661l-161 -443h322zM294 955c59 0 106 -47 106 -106c0 -58 -47 -106 -106 -106s-106 48 -106 106c0 59 47 106 106 106zM294 925c-42 0 -75 -34 -75 -76s33 -75 75 -75s75 33 75 75s-33 76 -75 76z" />
    <glyph glyph-name="AE" unicode="&#xc6;" horiz-adv-x="896" 
d="M840 712v-35h-387v-300h330v-35h-330v-307h387v-35h-425v176h-265l-93 -176h-41l380 712h444zM415 677l-249 -466h249v466z" />
    <glyph glyph-name="Ccedilla" unicode="&#xc7;" horiz-adv-x="640" 
d="M324 718c127 0 215 -81 238 -205h-38c-23 107 -99 170 -200 170c-58 0 -105 -19 -143 -56c-52 -51 -59 -119 -59 -271s7 -220 59 -271c38 -37 85 -56 143 -56c101 0 177 63 200 170h38c-23 -124 -111 -205 -238 -205c-71 0 -126 24 -170 67c-63 63 -70 127 -70 295
s7 232 70 295c44 43 99 67 170 67zM346 -72l-64 -143h-41l69 143h36z" />
    <glyph glyph-name="Egrave" unicode="&#xc8;" horiz-adv-x="595" 
d="M539 712v-35h-387v-300h330v-35h-330v-307h387v-35h-425v712h425zM241 920l101 -142h-41l-107 142h47z" />
    <glyph glyph-name="Eacute" unicode="&#xc9;" horiz-adv-x="595" 
d="M539 712v-35h-387v-300h330v-35h-330v-307h387v-35h-425v712h425zM439 920l-107 -142h-41l101 142h47z" />
    <glyph glyph-name="Ecircumflex" unicode="&#xca;" horiz-adv-x="595" 
d="M539 712v-35h-387v-300h330v-35h-330v-307h387v-35h-425v712h425zM332 920l122 -142h-42l-97 112l-97 -112h-42l122 142h34z" />
    <glyph glyph-name="Edieresis" unicode="&#xcb;" horiz-adv-x="595" 
d="M539 712v-35h-387v-300h330v-35h-330v-307h387v-35h-425v712h425zM436 869v-80h-41v80h41zM235 869v-80h-41v80h41z" />
    <glyph glyph-name="Igrave" unicode="&#xcc;" horiz-adv-x="266" 
d="M152 712v-712h-38v712h38zM58 920l101 -142h-41l-107 142h47z" />
    <glyph glyph-name="Iacute" unicode="&#xcd;" horiz-adv-x="266" 
d="M152 712v-712h-38v712h38zM256 920l-107 -142h-41l101 142h47z" />
    <glyph glyph-name="Icircumflex" unicode="&#xce;" horiz-adv-x="266" 
d="M152 712v-712h-38v712h38zM149 920l122 -142h-42l-97 112l-97 -112h-42l122 142h34z" />
    <glyph glyph-name="Idieresis" unicode="&#xcf;" horiz-adv-x="266" 
d="M152 712v-712h-38v712h38zM253 869v-80h-41v80h41zM52 869v-80h-41v80h41z" />
    <glyph glyph-name="Eth" unicode="&#xd0;" horiz-adv-x="686" 
d="M122 712h231c69 0 131 -17 178 -64c63 -63 71 -156 71 -292s-8 -229 -71 -292c-47 -47 -109 -64 -178 -64h-231v344h-81v31h81v337zM344 677h-184v-302h190v-31h-190v-309h184c58 0 117 11 161 56c52 53 59 149 59 265s-7 212 -59 265c-44 45 -103 56 -161 56z" />
    <glyph glyph-name="Ntilde" unicode="&#xd1;" horiz-adv-x="741" 
d="M627 712v-712h-38l-437 647v-647h-38v712h38l437 -647v647h38zM310 873c24 0 38 -6 66 -24c25 -16 37 -21 54 -21c16 0 32 5 63 37l22 -21c-43 -44 -65 -48 -86 -48c-22 0 -35 4 -66 24c-24 15 -37 21 -54 21s-32 -5 -64 -37l-21 21c43 43 64 48 86 48z" />
    <glyph glyph-name="Ograve" unicode="&#xd2;" horiz-adv-x="647" 
d="M324 718c71 0 126 -24 169 -67c63 -63 70 -127 70 -295s-7 -232 -70 -295c-43 -43 -98 -67 -169 -67s-126 24 -170 67c-63 63 -70 127 -70 295s7 232 70 295c44 43 99 67 170 67zM324 683c-58 0 -105 -19 -143 -56c-52 -51 -59 -119 -59 -271s7 -220 59 -271
c38 -37 85 -56 143 -56s104 19 142 56c52 52 59 119 59 271s-7 219 -59 271c-38 37 -84 56 -142 56zM250 920l101 -142h-41l-107 142h47z" />
    <glyph glyph-name="Oacute" unicode="&#xd3;" horiz-adv-x="647" 
d="M324 718c71 0 126 -24 169 -67c63 -63 70 -127 70 -295s-7 -232 -70 -295c-43 -43 -98 -67 -169 -67s-126 24 -170 67c-63 63 -70 127 -70 295s7 232 70 295c44 43 99 67 170 67zM324 683c-58 0 -105 -19 -143 -56c-52 -51 -59 -119 -59 -271s7 -220 59 -271
c38 -37 85 -56 143 -56s104 19 142 56c52 52 59 119 59 271s-7 219 -59 271c-38 37 -84 56 -142 56zM448 920l-107 -142h-41l101 142h47z" />
    <glyph glyph-name="Ocircumflex" unicode="&#xd4;" horiz-adv-x="647" 
d="M324 718c71 0 126 -24 169 -67c63 -63 70 -127 70 -295s-7 -232 -70 -295c-43 -43 -98 -67 -169 -67s-126 24 -170 67c-63 63 -70 127 -70 295s7 232 70 295c44 43 99 67 170 67zM324 683c-58 0 -105 -19 -143 -56c-52 -51 -59 -119 -59 -271s7 -220 59 -271
c38 -37 85 -56 143 -56s104 19 142 56c52 52 59 119 59 271s-7 219 -59 271c-38 37 -84 56 -142 56zM341 920l122 -142h-42l-97 112l-97 -112h-42l122 142h34z" />
    <glyph glyph-name="Otilde" unicode="&#xd5;" horiz-adv-x="647" 
d="M324 718c71 0 126 -24 169 -67c63 -63 70 -127 70 -295s-7 -232 -70 -295c-43 -43 -98 -67 -169 -67s-126 24 -170 67c-63 63 -70 127 -70 295s7 232 70 295c44 43 99 67 170 67zM324 683c-58 0 -105 -19 -143 -56c-52 -51 -59 -119 -59 -271s7 -220 59 -271
c38 -37 85 -56 143 -56s104 19 142 56c52 52 59 119 59 271s-7 219 -59 271c-38 37 -84 56 -142 56zM264 873c24 0 38 -6 66 -24c25 -16 37 -21 54 -21c16 0 32 5 63 37l22 -21c-43 -44 -65 -48 -86 -48c-22 0 -35 4 -66 24c-24 15 -37 21 -54 21s-32 -5 -64 -37l-21 21
c43 43 64 48 86 48z" />
    <glyph glyph-name="Odieresis" unicode="&#xd6;" horiz-adv-x="647" 
d="M324 718c71 0 126 -24 169 -67c63 -63 70 -127 70 -295s-7 -232 -70 -295c-43 -43 -98 -67 -169 -67s-126 24 -170 67c-63 63 -70 127 -70 295s7 232 70 295c44 43 99 67 170 67zM324 683c-58 0 -105 -19 -143 -56c-52 -51 -59 -119 -59 -271s7 -220 59 -271
c38 -37 85 -56 143 -56s104 19 142 56c52 52 59 119 59 271s-7 219 -59 271c-38 37 -84 56 -142 56zM445 869v-80h-41v80h41zM244 869v-80h-41v80h41z" />
    <glyph glyph-name="multiply" unicode="&#xd7;" horiz-adv-x="509" 
d="M403 428l23 -23l-148 -148l148 -149l-23 -23l-148 149l-149 -149l-23 23l148 149l-148 148l23 23l149 -148z" />
    <glyph glyph-name="Oslash" unicode="&#xd8;" horiz-adv-x="647" 
d="M113 -44l47 99l-6 6c-63 63 -70 127 -70 295s7 232 70 295c44 43 99 67 170 67c54 0 99 -14 136 -39l37 77h37l-47 -99l6 -6c63 -63 70 -127 70 -295s-7 -232 -70 -295c-43 -43 -98 -67 -169 -67c-54 0 -98 14 -136 39l-37 -77h-38zM177 89l267 557
c-33 24 -73 37 -120 37c-58 0 -105 -19 -143 -56c-52 -51 -59 -119 -59 -271c0 -148 8 -215 55 -267zM324 29c58 0 104 19 142 56c52 52 59 119 59 271c0 148 -7 215 -55 267l-266 -557c33 -25 73 -37 120 -37z" />
    <glyph glyph-name="Ugrave" unicode="&#xd9;" horiz-adv-x="689" 
d="M585 712v-485c0 -135 -98 -233 -241 -233s-240 98 -240 233v485h38v-478c0 -123 79 -205 202 -205c122 0 203 82 203 205v478h38zM271 920l101 -142h-41l-107 142h47z" />
    <glyph glyph-name="Uacute" unicode="&#xda;" horiz-adv-x="689" 
d="M585 712v-485c0 -135 -98 -233 -241 -233s-240 98 -240 233v485h38v-478c0 -123 79 -205 202 -205c122 0 203 82 203 205v478h38zM469 920l-107 -142h-41l101 142h47z" />
    <glyph glyph-name="Ucircumflex" unicode="&#xdb;" horiz-adv-x="689" 
d="M585 712v-485c0 -135 -98 -233 -241 -233s-240 98 -240 233v485h38v-478c0 -123 79 -205 202 -205c122 0 203 82 203 205v478h38zM362 920l122 -142h-42l-97 112l-97 -112h-42l122 142h34z" />
    <glyph glyph-name="Udieresis" unicode="&#xdc;" horiz-adv-x="689" 
d="M585 712v-485c0 -135 -98 -233 -241 -233s-240 98 -240 233v485h38v-478c0 -123 79 -205 202 -205c122 0 203 82 203 205v478h38zM466 869v-80h-41v80h41zM265 869v-80h-41v80h41z" />
    <glyph glyph-name="Yacute" unicode="&#xdd;" horiz-adv-x="491" 
d="M227 0v296l-216 416h41l195 -377l193 377h40l-215 -416v-296h-38zM368 920l-107 -142h-41l101 142h47z" />
    <glyph glyph-name="Thorn" unicode="&#xde;" horiz-adv-x="646" 
d="M152 712v-151h221c118 0 211 -69 211 -202s-93 -202 -211 -202h-221v-157h-38v712h38zM366 526h-214v-334h214c106 0 180 51 180 167s-74 167 -180 167z" />
    <glyph glyph-name="germandbls" unicode="&#xdf;" horiz-adv-x="542" 
d="M285 718c103 0 178 -53 178 -158c0 -52 -23 -96 -71 -124c56 -24 71 -60 71 -121v-185c0 -43 -15 -74 -38 -97c-25 -23 -51 -33 -91 -33h-53v33h46c33 0 52 7 71 24c20 18 29 42 29 78v181c0 38 -6 58 -24 76c-16 16 -39 25 -70 25h-52v33h41c65 0 105 46 105 110
c0 36 -12 68 -38 92c-24 23 -60 33 -106 33c-103 0 -147 -70 -147 -165v-520h-36v525c0 113 64 193 185 193z" />
    <glyph glyph-name="agrave" unicode="&#xe0;" horiz-adv-x="517" 
d="M231 -6c-71 0 -109 11 -141 43c-22 22 -32 56 -32 90c0 89 63 136 165 136h163v60c0 82 -39 126 -143 126c-72 0 -108 -18 -139 -64l-28 22c37 54 85 75 166 75c126 0 180 -54 180 -154v-328h-36v57c-34 -45 -82 -63 -155 -63zM231 26c45 0 90 5 126 40
c19 19 29 50 29 98v68h-159c-88 0 -133 -34 -133 -104c0 -69 43 -102 137 -102zM168 730l101 -142h-41l-108 142h48z" />
    <glyph glyph-name="aacute" unicode="&#xe1;" horiz-adv-x="517" 
d="M231 -6c-71 0 -109 11 -141 43c-22 22 -32 56 -32 90c0 89 63 136 165 136h163v60c0 82 -39 126 -143 126c-72 0 -108 -18 -139 -64l-28 22c37 54 85 75 166 75c126 0 180 -54 180 -154v-328h-36v57c-34 -45 -82 -63 -155 -63zM231 26c45 0 90 5 126 40
c19 19 29 50 29 98v68h-159c-88 0 -133 -34 -133 -104c0 -69 43 -102 137 -102zM377 730l-108 -142h-41l101 142h48z" />
    <glyph glyph-name="acircumflex" unicode="&#xe2;" horiz-adv-x="517" 
d="M231 -6c-71 0 -109 11 -141 43c-22 22 -32 56 -32 90c0 89 63 136 165 136h163v60c0 82 -39 126 -143 126c-72 0 -108 -18 -139 -64l-28 22c37 54 85 75 166 75c126 0 180 -54 180 -154v-328h-36v57c-34 -45 -82 -63 -155 -63zM231 26c45 0 90 5 126 40
c19 19 29 50 29 98v68h-159c-88 0 -133 -34 -133 -104c0 -69 43 -102 137 -102zM261 730l122 -142h-42l-97 112l-97 -112h-42l122 142h34z" />
    <glyph glyph-name="atilde" unicode="&#xe3;" horiz-adv-x="517" 
d="M231 -6c-71 0 -109 11 -141 43c-22 22 -32 56 -32 90c0 89 63 136 165 136h163v60c0 82 -39 126 -143 126c-72 0 -108 -18 -139 -64l-28 22c37 54 85 75 166 75c126 0 180 -54 180 -154v-328h-36v57c-34 -45 -82 -63 -155 -63zM231 26c45 0 90 5 126 40
c19 19 29 50 29 98v68h-159c-88 0 -133 -34 -133 -104c0 -69 43 -102 137 -102zM184 683c24 0 38 -6 66 -24c25 -16 37 -21 54 -21c16 0 32 5 63 37l22 -21c-43 -44 -64 -48 -86 -48s-35 4 -66 24c-24 15 -37 21 -54 21s-32 -5 -63 -37l-22 21c43 44 64 48 86 48z" />
    <glyph glyph-name="adieresis" unicode="&#xe4;" horiz-adv-x="517" 
d="M231 -6c-71 0 -109 11 -141 43c-22 22 -32 56 -32 90c0 89 63 136 165 136h163v60c0 82 -39 126 -143 126c-72 0 -108 -18 -139 -64l-28 22c37 54 85 75 166 75c126 0 180 -54 180 -154v-328h-36v57c-34 -45 -82 -63 -155 -63zM231 26c45 0 90 5 126 40
c19 19 29 50 29 98v68h-159c-88 0 -133 -34 -133 -104c0 -69 43 -102 137 -102zM365 681v-83h-41v83h41zM164 681v-83h-41v83h41z" />
    <glyph glyph-name="aring" unicode="&#xe5;" horiz-adv-x="517" 
d="M231 -6c-71 0 -109 11 -141 43c-22 22 -32 56 -32 90c0 89 63 136 165 136h163v60c0 82 -39 126 -143 126c-72 0 -108 -18 -139 -64l-28 22c37 54 85 75 166 75c126 0 180 -54 180 -154v-328h-36v57c-34 -45 -82 -63 -155 -63zM231 26c45 0 90 5 126 40
c19 19 29 50 29 98v68h-159c-88 0 -133 -34 -133 -104c0 -69 43 -102 137 -102zM244 776c59 0 106 -48 106 -107c0 -58 -47 -106 -106 -106s-106 48 -106 106c0 59 47 107 106 107zM243 745c-41 0 -75 -34 -75 -76c0 -41 34 -75 75 -75c42 0 76 34 76 75c0 42 -34 76 -76 76
z" />
    <glyph glyph-name="ae" unicode="&#xe6;" horiz-adv-x="830" 
d="M422 263h301c-5 62 -15 99 -39 129c-25 37 -64 58 -112 58c-47 0 -86 -22 -112 -58c-22 -31 -33 -65 -38 -129zM231 -6c-71 0 -109 11 -141 43c-22 22 -32 56 -32 90c0 89 63 136 165 136h163v60c0 82 -39 126 -143 126c-72 0 -108 -18 -139 -64l-28 22
c37 54 85 75 166 75c104 0 155 -36 171 -104c29 70 87 104 159 104c119 0 187 -89 187 -234v-16h-337c0 -133 57 -205 165 -205c57 0 95 19 137 63l28 -23c-48 -49 -91 -73 -168 -73c-81 0 -145 33 -173 108c-26 -77 -83 -108 -180 -108zM231 26c45 0 90 5 126 40
c19 19 29 50 29 98v68h-159c-88 0 -133 -34 -133 -104c0 -69 43 -102 137 -102z" />
    <glyph glyph-name="ccedilla" unicode="&#xe7;" horiz-adv-x="487" 
d="M273 482c66 0 109 -20 154 -75l-27 -22c-38 46 -73 64 -128 64c-50 0 -88 -17 -118 -51c-35 -41 -47 -94 -47 -160s12 -119 47 -160c30 -34 68 -51 118 -51c55 0 90 18 128 64l27 -22c-45 -55 -88 -75 -154 -75c-136 0 -202 101 -202 244s66 244 202 244zM181 -215
l69 143h36l-63 -143h-42z" />
    <glyph glyph-name="egrave" unicode="&#xe8;" horiz-adv-x="515" 
d="M257 482c119 0 187 -90 187 -234v-16h-337c0 -133 57 -205 165 -205c57 0 95 19 138 63l27 -23c-48 -49 -91 -73 -168 -73c-134 0 -198 91 -198 243c0 153 67 245 186 245zM257 449c-47 0 -86 -21 -112 -57c-23 -31 -34 -67 -38 -129h300c-4 62 -15 98 -38 129
c-26 36 -65 57 -112 57zM184 730l101 -142h-41l-108 142h48z" />
    <glyph glyph-name="eacute" unicode="&#xe9;" horiz-adv-x="515" 
d="M257 482c119 0 187 -90 187 -234v-16h-337c0 -133 57 -205 165 -205c57 0 95 19 138 63l27 -23c-48 -49 -91 -73 -168 -73c-134 0 -198 91 -198 243c0 153 67 245 186 245zM257 449c-47 0 -86 -21 -112 -57c-23 -31 -34 -67 -38 -129h300c-4 62 -15 98 -38 129
c-26 36 -65 57 -112 57zM393 730l-108 -142h-41l101 142h48z" />
    <glyph glyph-name="ecircumflex" unicode="&#xea;" horiz-adv-x="515" 
d="M257 482c119 0 187 -90 187 -234v-16h-337c0 -133 57 -205 165 -205c57 0 95 19 138 63l27 -23c-48 -49 -91 -73 -168 -73c-134 0 -198 91 -198 243c0 153 67 245 186 245zM257 449c-47 0 -86 -21 -112 -57c-23 -31 -34 -67 -38 -129h300c-4 62 -15 98 -38 129
c-26 36 -65 57 -112 57zM277 730l122 -142h-42l-97 112l-97 -112h-42l122 142h34z" />
    <glyph glyph-name="edieresis" unicode="&#xeb;" horiz-adv-x="515" 
d="M257 482c119 0 187 -90 187 -234v-16h-337c0 -133 57 -205 165 -205c57 0 95 19 138 63l27 -23c-48 -49 -91 -73 -168 -73c-134 0 -198 91 -198 243c0 153 67 245 186 245zM257 449c-47 0 -86 -21 -112 -57c-23 -31 -34 -67 -38 -129h300c-4 62 -15 98 -38 129
c-26 36 -65 57 -112 57zM381 681v-83h-41v83h41zM180 681v-83h-41v83h41z" />
    <glyph glyph-name="igrave" unicode="&#xec;" horiz-adv-x="239" 
d="M42 730l101 -142h-41l-108 142h48zM138 476v-476h-36v476h36z" />
    <glyph glyph-name="iacute" unicode="&#xed;" horiz-adv-x="239" 
d="M251 730l-108 -142h-41l101 142h48zM138 476v-476h-36v476h36z" />
    <glyph glyph-name="icircumflex" unicode="&#xee;" horiz-adv-x="239" 
d="M135 730l122 -142h-42l-97 112l-97 -112h-42l122 142h34zM138 476v-476h-36v476h36z" />
    <glyph glyph-name="idieresis" unicode="&#xef;" horiz-adv-x="239" 
d="M239 681v-83h-41v83h41zM38 681v-83h-41v83h41zM138 476v-476h-36v476h36z" />
    <glyph glyph-name="eth" unicode="&#xf0;" 
d="M236 712l57 -97h78v-29h-62l78 -129c56 -93 61 -130 61 -220c0 -67 -5 -140 -56 -191c-36 -36 -79 -52 -132 -52c-54 0 -96 16 -133 52c-51 51 -56 124 -56 191c0 68 4 142 56 193c37 36 79 52 133 52c34 0 65 -8 90 -25l-78 129h-117v29h100l-57 97h38zM260 449
c-43 0 -79 -14 -108 -42c-43 -43 -45 -114 -45 -170c0 -55 2 -125 45 -168c29 -29 65 -42 108 -42c42 0 78 13 107 42c43 43 45 113 45 168c0 56 -2 127 -45 170c-29 28 -65 42 -107 42z" />
    <glyph glyph-name="ntilde" unicode="&#xf1;" horiz-adv-x="553" 
d="M285 482c55 0 97 -16 127 -46c31 -30 47 -74 47 -134v-302h-36v295c0 98 -46 154 -141 154s-146 -58 -146 -153v-296h-36v476h36v-72c32 53 81 78 149 78zM221 683c24 0 38 -6 66 -24c25 -16 37 -21 54 -21c16 0 32 5 63 37l22 -21c-43 -44 -64 -48 -86 -48s-35 4 -66 24
c-24 15 -37 21 -54 21s-32 -5 -63 -37l-22 21c43 44 64 48 86 48z" />
    <glyph glyph-name="ograve" unicode="&#xf2;" 
d="M259 -6c-53 0 -96 16 -132 52c-52 52 -56 124 -56 192s4 140 56 192c36 36 79 52 132 52c54 0 96 -16 132 -52c52 -52 57 -124 57 -192s-5 -140 -57 -192c-36 -36 -78 -52 -132 -52zM259 27c43 0 79 14 107 42c43 43 46 113 46 169s-3 126 -46 169c-28 28 -64 42 -107 42
c-42 0 -78 -14 -107 -42c-43 -43 -45 -113 -45 -169s2 -126 45 -169c29 -28 65 -42 107 -42zM184 730l101 -142h-41l-108 142h48z" />
    <glyph glyph-name="oacute" unicode="&#xf3;" 
d="M259 -6c-53 0 -96 16 -132 52c-52 52 -56 124 -56 192s4 140 56 192c36 36 79 52 132 52c54 0 96 -16 132 -52c52 -52 57 -124 57 -192s-5 -140 -57 -192c-36 -36 -78 -52 -132 -52zM259 27c43 0 79 14 107 42c43 43 46 113 46 169s-3 126 -46 169c-28 28 -64 42 -107 42
c-42 0 -78 -14 -107 -42c-43 -43 -45 -113 -45 -169s2 -126 45 -169c29 -28 65 -42 107 -42zM393 730l-108 -142h-41l101 142h48z" />
    <glyph glyph-name="ocircumflex" unicode="&#xf4;" 
d="M259 -6c-53 0 -96 16 -132 52c-52 52 -56 124 -56 192s4 140 56 192c36 36 79 52 132 52c54 0 96 -16 132 -52c52 -52 57 -124 57 -192s-5 -140 -57 -192c-36 -36 -78 -52 -132 -52zM259 27c43 0 79 14 107 42c43 43 46 113 46 169s-3 126 -46 169c-28 28 -64 42 -107 42
c-42 0 -78 -14 -107 -42c-43 -43 -45 -113 -45 -169s2 -126 45 -169c29 -28 65 -42 107 -42zM277 730l122 -142h-42l-97 112l-97 -112h-42l122 142h34z" />
    <glyph glyph-name="otilde" unicode="&#xf5;" 
d="M259 -6c-53 0 -96 16 -132 52c-52 52 -56 124 -56 192s4 140 56 192c36 36 79 52 132 52c54 0 96 -16 132 -52c52 -52 57 -124 57 -192s-5 -140 -57 -192c-36 -36 -78 -52 -132 -52zM259 27c43 0 79 14 107 42c43 43 46 113 46 169s-3 126 -46 169c-28 28 -64 42 -107 42
c-42 0 -78 -14 -107 -42c-43 -43 -45 -113 -45 -169s2 -126 45 -169c29 -28 65 -42 107 -42zM200 683c24 0 38 -6 66 -24c25 -16 37 -21 54 -21c16 0 32 5 63 37l22 -21c-43 -44 -64 -48 -86 -48s-35 4 -66 24c-24 15 -37 21 -54 21s-32 -5 -63 -37l-22 21
c43 44 64 48 86 48z" />
    <glyph glyph-name="odieresis" unicode="&#xf6;" 
d="M259 -6c-53 0 -96 16 -132 52c-52 52 -56 124 -56 192s4 140 56 192c36 36 79 52 132 52c54 0 96 -16 132 -52c52 -52 57 -124 57 -192s-5 -140 -57 -192c-36 -36 -78 -52 -132 -52zM259 27c43 0 79 14 107 42c43 43 46 113 46 169s-3 126 -46 169c-28 28 -64 42 -107 42
c-42 0 -78 -14 -107 -42c-43 -43 -45 -113 -45 -169s2 -126 45 -169c29 -28 65 -42 107 -42zM381 681v-83h-41v83h41zM180 681v-83h-41v83h41z" />
    <glyph glyph-name="divide" unicode="&#xf7;" horiz-adv-x="509" 
d="M455 273v-33h-401v33h401zM284 122v-60h-59v60h59zM284 451v-59h-59v59h59z" />
    <glyph glyph-name="oslash" unicode="&#xf8;" 
d="M445 519l-54 -89c52 -52 57 -125 57 -193c0 -67 -5 -140 -57 -191c-36 -36 -78 -52 -132 -52c-41 0 -77 10 -107 31l-41 -69h-36l54 88l-2 2c-52 51 -56 124 -56 191c0 68 4 141 56 193c36 36 79 52 132 52c43 0 78 -10 109 -32l41 69h36zM259 449
c-42 0 -78 -14 -107 -42c-43 -43 -45 -114 -45 -170c0 -52 2 -118 39 -161l204 345c-25 19 -56 28 -91 28zM372 400l-203 -346c26 -18 56 -27 90 -27c43 0 79 13 107 42c43 43 46 113 46 168c0 53 -3 120 -40 163z" />
    <glyph glyph-name="ugrave" unicode="&#xf9;" horiz-adv-x="553" 
d="M453 476v-476h-36v71c-32 -52 -81 -77 -149 -77c-55 0 -96 15 -127 45c-32 30 -47 75 -47 134v303h36v-295c0 -98 46 -154 142 -154c95 0 145 57 145 153v296h36zM199 730l101 -142h-41l-108 142h48z" />
    <glyph glyph-name="uacute" unicode="&#xfa;" horiz-adv-x="553" 
d="M453 476v-476h-36v71c-32 -52 -81 -77 -149 -77c-55 0 -96 15 -127 45c-32 30 -47 75 -47 134v303h36v-295c0 -98 46 -154 142 -154c95 0 145 57 145 153v296h36zM408 730l-108 -142h-41l101 142h48z" />
    <glyph glyph-name="ucircumflex" unicode="&#xfb;" horiz-adv-x="553" 
d="M453 476v-476h-36v71c-32 -52 -81 -77 -149 -77c-55 0 -96 15 -127 45c-32 30 -47 75 -47 134v303h36v-295c0 -98 46 -154 142 -154c95 0 145 57 145 153v296h36zM292 730l122 -142h-42l-97 112l-97 -112h-42l122 142h34z" />
    <glyph glyph-name="udieresis" unicode="&#xfc;" horiz-adv-x="553" 
d="M453 476v-476h-36v71c-32 -52 -81 -77 -149 -77c-55 0 -96 15 -127 45c-32 30 -47 75 -47 134v303h36v-295c0 -98 46 -154 142 -154c95 0 145 57 145 153v296h36zM396 681v-83h-41v83h41zM195 681v-83h-41v83h41z" />
    <glyph glyph-name="yacute" unicode="&#xfd;" horiz-adv-x="416" 
d="M401 476l-231 -628c-8 -23 -19 -42 -33 -55c-20 -20 -49 -29 -84 -29h-22v33h17c57 0 76 23 93 68l50 135l-176 476h39l155 -431l153 431h39zM341 730l-108 -142h-41l101 142h48z" />
    <glyph glyph-name="thorn" unicode="&#xfe;" horiz-adv-x="533" 
d="M100 -236v948h36v-317c33 65 89 87 149 87c53 0 92 -16 118 -42c45 -45 59 -112 59 -201c0 -90 -14 -157 -59 -203c-26 -26 -65 -42 -118 -42c-60 0 -116 22 -149 87v-317h-36zM281 27c125 0 145 109 145 212s-20 210 -145 210s-145 -107 -145 -210s20 -212 145 -212z
" />
    <glyph glyph-name="ydieresis" unicode="&#xff;" horiz-adv-x="416" 
d="M401 476l-231 -628c-8 -23 -19 -42 -33 -55c-20 -20 -49 -29 -84 -29h-22v33h17c57 0 76 23 93 68l50 135l-176 476h39l155 -431l153 431h39zM329 681v-83h-41v83h41zM128 681v-83h-41v83h41z" />
    <glyph glyph-name="dotlessi" unicode="&#x131;" horiz-adv-x="239" 
d="M138 476v-476h-36v476h36z" />
    <glyph glyph-name="IJ" unicode="&#x132;" horiz-adv-x="763" 
d="M152 712v-712h-38v712h38zM657 712v-506c0 -125 -77 -212 -205 -212c-62 0 -112 20 -151 59l27 28c31 -31 67 -52 124 -52c109 0 167 69 167 188v495h38z" />
    <glyph glyph-name="ij" unicode="&#x133;" horiz-adv-x="479" 
d="M138 476v-476h-36v476h36zM141 712v-77h-43v77h43zM377 476v-606c0 -66 -34 -106 -98 -106h-50v33h44c49 0 68 27 68 74v605h36zM380 712v-77h-43v77h43z" />
    <glyph glyph-name="Lslash" unicode="&#x141;" horiz-adv-x="576" 
d="M157 712v-335l171 108v-36l-171 -108v-306h389v-35h-427v317l-78 -50v37l78 49v359h38z" />
    <glyph glyph-name="lslash" unicode="&#x142;" horiz-adv-x="290" 
d="M145 712v-290l94 59v-34l-94 -60v-280c0 -47 18 -74 68 -74h44v-33h-50c-64 0 -98 40 -98 105v260l-68 -43v34l68 43v313h36z" />
    <glyph glyph-name="OE" unicode="&#x152;" horiz-adv-x="1007" 
d="M324 718c92 0 162 -42 202 -119v113h425v-35h-387v-300h330v-35h-330v-307h387v-35h-425v113c-40 -77 -111 -119 -202 -119c-71 0 -126 24 -170 67c-63 63 -70 127 -70 295s7 232 70 295c44 43 99 67 170 67zM324 683c-58 0 -105 -19 -143 -56c-52 -51 -59 -119 -59 -271
s7 -220 59 -271c38 -37 85 -56 143 -56c57 0 104 19 142 56c52 52 59 119 59 271s-7 219 -59 271c-38 37 -85 56 -142 56z" />
    <glyph glyph-name="oe" unicode="&#x153;" horiz-adv-x="856" 
d="M259 482c54 0 96 -16 132 -52c20 -20 33 -45 41 -69c27 75 84 121 165 121c120 0 188 -90 188 -234v-16h-337c0 -133 57 -205 165 -205c57 0 95 19 138 63l27 -23c-48 -49 -91 -73 -169 -73c-92 0 -150 45 -177 121c-8 -24 -21 -49 -41 -69c-36 -36 -78 -52 -132 -52
c-53 0 -96 16 -132 52c-52 52 -56 124 -56 192s4 140 56 192c36 36 79 52 132 52zM259 27c43 0 79 14 107 42c43 43 46 113 46 169s-3 126 -46 169c-28 28 -64 42 -107 42c-42 0 -78 -14 -107 -42c-43 -43 -45 -113 -45 -169s2 -126 45 -169c29 -28 65 -42 107 -42zM448 263
h300c-4 62 -15 98 -38 129c-26 36 -65 57 -112 57s-86 -21 -112 -57c-23 -31 -34 -67 -38 -129z" />
    <glyph glyph-name="Scaron" unicode="&#x160;" horiz-adv-x="586" 
d="M290 718c88 0 144 -24 204 -76l-26 -26c-46 43 -98 67 -179 67c-112 0 -182 -57 -182 -154c0 -45 14 -80 41 -102c26 -22 63 -35 106 -42l86 -14c61 -9 94 -21 127 -49c38 -31 58 -78 58 -135c0 -118 -90 -193 -238 -193c-104 0 -171 28 -235 92l28 28
c60 -62 120 -85 209 -85c121 0 198 57 198 157c0 46 -14 84 -44 108c-28 23 -57 33 -113 42l-86 14c-51 8 -87 21 -120 48c-34 28 -55 71 -55 130c0 116 86 190 221 190zM424 920l-122 -142h-33l-122 142h42l96 -112l97 112h42z" />
    <glyph glyph-name="scaron" unicode="&#x161;" horiz-adv-x="492" 
d="M242 482c69 0 122 -17 163 -50l-25 -26c-35 29 -81 43 -138 43c-84 0 -132 -35 -132 -99c0 -54 35 -82 103 -89l78 -8c78 -8 139 -32 139 -121c0 -86 -69 -138 -191 -138c-84 0 -141 26 -186 69l26 25c37 -38 88 -61 159 -61c102 0 156 35 156 105c0 61 -45 82 -104 88
l-80 8c-89 8 -136 47 -136 122c0 80 64 132 168 132zM383 730l-122 -142h-34l-122 142h42l97 -112l97 112h42z" />
    <glyph glyph-name="Ydieresis" unicode="&#x178;" horiz-adv-x="491" 
d="M227 0v296l-216 416h41l195 -377l193 377h40l-215 -416v-296h-38zM365 869v-80h-41v80h41zM164 869v-80h-41v80h41z" />
    <glyph glyph-name="Zcaron" unicode="&#x17d;" horiz-adv-x="567" 
d="M64 0v34l392 644h-380v34h420v-34l-391 -644h398v-34h-439zM415 920l-122 -142h-33l-122 142h42l96 -112l97 112h42z" />
    <glyph glyph-name="zcaron" unicode="&#x17e;" horiz-adv-x="445" 
d="M55 0v33l294 410h-278v33h319v-32l-294 -412h294v-32h-335zM365 730l-122 -142h-34l-122 142h42l97 -112l97 112h42z" />
    <glyph glyph-name="longs" unicode="&#x17f;" horiz-adv-x="239" 
d="M249 712v-33h-45c-47 0 -67 -28 -67 -73v-606h-36v606c0 64 35 106 97 106h51z" />
    <glyph glyph-name="florin" unicode="&#x192;" horiz-adv-x="388" 
d="M358 712v-33h-38c-54 0 -85 -31 -94 -85l-38 -218h112v-29h-117l-102 -577h-36l102 577h-69v29h74l38 217c13 73 59 119 130 119h38z" />
    <glyph glyph-name="uni02BB" unicode="&#x2bb;" horiz-adv-x="246" 
d="M149 764v-137h-52v85z" />
    <glyph glyph-name="uni02BC" unicode="&#x2bc;" horiz-adv-x="246" 
d="M149 712v-85l-52 -52v137h52z" />
    <glyph glyph-name="uni02C0" unicode="&#x2c0;" 
d="M248 728v29c56 0 96 -38 96 -91s-40 -91 -96 -91v29c36 0 64 27 64 62s-28 62 -64 62z" />
    <glyph glyph-name="circumflex" unicode="&#x2c6;" 
d="M277 730l122 -142h-42l-97 112l-97 -112h-42l122 142h34z" />
    <glyph glyph-name="caron" unicode="&#x2c7;" 
d="M399 730l-122 -142h-34l-122 142h42l97 -112l97 112h42z" />
    <glyph glyph-name="breve" unicode="&#x2d8;" 
d="M370 706h33c-9 -77 -52 -121 -144 -121c-91 0 -134 44 -143 121h32c8 -53 44 -88 111 -88c68 0 104 35 111 88z" />
    <glyph glyph-name="dotaccent" unicode="&#x2d9;" 
d="M280 680v-83h-41v83h41z" />
    <glyph glyph-name="ring" unicode="&#x2da;" 
d="M260 776c59 0 106 -48 106 -107c0 -58 -47 -106 -106 -106s-106 48 -106 106c0 59 47 107 106 107zM259 745c-41 0 -75 -34 -75 -76c0 -41 34 -75 75 -75c42 0 76 34 76 75c0 42 -34 76 -76 76z" />
    <glyph glyph-name="ogonek" unicode="&#x2db;" 
d="M181 -215l69 143h36l-63 -143h-42z" />
    <glyph glyph-name="tilde" unicode="&#x2dc;" 
d="M200 683c24 0 38 -6 66 -24c25 -16 37 -21 54 -21c16 0 32 5 63 37l22 -21c-43 -44 -64 -48 -86 -48s-35 4 -66 24c-24 15 -37 21 -54 21s-32 -5 -63 -37l-22 21c43 44 64 48 86 48z" />
    <glyph glyph-name="hungarumlaut" unicode="&#x2dd;" 
d="M465 730l-107 -142h-41l101 142h47zM295 730l-107 -142h-41l101 142h47z" />
    <glyph glyph-name="gravecomb" unicode="&#x300;" horiz-adv-x="1" 
d="M-26 730l101 -142h-41l-108 142h48z" />
    <glyph glyph-name="acutecomb" unicode="&#x301;" horiz-adv-x="1" 
d="M75 730l-108 -142h-41l101 142h48z" />
    <glyph glyph-name="uni0302" unicode="&#x302;" horiz-adv-x="1" 
d="M18 730l122 -142h-42l-97 112l-97 -112h-42l122 142h34z" />
    <glyph glyph-name="tildecomb" unicode="&#x303;" horiz-adv-x="1" 
d="M-59 683c24 0 38 -6 66 -24c25 -16 37 -21 54 -21c16 0 32 5 63 37l22 -21c-43 -44 -64 -48 -86 -48s-35 4 -66 24c-24 15 -37 21 -54 21s-32 -5 -63 -37l-22 21c43 44 64 48 86 48z" />
    <glyph glyph-name="uni0304" unicode="&#x304;" horiz-adv-x="1" 
d="M135 646v-34h-268v34h268z" />
    <glyph glyph-name="uni0306" unicode="&#x306;" horiz-adv-x="1" 
d="M111 706h33c-9 -77 -52 -121 -144 -121c-91 0 -134 44 -143 121h32c8 -53 44 -88 111 -88c68 0 104 35 111 88z" />
    <glyph glyph-name="uni0307" unicode="&#x307;" horiz-adv-x="1" 
d="M21 680v-83h-41v83h41z" />
    <glyph glyph-name="uni0308" unicode="&#x308;" horiz-adv-x="1" 
d="M122 681v-83h-41v83h41zM-79 681v-83h-41v83h41z" />
    <glyph glyph-name="hookabovecomb" unicode="&#x309;" horiz-adv-x="1" 
d="M-47 728v29c56 0 96 -38 96 -91s-40 -91 -96 -91v29c36 0 64 27 64 62s-28 62 -64 62z" />
    <glyph glyph-name="uni030A" unicode="&#x30a;" horiz-adv-x="1" 
d="M1 776c59 0 106 -48 106 -107c0 -58 -47 -106 -106 -106s-106 48 -106 106c0 59 47 107 106 107zM0 745c-41 0 -75 -34 -75 -76c0 -41 34 -75 75 -75c42 0 76 34 76 75c0 42 -34 76 -76 76z" />
    <glyph glyph-name="uni030B" unicode="&#x30b;" horiz-adv-x="1" 
d="M160 730l-107 -142h-41l101 142h47zM-10 730l-107 -142h-41l101 142h47z" />
    <glyph glyph-name="uni030C" unicode="&#x30c;" horiz-adv-x="1" 
d="M140 730l-122 -142h-34l-122 142h42l97 -112l97 112h42z" />
    <glyph glyph-name="uni030F" unicode="&#x30f;" horiz-adv-x="1" 
d="M60 730l100 -142h-41l-107 142h48zM-110 730l100 -142h-40l-108 142h48z" />
    <glyph glyph-name="uni0310" unicode="&#x310;" horiz-adv-x="1" 
d="M111 706h33c-9 -77 -52 -121 -144 -121c-91 0 -134 44 -143 121h32c8 -53 44 -88 111 -88c68 0 104 35 111 88zM22 817v-83h-41v83h41z" />
    <glyph glyph-name="uni0311" unicode="&#x311;" horiz-adv-x="1" 
d="M-111 582h-32c9 77 52 121 143 121c92 0 135 -44 144 -121h-33c-7 53 -43 88 -111 88c-67 0 -103 -35 -111 -88z" />
    <glyph glyph-name="uni0312" unicode="&#x312;" horiz-adv-x="1" 
d="M54 732l-69 -144h-38l64 144h43z" />
    <glyph glyph-name="uni0313" unicode="&#x313;" horiz-adv-x="1" 
d="M41 712l-46 -147h-34l41 147h39z" />
    <glyph glyph-name="uni0316" unicode="&#x316;" horiz-adv-x="1" 
d="M-26 -71l101 -142h-41l-108 142h48z" />
    <glyph glyph-name="uni0317" unicode="&#x317;" horiz-adv-x="1" 
d="M75 -72l-108 -142h-41l101 142h48z" />
    <glyph glyph-name="uni031B" unicode="&#x31b;" horiz-adv-x="1" 
d="M54 501v-52c0 -61 -22 -94 -83 -94h-23v30h25c32 0 47 24 47 71v45h34z" />
    <glyph glyph-name="uni031C" unicode="&#x31c;" horiz-adv-x="1" 
d="M49 -42v-29c-36 0 -64 -27 -64 -62s28 -62 64 -62v-29c-56 0 -96 38 -96 91s40 91 96 91z" />
    <glyph glyph-name="dotbelowcomb" unicode="&#x323;" horiz-adv-x="1" 
d="M21 -82v-83h-41v83h41z" />
    <glyph glyph-name="uni0324" unicode="&#x324;" horiz-adv-x="1" 
d="M122 -77v-83h-41v83h41zM-79 -77v-83h-41v83h41z" />
    <glyph glyph-name="uni0325" unicode="&#x325;" horiz-adv-x="1" 
d="M1 -42c59 0 106 -48 106 -107c0 -58 -47 -106 -106 -106s-106 48 -106 106c0 59 47 107 106 107zM0 -73c-41 0 -75 -34 -75 -76c0 -41 34 -75 75 -75c42 0 76 34 76 75c0 42 -34 76 -76 76z" />
    <glyph glyph-name="uni0326" unicode="&#x326;" horiz-adv-x="1" 
d="M53 -72l-63 -143h-42l69 143h36z" />
    <glyph glyph-name="uni0327" unicode="&#x327;" horiz-adv-x="1" 
d="M-52 -215l69 143h36l-63 -143h-42z" />
    <glyph glyph-name="uni0328" unicode="&#x328;" horiz-adv-x="1" 
d="M-52 -215l69 143h36l-63 -143h-42z" />
    <glyph glyph-name="uni032C" unicode="&#x32c;" horiz-adv-x="1" 
d="M140 -72l-122 -142h-34l-122 142h42l97 -112l97 112h42z" />
    <glyph glyph-name="uni032D" unicode="&#x32d;" horiz-adv-x="1" 
d="M18 -72l122 -142h-42l-97 112l-97 -112h-42l122 142h34z" />
    <glyph glyph-name="uni032E" unicode="&#x32e;" horiz-adv-x="1" 
d="M112 -71h32c-9 -77 -52 -121 -143 -121s-135 44 -144 121h33c7 -53 44 -88 111 -88s103 35 111 88z" />
    <glyph glyph-name="uni032F" unicode="&#x32f;" horiz-adv-x="1" 
d="M-111 -195h-32c9 77 52 121 143 121c92 0 135 -44 144 -121h-33c-7 53 -43 88 -111 88c-67 0 -103 -35 -111 -88z" />
    <glyph glyph-name="uni0330" unicode="&#x330;" horiz-adv-x="1" 
d="M-59 -90c24 0 38 -6 66 -24c25 -16 37 -21 54 -21c16 0 32 5 63 37l22 -21c-43 -44 -64 -48 -86 -48s-35 4 -66 24c-24 15 -37 21 -54 21s-32 -5 -63 -37l-22 21c43 44 64 48 86 48z" />
    <glyph glyph-name="uni0331" unicode="&#x331;" horiz-adv-x="1" 
d="M134 -94v-34h-267v34h267z" />
    <glyph glyph-name="uni0340" unicode="&#x340;" horiz-adv-x="1" 
d="M-33 822l115 -143h-41l-122 143h48z" />
    <glyph glyph-name="uni0341" unicode="&#x341;" horiz-adv-x="1" 
d="M75 822l-108 -142h-41l101 142h48z" />
    <glyph glyph-name="uni037E" unicode="&#x37e;" horiz-adv-x="286" 
d="M178 60v-128l-50 -50v178h50zM186 380v-61h-61v61h61z" />
    <glyph glyph-name="uni0394" unicode="&#x394;" horiz-adv-x="590" 
d="M16 0l261 712h34l263 -712h-558zM66 36h458l-230 625z" />
    <glyph glyph-name="uni03A9" unicode="&#x3a9;" horiz-adv-x="648" 
d="M84 0v35h107c-22 15 -36 27 -51 45c-47 57 -56 128 -56 276c0 168 8 232 71 295c43 43 98 67 169 67s126 -24 169 -67c63 -63 71 -127 71 -295c0 -148 -9 -219 -56 -276c-15 -18 -29 -30 -51 -45h107v-35h-182v35c34 13 70 35 95 65c41 49 49 120 49 256
c0 152 -8 219 -60 271c-37 37 -84 56 -142 56s-105 -19 -142 -56c-52 -52 -60 -119 -60 -271c0 -136 8 -207 49 -256c25 -30 61 -52 95 -65v-35h-182z" />
    <glyph glyph-name="uni03BC" unicode="&#x3bc;" horiz-adv-x="559" 
d="M100 -236v712h36v-296c0 -97 46 -154 141 -154s146 58 146 154v296h36v-476h-36v71c-33 -52 -81 -77 -149 -77c-63 0 -110 21 -138 61v-291h-36z" />
    <glyph glyph-name="pi" unicode="&#x3c0;" horiz-adv-x="554" 
d="M454 476v-476h-36v443h-282v-443h-36v476h354z" />
    <glyph glyph-name="uni2007" unicode="&#x2007;" horiz-adv-x="507" 
 />
    <glyph glyph-name="uni2008" unicode="&#x2008;" horiz-adv-x="255" 
 />
    <glyph glyph-name="uni200B" unicode="&#x200b;" horiz-adv-x="0" 
 />
    <glyph glyph-name="uniFEFF" unicode="&#xfeff;" horiz-adv-x="0" 
 />
    <glyph glyph-name="endash" unicode="&#x2013;" horiz-adv-x="573" 
d="M487 273v-33h-401v33h401z" />
    <glyph glyph-name="emdash" unicode="&#x2014;" horiz-adv-x="844" 
d="M758 273v-33h-672v33h672z" />
    <glyph glyph-name="quoteleft" unicode="&#x2018;" horiz-adv-x="246" 
d="M149 764v-137h-52v85z" />
    <glyph glyph-name="quoteright" unicode="&#x2019;" horiz-adv-x="246" 
d="M149 712v-85l-52 -52v137h52z" />
    <glyph glyph-name="quotesinglbase" unicode="&#x201a;" horiz-adv-x="246" 
d="M149 60v-85l-52 -52v137h52z" />
    <glyph glyph-name="quotedblleft" unicode="&#x201c;" horiz-adv-x="387" 
d="M290 764v-137h-52v85zM149 764v-137h-52v85z" />
    <glyph glyph-name="quotedblright" unicode="&#x201d;" horiz-adv-x="387" 
d="M290 712v-85l-52 -52v137h52zM149 712v-85l-52 -52v137h52z" />
    <glyph glyph-name="quotedblbase" unicode="&#x201e;" horiz-adv-x="387" 
d="M290 60v-84l-52 -52v136h52zM149 60v-84l-52 -52v136h52z" />
    <glyph glyph-name="dagger" unicode="&#x2020;" horiz-adv-x="604" 
d="M319 712v-218h203v-33h-203v-461h-36v461h-201v33h201v218h36z" />
    <glyph glyph-name="daggerdbl" unicode="&#x2021;" horiz-adv-x="603" 
d="M319 712v-218h202v-33h-202v-444h202v-33h-202v-218h-36v218h-201v33h201v444h-201v33h201v218h36z" />
    <glyph glyph-name="bullet" unicode="&#x2022;" horiz-adv-x="554" 
d="M277 420c90 0 163 -73 163 -163s-73 -163 -163 -163s-163 73 -163 163s73 163 163 163z" />
    <glyph glyph-name="ellipsis" unicode="&#x2026;" horiz-adv-x="698" 
d="M601 61v-61h-61v61h61zM158 61v-61h-61v61h61zM381 61v-61h-61v61h61z" />
    <glyph glyph-name="perthousand" unicode="&#x2030;" horiz-adv-x="1152" 
d="M228 0l330 712h34l-331 -712h-33zM197 344c-76 0 -126 54 -126 129v116c0 75 50 129 126 129c77 0 127 -54 127 -129v-116c0 -75 -50 -129 -127 -129zM197 373c62 0 95 44 95 106v104c0 62 -33 106 -95 106c-61 0 -94 -44 -94 -106v-104c0 -62 33 -106 94 -106zM621 -6
c-77 0 -127 54 -127 129v116c0 75 50 129 127 129c76 0 126 -54 126 -129v-116c0 -75 -50 -129 -126 -129zM621 23c61 0 94 44 94 106v104c0 62 -33 106 -94 106c-62 0 -95 -44 -95 -106v-104c0 -62 33 -106 95 -106zM955 -6c-77 0 -127 54 -127 129v116
c0 75 50 129 127 129c76 0 126 -54 126 -129v-116c0 -75 -50 -129 -126 -129zM955 23c61 0 94 44 94 106v104c0 62 -33 106 -94 106c-62 0 -95 -44 -95 -106v-104c0 -62 33 -106 95 -106z" />
    <glyph glyph-name="minute" unicode="&#x2032;" horiz-adv-x="247" 
d="M176 712l-69 -294h-36l69 294h36z" />
    <glyph glyph-name="second" unicode="&#x2033;" horiz-adv-x="369" 
d="M298 712l-69 -294h-36l69 294h36zM176 712l-69 -294h-36l69 294h36z" />
    <glyph glyph-name="guilsinglleft" unicode="&#x2039;" horiz-adv-x="314" 
d="M229 443v-47l-139 -139l139 -139v-48l-186 187z" />
    <glyph glyph-name="guilsinglright" unicode="&#x203a;" horiz-adv-x="314" 
d="M85 443l186 -186l-186 -187v48l139 139l-139 139v47z" />
    <glyph glyph-name="fraction" unicode="&#x2044;" horiz-adv-x="172" 
d="M-97 0l331 712h34l-332 -712h-33z" />
    <glyph glyph-name="uni2070" unicode="&#x2070;" horiz-adv-x="214" 
d="M105 430c-51 1 -80 39 -80 80v128c0 41 29 79 80 79s80 -38 80 -79v-128c0 -41 -29 -79 -80 -80zM105 456c36 0 53 24 53 56v124c0 32 -17 56 -53 56c-35 0 -53 -24 -53 -56v-124c0 -32 18 -56 53 -56z" />
    <glyph glyph-name="uni2071" unicode="&#x2071;" horiz-adv-x="136" 
d="M82 590v-262h-28v262h28zM83 712v-62h-30v62h30z" />
    <glyph glyph-name="uni2074" unicode="&#x2074;" horiz-adv-x="202" 
d="M129 434v46h-112v25l102 211h26l-102 -211h86v83h26v-83h30v-25h-30v-46h-26z" />
    <glyph glyph-name="uni2075" unicode="&#x2075;" horiz-adv-x="210" 
d="M106 430c-25 0 -44 7 -57 18c-10 9 -19 23 -21 43h27c4 -23 19 -36 51 -36c35 0 53 24 53 71c0 50 -15 70 -51 70c-26 0 -41 -9 -56 -36h-20v156h140v-25h-118v-97c16 18 34 26 55 26c23 0 39 -6 53 -20c17 -16 24 -40 24 -74c0 -33 -8 -57 -24 -74
c-14 -15 -34 -22 -56 -22z" />
    <glyph glyph-name="uni2076" unicode="&#x2076;" horiz-adv-x="213" 
d="M106 431c-47 0 -79 34 -79 85c0 19 2 36 16 64l68 136h28l-62 -126c8 6 18 10 31 10c46 0 78 -33 78 -84s-33 -85 -80 -85zM106 456c34 0 53 22 53 60c0 39 -19 60 -53 60s-53 -21 -53 -60c0 -38 19 -60 53 -60z" />
    <glyph glyph-name="uni2077" unicode="&#x2077;" horiz-adv-x="210" 
d="M62 434l100 259h-101v-41h-26v64h152v-23l-99 -259h-26z" />
    <glyph glyph-name="uni2078" unicode="&#x2078;" horiz-adv-x="210" 
d="M105 430c-46 0 -84 36 -84 81c0 29 15 56 48 70c-30 14 -42 38 -42 64c0 43 36 75 78 75c43 0 78 -32 78 -75c0 -26 -12 -50 -41 -64c32 -14 47 -41 47 -70c0 -45 -38 -81 -84 -81zM105 454c32 0 58 25 58 57c0 33 -26 58 -58 58c-31 0 -57 -25 -57 -58
c0 -32 26 -57 57 -57zM105 593c29 0 52 22 52 51c0 30 -23 52 -52 52c-28 0 -52 -22 -52 -52c0 -29 24 -51 52 -51z" />
    <glyph glyph-name="uni2079" unicode="&#x2079;" horiz-adv-x="213" 
d="M75 434l62 126c-8 -6 -18 -10 -31 -10c-46 0 -78 33 -78 84s33 85 80 85s79 -34 79 -85c0 -19 -2 -36 -16 -64l-68 -136h-28zM108 574c34 0 53 21 53 60c0 38 -19 60 -53 60s-53 -22 -53 -60c0 -39 19 -60 53 -60z" />
    <glyph glyph-name="uni207F" unicode="&#x207f;" horiz-adv-x="305" 
d="M158 594c31 0 54 -9 71 -25c17 -17 25 -40 25 -75v-166h-28v163c0 57 -17 77 -70 77c-42 0 -75 -28 -75 -79v-161h-27v262h27v-39c13 26 41 43 77 43z" />
    <glyph glyph-name="uni2080" unicode="&#x2080;" horiz-adv-x="214" 
d="M107 -154c-51 1 -80 39 -80 80v128c0 41 29 79 80 79s80 -38 80 -79v-128c0 -41 -29 -79 -80 -80zM107 -128c36 0 53 24 53 56v124c0 32 -17 56 -53 56c-35 0 -53 -24 -53 -56v-124c0 -32 18 -56 53 -56z" />
    <glyph glyph-name="uni2081" unicode="&#x2081;" horiz-adv-x="218" 
d="M111 -150v251l-58 -50v32l58 49h27v-282h-27z" />
    <glyph glyph-name="uni2082" unicode="&#x2082;" horiz-adv-x="207" 
d="M29 -150v25l108 136c14 18 18 33 18 51c0 26 -17 49 -50 49c-28 0 -47 -18 -50 -51h-26c4 45 34 75 76 75c47 0 76 -34 76 -73c0 -23 -7 -42 -26 -65l-97 -122h114v-25h-143z" />
    <glyph glyph-name="uni2083" unicode="&#x2083;" horiz-adv-x="208" 
d="M98 -153c-41 0 -76 27 -81 71h26c3 -27 27 -46 55 -46c32 0 57 21 57 57s-29 56 -58 56h-9v23h9c27 0 51 19 51 51c0 34 -21 51 -50 51c-27 0 -45 -18 -50 -44h-26c7 42 33 69 76 69c42 0 76 -28 76 -75c0 -30 -15 -52 -40 -63c28 -11 47 -37 47 -70
c0 -47 -37 -80 -83 -80z" />
    <glyph glyph-name="uni2084" unicode="&#x2084;" horiz-adv-x="202" 
d="M129 -150v46h-112v25l102 211h26l-102 -211h86v83h26v-83h30v-25h-30v-46h-26z" />
    <glyph glyph-name="uni2085" unicode="&#x2085;" horiz-adv-x="210" 
d="M106 -154c-25 0 -44 7 -57 18c-10 9 -19 23 -21 43h27c4 -23 19 -36 51 -36c35 0 53 24 53 71c0 50 -15 70 -51 70c-26 0 -41 -9 -56 -36h-20v156h140v-25h-118v-97c16 18 34 26 55 26c23 0 39 -6 53 -20c17 -16 24 -40 24 -74c0 -33 -8 -57 -24 -74
c-14 -15 -34 -22 -56 -22z" />
    <glyph glyph-name="uni2086" unicode="&#x2086;" horiz-adv-x="213" 
d="M106 -153c-47 0 -79 34 -79 85c0 19 2 36 16 64l68 136h28l-62 -126c8 6 18 10 31 10c46 0 78 -33 78 -84s-33 -85 -80 -85zM106 -128c34 0 53 22 53 60c0 39 -19 60 -53 60s-53 -21 -53 -60c0 -38 19 -60 53 -60z" />
    <glyph glyph-name="uni2087" unicode="&#x2087;" horiz-adv-x="210" 
d="M62 -150l100 259h-101v-41h-26v64h152v-23l-99 -259h-26z" />
    <glyph glyph-name="uni2088" unicode="&#x2088;" horiz-adv-x="210" 
d="M105 -154c-46 0 -84 36 -84 81c0 29 15 56 48 70c-30 14 -42 38 -42 64c0 43 36 75 78 75c43 0 78 -32 78 -75c0 -26 -12 -50 -41 -64c32 -14 47 -41 47 -70c0 -45 -38 -81 -84 -81zM105 -130c32 0 58 25 58 57c0 33 -26 58 -58 58c-31 0 -57 -25 -57 -58
c0 -32 26 -57 57 -57zM105 9c29 0 52 22 52 51c0 30 -23 52 -52 52c-28 0 -52 -22 -52 -52c0 -29 24 -51 52 -51z" />
    <glyph glyph-name="uni2089" unicode="&#x2089;" horiz-adv-x="213" 
d="M75 -150l62 126c-8 -6 -18 -10 -31 -10c-46 0 -78 33 -78 84s33 85 80 85s79 -34 79 -85c0 -19 -2 -36 -16 -64l-68 -136h-28zM108 -10c34 0 53 21 53 60c0 38 -19 60 -53 60s-53 -22 -53 -60c0 -39 19 -60 53 -60z" />
    <glyph glyph-name="uni2090" unicode="&#x2090;" horiz-adv-x="286" 
d="M127 -164c-38 0 -59 7 -77 25c-12 12 -18 32 -18 51c0 48 37 76 93 76h82v29c0 39 -20 63 -72 63c-35 0 -52 -8 -71 -31l-19 16c21 27 49 41 90 41c68 0 100 -34 100 -87v-179h-30v30c-17 -24 -42 -34 -78 -34zM129 -138c51 0 77 18 78 68v34h-79c-41 0 -68 -17 -68 -51
c0 -15 3 -26 10 -34c12 -14 25 -17 59 -17z" />
    <glyph glyph-name="uni2091" unicode="&#x2091;" horiz-adv-x="283" 
d="M149 -163c-69 0 -111 49 -111 130c0 100 40 139 103 139c67 0 104 -54 104 -134v-6h-180c1 -67 31 -104 84 -104c28 0 47 8 67 28l19 -17c-25 -25 -52 -36 -86 -36zM65 -11h152c-2 31 -9 54 -22 70c-13 14 -31 22 -54 22s-41 -8 -54 -22c-13 -16 -20 -39 -22 -70z" />
    <glyph glyph-name="uni2092" unicode="&#x2092;" horiz-adv-x="286" 
d="M143 -164c-30 0 -57 11 -75 29c-20 22 -30 53 -30 106s10 84 30 105c18 18 45 30 75 30c31 0 57 -12 75 -30c20 -21 30 -52 30 -105s-10 -84 -30 -106c-18 -18 -44 -29 -75 -29zM143 -138c23 0 43 9 55 21c14 16 22 44 22 88s-8 72 -22 88c-12 12 -32 21 -55 21
s-43 -9 -54 -21c-14 -16 -23 -44 -23 -88s9 -72 23 -88c11 -12 31 -21 54 -21z" />
    <glyph glyph-name="uni2093" unicode="&#x2093;" horiz-adv-x="255" 
d="M24 -162l89 136l-85 130h34l65 -107l70 107h32l-86 -130l88 -136h-32l-72 113l-70 -113h-33z" />
    <glyph glyph-name="lira" unicode="&#x20a4;" horiz-adv-x="549" 
d="M106 0v201l-65 -42v33l65 41v115l-65 -41v32l65 42v331h38v-307l190 119v-33l-190 -119v-114l190 119v-33l-190 -119v-191h123c121 0 191 62 214 171h38c-24 -126 -108 -205 -243 -205h-170z" />
    <glyph glyph-name="dong" unicode="&#x20ab;" horiz-adv-x="469" 
d="M224 106c-60 0 -97 24 -120 59c-26 42 -33 97 -33 149c0 51 7 107 33 148c23 35 60 61 120 61c68 0 106 -35 127 -81v161h-126v26h126v83h28v-83h58v-26h-58v-493h-28v76c-21 -46 -59 -80 -127 -80zM75 0v27h304v-27h-304zM225 133c106 0 126 91 126 181
c0 89 -20 182 -126 182c-108 0 -126 -93 -126 -182c0 -90 19 -181 126 -181z" />
    <glyph glyph-name="Euro" unicode="&#x20ac;" horiz-adv-x="673" 
d="M356 718c127 0 215 -81 238 -205h-38c-23 107 -99 171 -200 171c-58 0 -105 -20 -143 -57c-41 -41 -53 -91 -58 -182h260v-29h-261v-114h261v-29h-260c4 -96 17 -147 58 -188c38 -37 85 -57 143 -57c101 0 177 64 200 171h38c-23 -124 -111 -205 -238 -205
c-71 0 -126 24 -170 67c-51 51 -66 103 -69 212h-65v29h64v114h-63v29h64c4 104 18 156 69 206c44 43 99 67 170 67z" />
    <glyph glyph-name="uni20B4" unicode="&#x20b4;" horiz-adv-x="643" 
d="M337 -6c-147 0 -237 75 -237 193c0 33 6 62 19 86h-68v29h87c8 8 18 16 28 24c32 24 65 37 119 45l85 14c35 5 65 15 91 31h-410v29h443c15 22 23 50 23 84c0 97 -70 154 -181 154c-82 0 -133 -24 -179 -67l-26 26c60 52 116 76 203 76c135 0 221 -74 221 -190
c0 -33 -7 -61 -18 -83h55v-29h-73c-9 -9 -17 -16 -28 -24c-29 -21 -63 -34 -111 -42l-85 -14c-49 -8 -78 -18 -103 -34h400v-29h-431c-16 -22 -23 -53 -23 -87c0 -100 77 -157 198 -157c89 0 148 23 209 85l28 -28c-65 -64 -131 -92 -236 -92z" />
    <glyph glyph-name="uni20B8" unicode="&#x20b8;" horiz-adv-x="532" 
d="M502 593v-35h-217v-558h-38v558h-217v35h472zM501 712v-29h-471v29h471z" />
    <glyph glyph-name="uni20BD" unicode="&#x20bd;" horiz-adv-x="625" 
d="M109 0v308h-68v35h68v369h255c123 0 215 -68 215 -202s-92 -202 -215 -202h-217v-308h-38zM147 343h210c108 0 184 50 184 167s-76 166 -184 166h-210v-333z" />
    <glyph glyph-name="uni2116" unicode="&#x2116;" horiz-adv-x="962" 
d="M572 712v-712h-38l-382 641v-641h-38v712h38l382 -640v640h38zM893 320v-31h-243v31h243zM772 688c-27 0 -48 -9 -63 -23c-27 -25 -32 -73 -32 -117c0 -41 4 -87 29 -113c15 -16 37 -26 66 -26c28 0 50 10 66 26c23 25 28 69 28 113s-5 91 -31 117c-15 14 -36 23 -63 23z
M772 718c36 0 64 -11 86 -33c36 -35 41 -89 41 -137c0 -47 -5 -102 -41 -137c-22 -22 -50 -32 -86 -32c-37 0 -65 10 -87 32c-36 35 -41 90 -41 137c0 48 5 102 41 137c22 22 50 33 87 33z" />
    <glyph glyph-name="uni2117" unicode="&#x2117;" horiz-adv-x="892" 
d="M446 -6c-200 0 -362 162 -362 362s162 362 362 362s362 -162 362 -362s-162 -362 -362 -362zM446 22c183 0 332 149 332 334s-149 334 -332 334s-332 -149 -332 -334s149 -334 332 -334zM321 153v404h172c76 0 117 -40 117 -118s-41 -119 -116 -119h-144v-167h-29z
M350 346h140c58 0 91 28 91 93c0 64 -33 92 -91 92h-140v-185z" />
    <glyph glyph-name="trademark" unicode="&#x2122;" horiz-adv-x="832" 
d="M777 712v-427h-29v364l-139 -293h-27l-141 293v-364h-28v427h28l155 -325l152 325h29zM313 712v-26h-127v-401h-28v401h-127v26h282z" />
    <glyph glyph-name="Omega" unicode="&#x2126;" horiz-adv-x="648" 
d="M84 0v35h107c-22 15 -36 27 -51 45c-47 57 -56 128 -56 276c0 168 8 232 71 295c43 43 98 67 169 67s126 -24 169 -67c63 -63 71 -127 71 -295c0 -148 -9 -219 -56 -276c-15 -18 -29 -30 -51 -45h107v-35h-182v35c34 13 70 35 95 65c41 49 49 120 49 256
c0 152 -8 219 -60 271c-37 37 -84 56 -142 56s-105 -19 -142 -56c-52 -52 -60 -119 -60 -271c0 -136 8 -207 49 -256c25 -30 61 -52 95 -65v-35h-182z" />
    <glyph glyph-name="uni2150" unicode="&#x2150;" horiz-adv-x="793" 
d="M214 0l331 712h34l-332 -712h-33zM580 0l149 399h-163v-62h-30v90h223v-28l-148 -399h-31zM161 285v391l-80 -70v38l80 68h30v-427h-30z" />
    <glyph glyph-name="uni2151" unicode="&#x2151;" horiz-adv-x="795" 
d="M214 0l331 712h34l-332 -712h-33zM589 0l101 201c-14 -10 -35 -15 -54 -15c-70 0 -112 53 -112 121c0 69 43 124 116 124c71 0 116 -53 116 -123c0 -26 -7 -55 -23 -86l-111 -222h-33zM640 213c56 0 85 43 85 95c-1 54 -31 94 -85 94c-55 0 -86 -40 -86 -94
c0 -52 30 -95 86 -95zM161 285v391l-80 -70v38l80 68h30v-427h-30z" />
    <glyph glyph-name="uni2152" unicode="&#x2152;" horiz-adv-x="916" 
d="M143 0l331 712h34l-332 -712h-33zM507 0v391l-80 -70v38l80 68h30v-427h-30zM754 -4c-70 0 -117 51 -117 117v201c0 66 47 117 117 117s118 -51 118 -117v-201c0 -66 -48 -117 -118 -117zM754 25c55 0 87 38 87 89v199c0 50 -32 89 -87 89c-54 0 -86 -38 -86 -89v-199
c0 -52 32 -89 86 -89zM161 285v391l-80 -70v38l80 68h30v-427h-30z" />
    <glyph glyph-name="onethird" unicode="&#x2153;" horiz-adv-x="792" 
d="M214 0l331 712h34l-332 -712h-33zM630 -4c-61 0 -115 37 -122 104h31c6 -49 48 -75 91 -75c52 0 92 34 92 90c0 55 -40 92 -95 92h-13v28h12c51 0 87 33 87 84c0 54 -38 83 -84 83c-45 0 -76 -29 -83 -73h-31c8 62 54 102 114 102c66 0 115 -42 115 -112
c0 -47 -25 -81 -65 -97c45 -17 73 -55 73 -107c0 -75 -53 -119 -122 -119zM161 285v391l-80 -70v38l80 68h30v-427h-30z" />
    <glyph glyph-name="twothirds" unicode="&#x2154;" horiz-adv-x="796" 
d="M218 0l331 712h34l-332 -712h-33zM634 -4c-61 0 -115 37 -122 104h31c6 -49 48 -75 91 -75c52 0 92 34 92 90c0 55 -40 92 -95 92h-13v28h12c51 0 87 33 87 84c0 54 -38 83 -84 83c-45 0 -76 -29 -83 -73h-31c8 62 54 102 114 102c66 0 115 -42 115 -112
c0 -47 -25 -81 -65 -97c45 -17 73 -55 73 -107c0 -75 -53 -119 -122 -119zM45 285v29l171 218c22 28 30 46 30 75c0 48 -33 80 -85 80c-48 0 -82 -27 -85 -79h-30c3 64 46 108 115 108c70 0 115 -45 115 -109c0 -36 -11 -58 -37 -92l-158 -201h189v-29h-225z" />
    <glyph glyph-name="uni2155" unicode="&#x2155;" horiz-adv-x="792" 
d="M214 0l331 712h34l-332 -712h-33zM638 -4c-36 0 -64 9 -85 29c-17 16 -26 40 -28 69h31c7 -45 33 -69 82 -69c26 0 45 6 60 21c26 26 27 66 27 93c0 53 -12 113 -81 113c-43 0 -72 -19 -84 -48h-26v223h213v-29h-185v-156c18 25 48 39 85 39c32 0 56 -10 73 -27
c28 -28 36 -69 36 -115c0 -48 -9 -86 -34 -112c-20 -20 -49 -31 -84 -31zM161 285v391l-80 -70v38l80 68h30v-427h-30z" />
    <glyph glyph-name="uni2156" unicode="&#x2156;" horiz-adv-x="796" 
d="M218 0l331 712h34l-332 -712h-33zM642 -4c-36 0 -64 9 -85 29c-17 16 -26 40 -28 69h31c7 -45 33 -69 82 -69c26 0 45 6 60 21c26 26 27 66 27 93c0 53 -12 113 -81 113c-43 0 -72 -19 -84 -48h-26v223h213v-29h-185v-156c18 25 48 39 85 39c32 0 56 -10 73 -27
c28 -28 36 -69 36 -115c0 -48 -9 -86 -34 -112c-20 -20 -49 -31 -84 -31zM45 285v29l171 218c22 28 30 46 30 75c0 48 -33 80 -85 80c-48 0 -82 -27 -85 -79h-30c3 64 46 108 115 108c70 0 115 -45 115 -109c0 -36 -11 -58 -37 -92l-158 -201h189v-29h-225z" />
    <glyph glyph-name="uni2157" unicode="&#x2157;" horiz-adv-x="790" 
d="M212 0l331 712h34l-332 -712h-33zM636 -4c-36 0 -64 9 -85 29c-17 16 -26 40 -28 69h31c7 -45 33 -69 82 -69c26 0 45 6 60 21c26 26 27 66 27 93c0 53 -12 113 -81 113c-43 0 -72 -19 -84 -48h-26v223h213v-29h-185v-156c18 25 48 39 85 39c32 0 56 -10 73 -27
c28 -28 36 -69 36 -115c0 -48 -9 -86 -34 -112c-20 -20 -49 -31 -84 -31zM147 281c-61 0 -115 37 -122 104h31c6 -49 48 -75 91 -75c52 0 92 34 92 90c0 55 -40 92 -95 92h-13v28h12c51 0 87 33 87 84c0 54 -38 83 -84 83c-45 0 -76 -29 -83 -73h-31c8 62 54 102 114 102
c66 0 115 -42 115 -112c0 -47 -25 -81 -65 -97c45 -17 73 -55 73 -107c0 -75 -53 -119 -122 -119z" />
    <glyph glyph-name="uni2158" unicode="&#x2158;" horiz-adv-x="782" 
d="M204 0l331 712h34l-332 -712h-33zM628 -4c-36 0 -64 9 -85 29c-17 16 -26 40 -28 69h31c7 -45 33 -69 82 -69c26 0 45 6 60 21c26 26 27 66 27 93c0 53 -12 113 -81 113c-43 0 -72 -19 -84 -48h-26v223h213v-29h-185v-156c18 25 48 39 85 39c32 0 56 -10 73 -27
c28 -28 36 -69 36 -115c0 -48 -9 -86 -34 -112c-20 -20 -49 -31 -84 -31zM195 285v70h-170v29l157 328h32l-157 -328h138v129h31v-129h50v-29h-50v-70h-31z" />
    <glyph glyph-name="uni2159" unicode="&#x2159;" horiz-adv-x="799" 
d="M214 0l331 712h34l-332 -712h-33zM642 -4c-74 0 -119 53 -119 123c0 25 6 55 22 86l115 222h33l-105 -202c16 10 35 16 55 16c72 0 116 -53 116 -121c0 -69 -43 -124 -117 -124zM641 25c55 0 88 40 88 94c0 52 -31 95 -88 95s-87 -43 -87 -95c0 -54 32 -94 87 -94z
M161 285v391l-80 -70v38l80 68h30v-427h-30z" />
    <glyph glyph-name="uni215A" unicode="&#x215a;" horiz-adv-x="797" 
d="M212 0l331 712h34l-332 -712h-33zM640 -4c-74 0 -119 53 -119 123c0 25 6 55 22 86l115 222h33l-105 -202c16 10 35 16 55 16c72 0 116 -53 116 -121c0 -69 -43 -124 -117 -124zM639 25c55 0 88 40 88 94c0 52 -31 95 -88 95s-87 -43 -87 -95c0 -54 32 -94 87 -94z
M155 281c-36 0 -64 9 -85 29c-17 16 -26 40 -28 69h31c7 -45 33 -69 82 -69c26 0 45 6 60 21c26 26 27 66 27 93c0 53 -12 113 -81 113c-43 0 -72 -19 -84 -48h-26v223h213v-29h-185v-156c18 25 48 39 85 39c32 0 56 -10 73 -27c28 -28 36 -69 36 -115
c0 -48 -9 -86 -34 -112c-20 -20 -49 -31 -84 -31z" />
    <glyph glyph-name="oneeighth" unicode="&#x215b;" horiz-adv-x="796" 
d="M214 0l331 712h34l-332 -712h-33zM640 -4c-71 0 -124 50 -124 120c0 49 26 85 69 106c-40 21 -60 53 -60 97c0 64 47 112 115 112c67 0 115 -48 115 -112c0 -44 -20 -76 -61 -97c43 -21 70 -57 70 -106c0 -70 -54 -120 -124 -120zM640 25c52 0 93 38 93 91
c0 51 -41 91 -93 91c-53 0 -94 -40 -94 -91c0 -53 41 -91 94 -91zM640 236c49 0 84 34 84 83s-34 83 -84 83s-85 -34 -85 -83s35 -83 85 -83zM161 285v391l-80 -70v38l80 68h30v-427h-30z" />
    <glyph glyph-name="threeeighths" unicode="&#x215c;" horiz-adv-x="794" 
d="M212 0l331 712h34l-332 -712h-33zM638 -4c-71 0 -124 50 -124 120c0 49 26 85 69 106c-40 21 -60 53 -60 97c0 64 47 112 115 112c67 0 115 -48 115 -112c0 -44 -20 -76 -61 -97c43 -21 70 -57 70 -106c0 -70 -54 -120 -124 -120zM638 25c52 0 93 38 93 91
c0 51 -41 91 -93 91c-53 0 -94 -40 -94 -91c0 -53 41 -91 94 -91zM638 236c49 0 84 34 84 83s-34 83 -84 83s-85 -34 -85 -83s35 -83 85 -83zM147 281c-61 0 -115 37 -122 104h31c6 -49 48 -75 91 -75c52 0 92 34 92 90c0 55 -40 92 -95 92h-13v28h12c51 0 87 33 87 84
c0 54 -38 83 -84 83c-45 0 -76 -29 -83 -73h-31c8 62 54 102 114 102c66 0 115 -42 115 -112c0 -47 -25 -81 -65 -97c45 -17 73 -55 73 -107c0 -75 -53 -119 -122 -119z" />
    <glyph glyph-name="fiveeighths" unicode="&#x215d;" horiz-adv-x="794" 
d="M212 0l331 712h34l-332 -712h-33zM638 -4c-71 0 -124 50 -124 120c0 49 26 85 69 106c-40 21 -60 53 -60 97c0 64 47 112 115 112c67 0 115 -48 115 -112c0 -44 -20 -76 -61 -97c43 -21 70 -57 70 -106c0 -70 -54 -120 -124 -120zM638 25c52 0 93 38 93 91
c0 51 -41 91 -93 91c-53 0 -94 -40 -94 -91c0 -53 41 -91 94 -91zM638 236c49 0 84 34 84 83s-34 83 -84 83s-85 -34 -85 -83s35 -83 85 -83zM155 281c-36 0 -64 9 -85 29c-17 16 -26 40 -28 69h31c7 -45 33 -69 82 -69c26 0 45 6 60 21c26 26 27 66 27 93
c0 53 -12 113 -81 113c-43 0 -72 -19 -84 -48h-26v223h213v-29h-185v-156c18 25 48 39 85 39c32 0 56 -10 73 -27c28 -28 36 -69 36 -115c0 -48 -9 -86 -34 -112c-20 -20 -49 -31 -84 -31z" />
    <glyph glyph-name="seveneighths" unicode="&#x215e;" horiz-adv-x="795" 
d="M213 0l331 712h34l-332 -712h-33zM639 -4c-71 0 -124 50 -124 120c0 49 26 85 69 106c-40 21 -60 53 -60 97c0 64 47 112 115 112c67 0 115 -48 115 -112c0 -44 -20 -76 -61 -97c43 -21 70 -57 70 -106c0 -70 -54 -120 -124 -120zM639 25c52 0 93 38 93 91
c0 51 -41 91 -93 91c-53 0 -94 -40 -94 -91c0 -53 41 -91 94 -91zM639 236c49 0 84 34 84 83s-34 83 -84 83s-85 -34 -85 -83s35 -83 85 -83zM97 285l149 399h-163v-62h-30v90h223v-28l-148 -399h-31z" />
    <glyph glyph-name="uni215F" unicode="&#x215f;" horiz-adv-x="483" 
d="M214 0l331 712h34l-332 -712h-33zM161 285v391l-80 -70v38l80 68h30v-427h-30z" />
    <glyph glyph-name="uni2189" unicode="&#x2189;" horiz-adv-x="801" 
d="M223 0l331 712h34l-332 -712h-33zM639 -4c-61 0 -115 37 -122 104h31c6 -49 48 -75 91 -75c52 0 92 34 92 90c0 55 -40 92 -95 92h-13v28h12c51 0 87 33 87 84c0 54 -38 83 -84 83c-45 0 -76 -29 -83 -73h-31c8 62 54 102 114 102c66 0 115 -42 115 -112
c0 -47 -25 -81 -65 -97c45 -17 73 -55 73 -107c0 -75 -53 -119 -122 -119zM159 281c-70 0 -117 51 -117 117v201c0 66 47 117 117 117s118 -51 118 -117v-201c0 -66 -48 -117 -118 -117zM159 310c55 0 87 38 87 89v199c0 50 -32 89 -87 89c-54 0 -86 -38 -86 -89v-199
c0 -52 32 -89 86 -89z" />
    <glyph glyph-name="arrowleft" unicode="&#x2190;" horiz-adv-x="1027" 
d="M514 664l-390 -390h844v-35h-844l390 -390h-48l-408 407l408 408h48z" />
    <glyph glyph-name="arrowup" unicode="&#x2191;" horiz-adv-x="1027" 
d="M514 712l407 -408v-49l-390 391v-844h-35v844l-390 -391v49z" />
    <glyph glyph-name="arrowright" unicode="&#x2192;" horiz-adv-x="1027" 
d="M560 664l408 -408l-408 -407h-48l390 390h-844v35h844l-390 390h48z" />
    <glyph glyph-name="arrowdown" unicode="&#x2193;" horiz-adv-x="1027" 
d="M531 712v-845l390 391v-49l-407 -407l-408 407v49l390 -391v845h35z" />
    <glyph glyph-name="uni2196" unicode="&#x2196;" horiz-adv-x="1027" 
d="M761 581l35 -35h-552l597 -596l-24 -25l-597 597v-553l-35 35v577h576z" />
    <glyph glyph-name="uni2197" unicode="&#x2197;" horiz-adv-x="1027" 
d="M841 581v-577l-35 -35v553l-597 -597l-24 25l597 596h-553l35 35h577z" />
    <glyph glyph-name="uni2198" unicode="&#x2198;" horiz-adv-x="1027" 
d="M210 585l598 -597v552l33 -35v-576h-576l-35 33h552l-597 597z" />
    <glyph glyph-name="uni2199" unicode="&#x2199;" horiz-adv-x="1027" 
d="M817 585l24 -26l-597 -597h553l-36 -33h-576v576l34 35v-552z" />
    <glyph glyph-name="partialdiff" unicode="&#x2202;" horiz-adv-x="533" 
d="M252 -6c-55 0 -95 16 -124 46c-46 46 -57 110 -57 197c0 90 12 154 57 200c27 27 66 45 120 45c62 0 114 -22 149 -87v91c0 125 -44 199 -153 199c-61 0 -90 -20 -130 -55l-24 24c50 43 84 64 154 64c126 0 189 -82 189 -230v-251c0 -87 -11 -151 -57 -197
c-29 -30 -69 -46 -124 -46zM252 27c43 0 75 14 99 39c39 41 46 109 46 171c0 59 -5 122 -37 164c-24 30 -58 48 -108 48c-43 0 -75 -15 -99 -39c-41 -43 -46 -108 -46 -173c0 -62 7 -130 46 -171c24 -25 56 -39 99 -39z" />
    <glyph glyph-name="Delta" unicode="&#x2206;" horiz-adv-x="590" 
d="M16 0l261 712h34l263 -712h-558zM66 36h458l-230 625z" />
    <glyph glyph-name="product" unicode="&#x220f;" horiz-adv-x="698" 
d="M585 760v-990h-38v955h-396v-955h-38v990h472z" />
    <glyph glyph-name="summation" unicode="&#x2211;" horiz-adv-x="551" 
d="M67 -230v36l210 474l-211 444v36h425v-34h-383l205 -430v-32l-204 -460h382v-34h-424z" />
    <glyph glyph-name="minus" unicode="&#x2212;" horiz-adv-x="509" 
d="M455 273v-33h-401v33h401z" />
    <glyph glyph-name="uni2219" unicode="&#x2219;" horiz-adv-x="509" 
d="M254 420c90 0 163 -73 163 -163s-73 -163 -163 -163s-163 73 -163 163s73 163 163 163z" />
    <glyph glyph-name="radical" unicode="&#x221a;" horiz-adv-x="517" 
d="M487 712v-35h-86l-222 -677h-37l-127 382h38l108 -339l213 669h113z" />
    <glyph glyph-name="uni221B" unicode="&#x221b;" horiz-adv-x="517" 
d="M487 712v-35h-86l-222 -677h-37l-127 382h38l108 -339l213 669h113zM95 430c-41 0 -76 27 -81 71h26c3 -27 27 -46 55 -46c32 0 57 21 57 57s-29 56 -58 56h-9v23h9c27 0 51 19 51 51c0 34 -21 51 -50 51c-27 0 -45 -18 -50 -44h-26c7 42 33 69 76 69c42 0 76 -28 76 -75
c0 -30 -15 -52 -40 -63c28 -11 47 -37 47 -70c0 -47 -37 -80 -83 -80z" />
    <glyph glyph-name="uni221C" unicode="&#x221c;" horiz-adv-x="517" 
d="M487 712v-35h-86l-222 -677h-37l-127 382h38l108 -339l213 669h113zM127 430v46h-112v25l102 211h26l-102 -211h86v83h26v-83h30v-25h-30v-46h-26z" />
    <glyph glyph-name="infinity" unicode="&#x221e;" horiz-adv-x="778" 
d="M566 399c79 0 139 -61 139 -143c0 -81 -60 -141 -139 -141c-62 0 -103 24 -177 112c-73 -88 -115 -112 -176 -112c-79 0 -140 60 -140 141c0 82 61 143 140 143c60 0 103 -26 177 -115c73 89 113 115 176 115zM216 366c-66 0 -110 -45 -110 -110c0 -64 44 -108 110 -108
c51 0 88 27 154 108c-66 80 -103 110 -154 110zM561 365c-51 0 -87 -29 -153 -109c66 -81 102 -108 153 -108c66 0 110 44 110 108c0 65 -44 109 -110 109z" />
    <glyph glyph-name="integral" unicode="&#x222b;" horiz-adv-x="305" 
d="M277 712v-33h-32c-53 0 -75 -32 -75 -82v-711c0 -65 -33 -116 -102 -116h-40v33h32c52 0 75 32 75 82v711c0 65 33 116 102 116h40z" />
    <glyph glyph-name="approxequal" unicode="&#x2248;" horiz-adv-x="509" 
d="M174 376c33 0 65 -14 91 -26c31 -15 49 -25 72 -25c26 0 43 6 86 43l23 -23c-53 -47 -77 -53 -111 -53c-31 0 -54 12 -92 29c-25 11 -46 22 -71 22s-43 -5 -86 -42l-23 23c52 47 77 52 111 52zM174 221c33 0 65 -14 91 -26c31 -15 49 -25 72 -25c26 0 43 7 86 43l23 -23
c-53 -47 -77 -53 -111 -53c-31 0 -54 13 -92 30c-25 11 -46 21 -71 21s-43 -5 -86 -42l-23 23c52 47 77 52 111 52z" />
    <glyph glyph-name="notequal" unicode="&#x2260;" horiz-adv-x="509" 
d="M432 454l23 -23l-80 -78h80v-33h-113l-124 -120h237v-34h-274l-104 -101l-23 23l80 78h-80v34h118l124 120h-242v33h274z" />
    <glyph glyph-name="lessequal" unicode="&#x2264;" horiz-adv-x="509" 
d="M397 461v-40l-251 -134l251 -136v-38l-285 156v36zM112 193l285 -156v-39l-285 156v39z" />
    <glyph glyph-name="greaterequal" unicode="&#x2265;" horiz-adv-x="509" 
d="M112 461l285 -156v-36l-285 -156v38l251 136l-251 134v40zM397 193v-39l-285 -156v39z" />
    <glyph glyph-name="dotmath" unicode="&#x22c5;" horiz-adv-x="509" 
d="M285 287v-61h-61v61h61z" />
    <glyph glyph-name="uni2460" unicode="&#x2460;" horiz-adv-x="859" 
d="M420 165v350l-73 -63v36l73 61h28v-384h-28zM429 718c200 0 362 -162 362 -362s-162 -362 -362 -362s-361 162 -361 362s161 362 361 362zM429 691c-183 0 -332 -151 -332 -335s149 -335 332 -335c184 0 333 151 333 335s-149 335 -333 335z" />
    <glyph glyph-name="uni2460" unicode="&#x2780;" horiz-adv-x="859" 
d="M420 165v350l-73 -63v36l73 61h28v-384h-28zM429 718c200 0 362 -162 362 -362s-162 -362 -362 -362s-361 162 -361 362s161 362 361 362zM429 691c-183 0 -332 -151 -332 -335s149 -335 332 -335c184 0 333 151 333 335s-149 335 -333 335z" />
    <glyph glyph-name="uni2461" unicode="&#x2461;" horiz-adv-x="859" 
d="M324 165v26l152 195c19 24 27 42 27 70c0 40 -29 70 -75 70c-43 0 -75 -24 -76 -76h-27c1 30 9 54 27 72c17 19 43 30 76 30c30 0 56 -9 74 -27c18 -17 28 -42 28 -69c0 -33 -10 -55 -34 -86l-140 -179h175v-26h-207zM429 718c200 0 362 -162 362 -362
s-162 -362 -362 -362s-361 162 -361 362s161 362 361 362zM429 691c-183 0 -332 -151 -332 -335s149 -335 332 -335c184 0 333 151 333 335s-149 335 -333 335z" />
    <glyph glyph-name="uni2461" unicode="&#x2781;" horiz-adv-x="859" 
d="M324 165v26l152 195c19 24 27 42 27 70c0 40 -29 70 -75 70c-43 0 -75 -24 -76 -76h-27c1 30 9 54 27 72c17 19 43 30 76 30c30 0 56 -9 74 -27c18 -17 28 -42 28 -69c0 -33 -10 -55 -34 -86l-140 -179h175v-26h-207zM429 718c200 0 362 -162 362 -362
s-162 -362 -362 -362s-361 162 -361 362s161 362 361 362zM429 691c-183 0 -332 -151 -332 -335s149 -335 332 -335c184 0 333 151 333 335s-149 335 -333 335z" />
    <glyph glyph-name="uni2462" unicode="&#x2462;" horiz-adv-x="859" 
d="M428 161c-56 0 -108 33 -112 98h28c5 -48 45 -72 84 -72c48 0 83 31 83 83s-32 83 -84 83h-13v26h12c48 0 77 27 77 70c0 50 -32 77 -75 77c-42 0 -70 -26 -76 -68h-28c8 60 47 94 104 94c62 0 103 -40 103 -102c0 -40 -21 -69 -57 -83c42 -14 64 -49 64 -97
c0 -70 -47 -109 -110 -109zM429 718c200 0 362 -162 362 -362s-162 -362 -362 -362s-361 162 -361 362s161 362 361 362zM429 691c-183 0 -332 -151 -332 -335s149 -335 332 -335c184 0 333 151 333 335s-149 335 -333 335z" />
    <glyph glyph-name="uni2462" unicode="&#x2782;" horiz-adv-x="859" 
d="M428 161c-56 0 -108 33 -112 98h28c5 -48 45 -72 84 -72c48 0 83 31 83 83s-32 83 -84 83h-13v26h12c48 0 77 27 77 70c0 50 -32 77 -75 77c-42 0 -70 -26 -76 -68h-28c8 60 47 94 104 94c62 0 103 -40 103 -102c0 -40 -21 -69 -57 -83c42 -14 64 -49 64 -97
c0 -70 -47 -109 -110 -109zM429 718c200 0 362 -162 362 -362s-162 -362 -362 -362s-361 162 -361 362s161 362 361 362zM429 691c-183 0 -332 -151 -332 -335s149 -335 332 -335c184 0 333 151 333 335s-149 335 -333 335z" />
    <glyph glyph-name="uni2463" unicode="&#x2463;" horiz-adv-x="859" 
d="M472 165v62h-167v26l141 296h30l-142 -296h138v120h28v-120h52v-26h-52v-62h-28zM429 718c200 0 362 -162 362 -362s-162 -362 -362 -362s-361 162 -361 362s161 362 361 362zM429 691c-183 0 -332 -151 -332 -335s149 -335 332 -335c184 0 333 151 333 335
s-149 335 -333 335z" />
    <glyph glyph-name="uni2463" unicode="&#x2783;" horiz-adv-x="859" 
d="M472 165v62h-167v26l141 296h30l-142 -296h138v120h28v-120h52v-26h-52v-62h-28zM429 718c200 0 362 -162 362 -362s-162 -362 -362 -362s-361 162 -361 362s161 362 361 362zM429 691c-183 0 -332 -151 -332 -335s149 -335 332 -335c184 0 333 151 333 335
s-149 335 -333 335z" />
    <glyph glyph-name="uni2464" unicode="&#x2464;" horiz-adv-x="859" 
d="M428 161c-36 0 -59 9 -76 27c-16 16 -24 35 -26 61h28c5 -41 31 -62 74 -62c26 0 44 9 56 23c17 20 22 49 22 80c0 51 -11 102 -76 102c-37 0 -59 -14 -72 -45h-24v202h194v-26h-169v-139c17 22 41 33 72 33c30 0 54 -8 70 -24c28 -27 33 -71 33 -103
c0 -43 -8 -76 -32 -101c-18 -19 -42 -28 -74 -28zM429 718c200 0 362 -162 362 -362s-162 -362 -362 -362s-361 162 -361 362s161 362 361 362zM429 691c-183 0 -332 -151 -332 -335s149 -335 332 -335c184 0 333 151 333 335s-149 335 -333 335z" />
    <glyph glyph-name="uni2464" unicode="&#x2784;" horiz-adv-x="859" 
d="M428 161c-36 0 -59 9 -76 27c-16 16 -24 35 -26 61h28c5 -41 31 -62 74 -62c26 0 44 9 56 23c17 20 22 49 22 80c0 51 -11 102 -76 102c-37 0 -59 -14 -72 -45h-24v202h194v-26h-169v-139c17 22 41 33 72 33c30 0 54 -8 70 -24c28 -27 33 -71 33 -103
c0 -43 -8 -76 -32 -101c-18 -19 -42 -28 -74 -28zM429 718c200 0 362 -162 362 -362s-162 -362 -362 -362s-361 162 -361 362s161 362 361 362zM429 691c-183 0 -332 -151 -332 -335s149 -335 332 -335c184 0 333 151 333 335s-149 335 -333 335z" />
    <glyph glyph-name="uni2465" unicode="&#x2465;" horiz-adv-x="859" 
d="M423 161c-64 0 -101 45 -101 110c0 25 4 49 20 80l98 198h30l-91 -181c14 9 30 14 46 14c64 0 100 -47 100 -111s-37 -110 -102 -110zM423 188c46 0 75 32 75 83s-29 86 -75 86c-45 0 -74 -35 -74 -86c0 -52 29 -83 74 -83zM429 718c200 0 362 -162 362 -362
s-162 -362 -362 -362s-361 162 -361 362s161 362 361 362zM429 691c-183 0 -332 -151 -332 -335s149 -335 332 -335c184 0 333 151 333 335s-149 335 -333 335z" />
    <glyph glyph-name="uni2465" unicode="&#x2785;" horiz-adv-x="859" 
d="M423 161c-64 0 -101 45 -101 110c0 25 4 49 20 80l98 198h30l-91 -181c14 9 30 14 46 14c64 0 100 -47 100 -111s-37 -110 -102 -110zM423 188c46 0 75 32 75 83s-29 86 -75 86c-45 0 -74 -35 -74 -86c0 -52 29 -83 74 -83zM429 718c200 0 362 -162 362 -362
s-162 -362 -362 -362s-361 162 -361 362s161 362 361 362zM429 691c-183 0 -332 -151 -332 -335s149 -335 332 -335c184 0 333 151 333 335s-149 335 -333 335z" />
    <glyph glyph-name="uni2466" unicode="&#x2466;" horiz-adv-x="859" 
d="M371 165l134 359h-153v-63h-27v88h208v-25l-134 -359h-28zM429 718c200 0 362 -162 362 -362s-162 -362 -362 -362s-361 162 -361 362s161 362 361 362zM429 691c-183 0 -332 -151 -332 -335s149 -335 332 -335c184 0 333 151 333 335s-149 335 -333 335z" />
    <glyph glyph-name="uni2466" unicode="&#x2786;" horiz-adv-x="859" 
d="M371 165l134 359h-153v-63h-27v88h208v-25l-134 -359h-28zM429 718c200 0 362 -162 362 -362s-162 -362 -362 -362s-361 162 -361 362s161 362 361 362zM429 691c-183 0 -332 -151 -332 -335s149 -335 332 -335c184 0 333 151 333 335s-149 335 -333 335z" />
    <glyph glyph-name="uni2467" unicode="&#x2467;" horiz-adv-x="859" 
d="M429 161c-64 0 -111 46 -111 108c0 43 22 76 61 96c-36 18 -53 48 -53 87c0 58 42 100 103 100c60 0 103 -42 103 -100c0 -39 -17 -69 -54 -87c40 -20 61 -53 61 -96c0 -62 -46 -108 -110 -108zM429 187c48 0 83 35 83 82s-36 82 -83 82s-83 -35 -83 -82s35 -82 83 -82z
M429 377c44 0 75 30 75 74s-31 75 -75 75s-76 -31 -76 -75s32 -74 76 -74zM429 718c200 0 362 -162 362 -362s-162 -362 -362 -362s-361 162 -361 362s161 362 361 362zM429 691c-183 0 -332 -151 -332 -335s149 -335 332 -335c184 0 333 151 333 335s-149 335 -333 335z
" />
    <glyph glyph-name="uni2467" unicode="&#x2787;" horiz-adv-x="859" 
d="M429 161c-64 0 -111 46 -111 108c0 43 22 76 61 96c-36 18 -53 48 -53 87c0 58 42 100 103 100c60 0 103 -42 103 -100c0 -39 -17 -69 -54 -87c40 -20 61 -53 61 -96c0 -62 -46 -108 -110 -108zM429 187c48 0 83 35 83 82s-36 82 -83 82s-83 -35 -83 -82s35 -82 83 -82z
M429 377c44 0 75 30 75 74s-31 75 -75 75s-76 -31 -76 -75s32 -74 76 -74zM429 718c200 0 362 -162 362 -362s-162 -362 -362 -362s-361 162 -361 362s161 362 361 362zM429 691c-183 0 -332 -151 -332 -335s149 -335 332 -335c184 0 333 151 333 335s-149 335 -333 335z
" />
    <glyph glyph-name="uni2468" unicode="&#x2468;" horiz-adv-x="859" 
d="M385 165l91 181c-14 -9 -30 -14 -46 -14c-64 0 -100 47 -100 111s37 110 102 110c64 0 101 -45 101 -110c0 -25 -4 -49 -20 -80l-98 -198h-30zM432 357c45 0 74 35 74 86c0 52 -29 83 -74 83c-46 0 -75 -32 -75 -83s29 -86 75 -86zM429 718c200 0 362 -162 362 -362
s-162 -362 -362 -362s-361 162 -361 362s161 362 361 362zM429 691c-183 0 -332 -151 -332 -335s149 -335 332 -335c184 0 333 151 333 335s-149 335 -333 335z" />
    <glyph glyph-name="uni2468" unicode="&#x2788;" horiz-adv-x="859" 
d="M385 165l91 181c-14 -9 -30 -14 -46 -14c-64 0 -100 47 -100 111s37 110 102 110c64 0 101 -45 101 -110c0 -25 -4 -49 -20 -80l-98 -198h-30zM432 357c45 0 74 35 74 86c0 52 -29 83 -74 83c-46 0 -75 -32 -75 -83s29 -86 75 -86zM429 718c200 0 362 -162 362 -362
s-162 -362 -362 -362s-361 162 -361 362s161 362 361 362zM429 691c-183 0 -332 -151 -332 -335s149 -335 332 -335c184 0 333 151 333 335s-149 335 -333 335z" />
    <glyph glyph-name="uni2469" unicode="&#x2469;" horiz-adv-x="859" 
d="M522 161c-30 0 -53 8 -70 22c-22 18 -33 48 -33 82v183c0 34 11 64 33 82c17 14 40 22 70 22c29 0 52 -8 69 -22c22 -18 33 -48 33 -82v-183c0 -34 -11 -64 -33 -82c-17 -14 -40 -22 -69 -22zM522 186c52 0 76 33 76 82v177c0 49 -24 82 -76 82c-53 0 -77 -33 -77 -82
v-177c0 -49 24 -82 77 -82zM304 165v353l-70 -61v33l70 59h26v-384h-26zM429 718c200 0 362 -162 362 -362s-162 -362 -362 -362s-361 162 -361 362s161 362 361 362zM429 691c-183 0 -332 -151 -332 -335s149 -335 332 -335c184 0 333 151 333 335s-149 335 -333 335z" />
    <glyph glyph-name="uni2469" unicode="&#x2789;" horiz-adv-x="859" 
d="M522 161c-30 0 -53 8 -70 22c-22 18 -33 48 -33 82v183c0 34 11 64 33 82c17 14 40 22 70 22c29 0 52 -8 69 -22c22 -18 33 -48 33 -82v-183c0 -34 -11 -64 -33 -82c-17 -14 -40 -22 -69 -22zM522 186c52 0 76 33 76 82v177c0 49 -24 82 -76 82c-53 0 -77 -33 -77 -82
v-177c0 -49 24 -82 77 -82zM304 165v353l-70 -61v33l70 59h26v-384h-26zM429 718c200 0 362 -162 362 -362s-162 -362 -362 -362s-361 162 -361 362s161 362 361 362zM429 691c-183 0 -332 -151 -332 -335s149 -335 332 -335c184 0 333 151 333 335s-149 335 -333 335z" />
    <glyph glyph-name="uni246A" unicode="&#x246a;" horiz-adv-x="859" 
d="M521 165v353l-70 -62v33l70 60h26v-384h-26zM304 165v353l-70 -62v33l70 60h26v-384h-26zM429 718c200 0 362 -162 362 -362s-162 -362 -362 -362s-361 162 -361 362s161 362 361 362zM429 691c-183 0 -332 -151 -332 -335s149 -335 332 -335c184 0 333 151 333 335
s-149 335 -333 335z" />
    <glyph glyph-name="uni246B" unicode="&#x246b;" horiz-adv-x="859" 
d="M421 165v24l149 197c19 25 27 43 27 72c0 40 -29 69 -75 69c-42 0 -76 -22 -76 -73v-4h-26v4c0 27 10 51 28 69c17 18 42 29 74 29c30 0 55 -9 72 -26c18 -17 29 -42 29 -68c0 -33 -10 -55 -33 -85l-140 -183h173v-25h-202zM304 165v353l-70 -62v33l70 60h26v-384h-26z
M429 718c200 0 362 -162 362 -362s-162 -362 -362 -362s-361 162 -361 362s161 362 361 362zM429 691c-183 0 -332 -151 -332 -335s149 -335 332 -335c184 0 333 151 333 335s-149 335 -333 335z" />
    <glyph glyph-name="uni246C" unicode="&#x246c;" horiz-adv-x="859" 
d="M304 165v353l-70 -62v33l70 60h26v-384h-26zM520 161c-23 0 -45 5 -63 16c-27 17 -45 44 -47 80h26c5 -48 44 -71 84 -71c22 0 42 6 56 19c17 15 26 36 26 65c0 27 -7 48 -22 63s-35 21 -61 21h-14v25h13c30 0 53 10 65 29c8 11 12 25 12 42c0 28 -11 49 -27 62
c-13 10 -30 15 -48 15c-42 0 -71 -25 -76 -67h-27c4 30 16 53 34 69c17 15 41 23 69 23c26 0 48 -6 65 -20c22 -18 36 -45 36 -81c0 -20 -5 -37 -14 -51s-24 -26 -43 -33c14 -5 25 -11 35 -20c19 -18 29 -45 29 -77c0 -45 -18 -76 -47 -94c-17 -10 -38 -15 -61 -15zM429 718
c200 0 362 -162 362 -362s-162 -362 -362 -362s-361 162 -361 362s161 362 361 362zM429 691c-183 0 -332 -151 -332 -335s149 -335 332 -335c184 0 333 151 333 335s-149 335 -333 335z" />
    <glyph glyph-name="uni246D" unicode="&#x246d;" horiz-adv-x="859" 
d="M567 165v62h-164v25l139 297h28l-140 -297h137v120h26v-120h52v-25h-52v-62h-26zM304 165v353l-70 -62v33l70 60h26v-384h-26zM429 718c200 0 362 -162 362 -362s-162 -362 -362 -362s-361 162 -361 362s161 362 361 362zM429 691c-183 0 -332 -151 -332 -335
s149 -335 332 -335c184 0 333 151 333 335s-149 335 -333 335z" />
    <glyph glyph-name="uni246E" unicode="&#x246e;" horiz-adv-x="859" 
d="M519 161c-34 0 -56 10 -74 27c-15 14 -24 33 -25 60h25c6 -41 32 -62 74 -62c27 0 46 9 58 24c15 20 21 49 21 80c0 36 -6 72 -29 90c-12 9 -27 13 -47 13c-37 0 -60 -14 -72 -46h-22v202h189v-25h-166v-140c7 9 16 17 27 23c13 7 29 11 45 11c29 0 52 -9 68 -24
c28 -28 33 -70 33 -104c0 -44 -8 -77 -32 -101c-19 -19 -41 -28 -73 -28zM304 165v353l-70 -62v33l70 60h26v-384h-26zM429 718c200 0 362 -162 362 -362s-162 -362 -362 -362s-361 162 -361 362s161 362 361 362zM429 691c-183 0 -332 -151 -332 -335s149 -335 332 -335
c184 0 333 151 333 335s-149 335 -333 335z" />
    <glyph glyph-name="uni246F" unicode="&#x246f;" horiz-adv-x="859" 
d="M304 165v353l-70 -62v33l70 60h26v-384h-26zM523 161c-32 0 -56 11 -73 30c-18 20 -27 46 -27 79c0 26 4 50 19 79l99 200h27l-90 -182c14 10 30 14 47 14c29 0 53 -10 70 -28c19 -20 28 -48 28 -84c0 -30 -8 -56 -24 -75c-17 -20 -42 -33 -76 -33zM523 186
c24 0 43 9 56 25c11 15 18 34 18 59c0 26 -7 48 -20 63s-31 24 -54 24c-22 0 -42 -9 -54 -24s-20 -37 -20 -63c0 -24 6 -43 16 -58c12 -17 33 -26 58 -26zM429 718c200 0 362 -162 362 -362s-162 -362 -362 -362s-361 162 -361 362s161 362 361 362zM429 691
c-183 0 -332 -151 -332 -335s149 -335 332 -335c184 0 333 151 333 335s-149 335 -333 335z" />
    <glyph glyph-name="uni2470" unicode="&#x2470;" horiz-adv-x="859" 
d="M304 165v353l-70 -62v33l70 60h26v-384h-26zM458 165l133 360h-151v-61h-25v85h203v-23l-134 -361h-26zM429 718c200 0 362 -162 362 -362s-162 -362 -362 -362s-361 162 -361 362s161 362 361 362zM429 691c-183 0 -332 -151 -332 -335s149 -335 332 -335
c184 0 333 151 333 335s-149 335 -333 335z" />
    <glyph glyph-name="uni2471" unicode="&#x2471;" horiz-adv-x="859" 
d="M304 165v353l-70 -62v33l70 60h26v-384h-26zM521 161c-33 0 -61 13 -80 33s-29 46 -29 75s10 54 29 73c9 9 19 17 32 23c-17 9 -32 21 -40 35c-9 15 -13 33 -13 52c0 29 10 53 26 70c18 19 44 30 75 30c32 0 58 -11 75 -30c17 -17 27 -41 27 -70c0 -19 -5 -37 -14 -52
c-9 -14 -22 -26 -40 -35c13 -6 24 -14 33 -23c19 -19 28 -44 28 -73s-10 -55 -28 -75c-19 -20 -48 -33 -81 -33zM521 186c27 0 50 10 65 28c12 15 18 33 18 55c0 25 -10 48 -26 63c-14 13 -35 21 -57 21s-42 -8 -56 -21c-16 -15 -27 -38 -27 -63c0 -22 6 -41 18 -55
c15 -19 38 -28 65 -28zM521 377c29 0 52 13 65 34c7 12 11 26 11 41c0 22 -9 42 -22 55s-32 20 -54 20s-40 -7 -53 -20c-14 -13 -22 -33 -22 -55c0 -15 4 -29 11 -41c12 -21 36 -34 64 -34zM429 718c200 0 362 -162 362 -362s-162 -362 -362 -362s-361 162 -361 362
s161 362 361 362zM429 691c-183 0 -332 -151 -332 -335s149 -335 332 -335c184 0 333 151 333 335s-149 335 -333 335z" />
    <glyph glyph-name="uni2472" unicode="&#x2472;" horiz-adv-x="859" 
d="M429 718c200 0 362 -162 362 -362s-162 -362 -362 -362s-361 162 -361 362s161 362 361 362zM429 691c-183 0 -332 -151 -332 -335s149 -335 332 -335c184 0 333 151 333 335s-149 335 -333 335zM523 553c32 0 56 -11 73 -30c18 -20 27 -46 27 -79c0 -26 -4 -50 -19 -79
l-99 -200h-27l90 182c-14 -10 -30 -14 -47 -14c-29 0 -53 10 -70 28c-19 20 -28 48 -28 84c0 30 8 56 24 75c17 20 42 33 76 33zM523 528c-24 0 -43 -9 -56 -25c-11 -15 -18 -34 -18 -59c0 -26 7 -48 20 -63s31 -24 54 -24c22 0 42 9 54 24s20 37 20 63c0 24 -6 43 -16 58
c-12 17 -33 26 -58 26zM304 165v353l-70 -62v33l70 60h26v-384h-26z" />
    <glyph glyph-name="uni2473" unicode="&#x2473;" horiz-adv-x="859" 
d="M551 161c-30 0 -53 8 -70 22c-22 18 -33 48 -33 82v183c0 34 11 64 33 82c17 14 40 22 70 22c29 0 52 -8 69 -22c22 -18 33 -48 33 -82v-183c0 -34 -11 -64 -33 -82c-17 -14 -40 -22 -69 -22zM551 186c52 0 76 33 76 82v177c0 49 -24 82 -76 82c-53 0 -77 -33 -77 -82
v-177c0 -49 24 -82 77 -82zM207 165v24l149 197c19 25 27 43 27 72c0 40 -29 69 -75 69c-42 0 -76 -22 -76 -73v-4h-26v4c0 27 10 51 28 69c17 18 42 29 74 29c30 0 55 -9 72 -26c18 -17 29 -42 29 -68c0 -33 -10 -55 -33 -85l-140 -183h173v-25h-202zM429 718
c200 0 362 -162 362 -362s-162 -362 -362 -362s-361 162 -361 362s161 362 361 362zM429 691c-183 0 -332 -151 -332 -335s149 -335 332 -335c184 0 333 151 333 335s-149 335 -333 335z" />
    <glyph glyph-name="uni24EA" unicode="&#x24ea;" horiz-adv-x="859" 
d="M429 161c-68 0 -104 44 -104 106v179c0 62 36 106 104 106s104 -44 104 -106v-179c0 -62 -36 -106 -104 -106zM429 187c52 0 76 34 76 82v175c0 48 -24 82 -76 82s-76 -34 -76 -82v-175c0 -48 24 -82 76 -82zM429 718c200 0 362 -162 362 -362s-162 -362 -362 -362
s-361 162 -361 362s161 362 361 362zM429 691c-183 0 -332 -151 -332 -335s149 -335 332 -335c184 0 333 151 333 335s-149 335 -333 335z" />
    <glyph glyph-name="uni24EB" unicode="&#x24eb;" horiz-adv-x="859" 
d="M521 518v-353h26v384h-26l-70 -60v-33zM304 518v-353h26v384h-26l-70 -60v-33zM429 718c200 0 362 -162 362 -362s-162 -362 -362 -362s-361 162 -361 362s161 362 361 362z" />
    <glyph glyph-name="uni24EC" unicode="&#x24ec;" horiz-adv-x="859" 
d="M421 189v-24h202v25h-173l140 183c23 30 33 52 33 85c0 26 -11 51 -29 68c-17 17 -42 26 -72 26c-32 0 -57 -11 -74 -29c-18 -18 -28 -42 -28 -69v-4h26v4c0 51 34 73 76 73c46 0 75 -29 75 -69c0 -29 -8 -47 -27 -72zM304 518v-353h26v384h-26l-70 -60v-33zM429 718
c200 0 362 -162 362 -362s-162 -362 -362 -362s-361 162 -361 362s161 362 361 362z" />
    <glyph glyph-name="uni24ED" unicode="&#x24ed;" horiz-adv-x="859" 
d="M304 518v-353h26v384h-26l-70 -60v-33zM520 161c23 0 44 5 61 15c29 18 47 49 47 94c0 32 -10 59 -29 77c-10 9 -21 15 -35 20c19 7 34 19 43 33s14 31 14 51c0 36 -14 63 -36 81c-17 14 -39 20 -65 20c-28 0 -52 -8 -69 -23c-18 -16 -30 -39 -34 -69h27
c5 42 34 67 76 67c18 0 35 -5 48 -15c16 -13 27 -34 27 -62c0 -17 -4 -31 -12 -42c-12 -19 -35 -29 -65 -29h-13v-25h14c26 0 46 -6 61 -21s22 -36 22 -63c0 -29 -9 -50 -26 -65c-14 -13 -34 -19 -56 -19c-40 0 -79 23 -84 71h-26c2 -36 20 -63 47 -80c18 -11 40 -16 63 -16
zM429 718c200 0 362 -162 362 -362s-162 -362 -362 -362s-361 162 -361 362s161 362 361 362z" />
    <glyph glyph-name="uni24EE" unicode="&#x24ee;" horiz-adv-x="859" 
d="M567 227v-62h26v62h52v25h-52v120h-26v-120h-137l140 297h-28l-139 -297v-25h164zM304 518v-353h26v384h-26l-70 -60v-33zM429 718c200 0 362 -162 362 -362s-162 -362 -362 -362s-361 162 -361 362s161 362 361 362z" />
    <glyph glyph-name="uni24EF" unicode="&#x24ef;" horiz-adv-x="859" 
d="M519 161c32 0 54 9 73 28c24 24 32 57 32 101c0 34 -5 76 -33 104c-16 15 -39 24 -68 24c-16 0 -32 -4 -45 -11c-11 -6 -20 -14 -27 -23v140h166v25h-189v-202h22c12 32 35 46 72 46c20 0 35 -4 47 -13c23 -18 29 -54 29 -90c0 -31 -6 -60 -21 -80
c-12 -15 -31 -24 -58 -24c-42 0 -68 21 -74 62h-25c1 -27 10 -46 25 -60c18 -17 40 -27 74 -27zM304 518v-353h26v384h-26l-70 -60v-33zM429 718c200 0 362 -162 362 -362s-162 -362 -362 -362s-361 162 -361 362s161 362 361 362z" />
    <glyph glyph-name="uni24F0" unicode="&#x24f0;" horiz-adv-x="859" 
d="M304 518v-353h26v384h-26l-70 -60v-33zM523 161c34 0 59 13 76 33c16 19 24 45 24 75c0 36 -9 64 -28 84c-17 18 -41 28 -70 28c-17 0 -33 -4 -47 -14l90 182h-27l-99 -200c-15 -29 -19 -53 -19 -79c0 -33 9 -59 27 -79c17 -19 41 -30 73 -30zM523 186
c-25 0 -46 9 -58 26c-10 15 -16 34 -16 58c0 26 8 48 20 63s32 24 54 24c23 0 41 -9 54 -24s20 -37 20 -63c0 -25 -7 -44 -18 -59c-13 -16 -32 -25 -56 -25zM429 718c200 0 362 -162 362 -362s-162 -362 -362 -362s-361 162 -361 362s161 362 361 362z" />
    <glyph glyph-name="uni24F1" unicode="&#x24f1;" horiz-adv-x="859" 
d="M304 518v-353h26v384h-26l-70 -60v-33zM591 525l-133 -360h26l134 361v23h-203v-85h25v61h151zM429 718c200 0 362 -162 362 -362s-162 -362 -362 -362s-361 162 -361 362s161 362 361 362z" />
    <glyph glyph-name="uni24F2" unicode="&#x24f2;" horiz-adv-x="859" 
d="M304 518v-353h26v384h-26l-70 -60v-33zM521 161c33 0 62 13 81 33c18 20 28 46 28 75s-9 54 -28 73c-9 9 -20 17 -33 23c18 9 31 21 40 35c9 15 14 33 14 52c0 29 -10 53 -27 70c-17 19 -43 30 -75 30c-31 0 -57 -11 -75 -30c-16 -17 -26 -41 -26 -70c0 -19 4 -37 13 -52
c8 -14 23 -26 40 -35c-13 -6 -23 -14 -32 -23c-19 -19 -29 -44 -29 -73s10 -55 29 -75s47 -33 80 -33zM521 186c-27 0 -50 9 -65 28c-12 14 -18 33 -18 55c0 25 11 48 27 63c14 13 34 21 56 21s43 -8 57 -21c16 -15 26 -38 26 -63c0 -22 -6 -40 -18 -55
c-15 -18 -38 -28 -65 -28zM521 377c-28 0 -52 13 -64 34c-7 12 -11 26 -11 41c0 22 8 42 22 55c13 13 31 20 53 20s41 -7 54 -20s22 -33 22 -55c0 -15 -4 -29 -11 -41c-13 -21 -36 -34 -65 -34zM429 718c200 0 362 -162 362 -362s-162 -362 -362 -362s-361 162 -361 362
s161 362 361 362z" />
    <glyph glyph-name="uni24F3" unicode="&#x24f3;" horiz-adv-x="859" 
d="M429 718c200 0 362 -162 362 -362s-162 -362 -362 -362s-361 162 -361 362s161 362 361 362zM523 553c-34 0 -59 -13 -76 -33c-16 -19 -24 -45 -24 -75c0 -36 9 -64 28 -84c17 -18 41 -28 70 -28c17 0 33 4 47 14l-90 -182h27l99 200c15 29 19 53 19 79
c0 33 -9 59 -27 79c-17 19 -41 30 -73 30zM523 528c25 0 46 -9 58 -26c10 -15 16 -34 16 -58c0 -26 -8 -48 -20 -63s-32 -24 -54 -24c-23 0 -41 9 -54 24s-20 37 -20 63c0 25 7 44 18 59c13 16 32 25 56 25zM304 518v-353h26v384h-26l-70 -60v-33z" />
    <glyph glyph-name="uni24F4" unicode="&#x24f4;" horiz-adv-x="859" 
d="M551 161c29 0 52 8 69 22c22 18 33 48 33 82v183c0 34 -11 64 -33 82c-17 14 -40 22 -69 22c-30 0 -53 -8 -70 -22c-22 -18 -33 -48 -33 -82v-183c0 -34 11 -64 33 -82c17 -14 40 -22 70 -22zM551 186c-53 0 -77 33 -77 82v177c0 49 24 82 77 82c52 0 76 -33 76 -82v-177
c0 -49 -24 -82 -76 -82zM207 189v-24h202v25h-173l140 183c23 30 33 52 33 85c0 26 -11 51 -29 68c-17 17 -42 26 -72 26c-32 0 -57 -11 -74 -29c-18 -18 -28 -42 -28 -69v-4h26v4c0 51 34 73 76 73c46 0 75 -29 75 -69c0 -29 -8 -47 -27 -72zM429 718
c200 0 362 -162 362 -362s-162 -362 -362 -362s-361 162 -361 362s161 362 361 362z" />
    <glyph glyph-name="uni24FF" unicode="&#x24ff;" horiz-adv-x="859" 
d="M430 161c68 0 104 44 104 106v179c0 62 -36 106 -104 106s-104 -44 -104 -106v-179c0 -62 36 -106 104 -106zM430 187c-52 0 -76 34 -76 82v175c0 48 24 82 76 82s76 -34 76 -82v-175c0 -48 -24 -82 -76 -82zM429 718c200 0 362 -162 362 -362s-162 -362 -362 -362
s-361 162 -361 362s161 362 361 362z" />
    <glyph glyph-name="filledbox" unicode="&#x25a0;" horiz-adv-x="1000" 
d="M856 712v-712h-712v712h712z" />
    <glyph glyph-name="uni25A1" unicode="&#x25a1;" horiz-adv-x="1000" 
d="M856 712v-712h-712v712h712zM815 675h-631v-638h631v638z" />
    <glyph glyph-name="lozenge" unicode="&#x25ca;" horiz-adv-x="658" 
d="M329 718l254 -362l-254 -362l-254 362zM329 663l-213 -307l213 -308l213 308z" />
    <glyph glyph-name="circle" unicode="&#x25cb;" horiz-adv-x="859" 
d="M429 718c200 0 362 -162 362 -362s-162 -362 -362 -362s-361 162 -361 362s161 362 361 362zM429 691c-183 0 -332 -151 -332 -335s149 -335 332 -335c184 0 333 151 333 335s-149 335 -333 335z" />
    <glyph glyph-name="uni25CF" unicode="&#x25cf;" horiz-adv-x="859" 
d="M429 718c200 0 362 -162 362 -362s-162 -362 -362 -362s-361 162 -361 362s161 362 361 362z" />
    <glyph glyph-name="uni278A" unicode="&#x2776;" horiz-adv-x="859" 
d="M420 165h28v384h-28l-73 -61v-36l73 63v-350zM429 718c200 0 362 -162 362 -362s-162 -362 -362 -362s-361 162 -361 362s161 362 361 362z" />
    <glyph glyph-name="uni278A" unicode="&#x278a;" horiz-adv-x="859" 
d="M420 165h28v384h-28l-73 -61v-36l73 63v-350zM429 718c200 0 362 -162 362 -362s-162 -362 -362 -362s-361 162 -361 362s161 362 361 362z" />
    <glyph glyph-name="uni278B" unicode="&#x2777;" horiz-adv-x="859" 
d="M324 165h207v26h-175l140 179c24 31 34 53 34 86c0 27 -10 52 -28 69c-18 18 -44 27 -74 27c-33 0 -59 -11 -76 -30c-18 -18 -26 -42 -27 -72h27c1 52 33 76 76 76c46 0 75 -30 75 -70c0 -28 -8 -46 -27 -70l-152 -195v-26zM429 718c200 0 362 -162 362 -362
s-162 -362 -362 -362s-361 162 -361 362s161 362 361 362z" />
    <glyph glyph-name="uni278B" unicode="&#x278b;" horiz-adv-x="859" 
d="M324 165h207v26h-175l140 179c24 31 34 53 34 86c0 27 -10 52 -28 69c-18 18 -44 27 -74 27c-33 0 -59 -11 -76 -30c-18 -18 -26 -42 -27 -72h27c1 52 33 76 76 76c46 0 75 -30 75 -70c0 -28 -8 -46 -27 -70l-152 -195v-26zM429 718c200 0 362 -162 362 -362
s-162 -362 -362 -362s-361 162 -361 362s161 362 361 362z" />
    <glyph glyph-name="uni278C" unicode="&#x2778;" horiz-adv-x="859" 
d="M431 161c63 0 110 39 110 109c0 48 -22 83 -64 97c36 14 57 43 57 83c0 62 -41 102 -103 102c-57 0 -96 -34 -104 -94h28c6 42 34 68 76 68c43 0 75 -27 75 -77c0 -43 -29 -70 -77 -70h-12v-26h13c52 0 84 -31 84 -83s-35 -83 -83 -83c-39 0 -79 24 -84 72h-28
c4 -65 56 -98 112 -98zM429 718c200 0 362 -162 362 -362s-162 -362 -362 -362s-361 162 -361 362s161 362 361 362z" />
    <glyph glyph-name="uni278C" unicode="&#x278c;" horiz-adv-x="859" 
d="M431 161c63 0 110 39 110 109c0 48 -22 83 -64 97c36 14 57 43 57 83c0 62 -41 102 -103 102c-57 0 -96 -34 -104 -94h28c6 42 34 68 76 68c43 0 75 -27 75 -77c0 -43 -29 -70 -77 -70h-12v-26h13c52 0 84 -31 84 -83s-35 -83 -83 -83c-39 0 -79 24 -84 72h-28
c4 -65 56 -98 112 -98zM429 718c200 0 362 -162 362 -362s-162 -362 -362 -362s-361 162 -361 362s161 362 361 362z" />
    <glyph glyph-name="uni278D" unicode="&#x2779;" horiz-adv-x="859" 
d="M474 165h28v62h52v26h-52v120h-28v-120h-138l142 296h-30l-141 -296v-26h167v-62zM429 718c200 0 362 -162 362 -362s-162 -362 -362 -362s-361 162 -361 362s161 362 361 362z" />
    <glyph glyph-name="uni278D" unicode="&#x278d;" horiz-adv-x="859" 
d="M474 165h28v62h52v26h-52v120h-28v-120h-138l142 296h-30l-141 -296v-26h167v-62zM429 718c200 0 362 -162 362 -362s-162 -362 -362 -362s-361 162 -361 362s161 362 361 362z" />
    <glyph glyph-name="uni278E" unicode="&#x277a;" horiz-adv-x="859" 
d="M428 161c32 0 56 9 74 28c24 25 32 58 32 101c0 32 -5 76 -33 103c-16 16 -40 24 -70 24c-31 0 -55 -11 -72 -33v139h169v26h-194v-202h24c13 31 35 45 72 45c65 0 76 -51 76 -102c0 -31 -5 -60 -22 -80c-12 -14 -30 -23 -56 -23c-43 0 -69 21 -74 62h-28
c2 -26 10 -45 26 -61c17 -18 40 -27 76 -27zM429 718c200 0 362 -162 362 -362s-162 -362 -362 -362s-361 162 -361 362s161 362 361 362z" />
    <glyph glyph-name="uni278E" unicode="&#x278e;" horiz-adv-x="859" 
d="M428 161c32 0 56 9 74 28c24 25 32 58 32 101c0 32 -5 76 -33 103c-16 16 -40 24 -70 24c-31 0 -55 -11 -72 -33v139h169v26h-194v-202h24c13 31 35 45 72 45c65 0 76 -51 76 -102c0 -31 -5 -60 -22 -80c-12 -14 -30 -23 -56 -23c-43 0 -69 21 -74 62h-28
c2 -26 10 -45 26 -61c17 -18 40 -27 76 -27zM429 718c200 0 362 -162 362 -362s-162 -362 -362 -362s-361 162 -361 362s161 362 361 362z" />
    <glyph glyph-name="uni278F" unicode="&#x277b;" horiz-adv-x="859" 
d="M426 188c-45 0 -74 31 -74 83c0 51 29 86 74 86c46 0 75 -35 75 -86s-29 -83 -75 -83zM426 161c65 0 102 46 102 110s-36 111 -100 111c-16 0 -32 -5 -46 -14l91 181h-30l-98 -198c-16 -31 -20 -55 -20 -80c0 -65 37 -110 101 -110zM429 718c200 0 362 -162 362 -362
s-162 -362 -362 -362s-361 162 -361 362s161 362 361 362z" />
    <glyph glyph-name="uni278F" unicode="&#x278f;" horiz-adv-x="859" 
d="M426 188c-45 0 -74 31 -74 83c0 51 29 86 74 86c46 0 75 -35 75 -86s-29 -83 -75 -83zM426 161c65 0 102 46 102 110s-36 111 -100 111c-16 0 -32 -5 -46 -14l91 181h-30l-98 -198c-16 -31 -20 -55 -20 -80c0 -65 37 -110 101 -110zM429 718c200 0 362 -162 362 -362
s-162 -362 -362 -362s-361 162 -361 362s161 362 361 362z" />
    <glyph glyph-name="uni2790" unicode="&#x277c;" horiz-adv-x="859" 
d="M371 165h28l134 359v25h-208v-88h27v62h153zM429 718c200 0 362 -162 362 -362s-162 -362 -362 -362s-361 162 -361 362s161 362 361 362z" />
    <glyph glyph-name="uni2790" unicode="&#x2790;" horiz-adv-x="859" 
d="M371 165h28l134 359v25h-208v-88h27v62h153zM429 718c200 0 362 -162 362 -362s-162 -362 -362 -362s-361 162 -361 362s161 362 361 362z" />
    <glyph glyph-name="uni2791" unicode="&#x277d;" horiz-adv-x="859" 
d="M431 187c-48 0 -83 35 -83 82s36 82 83 82s83 -35 83 -82s-35 -82 -83 -82zM431 161c64 0 110 46 110 108c0 43 -21 76 -61 96c37 18 54 48 54 87c0 58 -43 100 -103 100c-61 0 -103 -42 -103 -100c0 -39 17 -69 53 -87c-39 -20 -61 -53 -61 -96c0 -62 47 -108 111 -108z
M431 377c-44 0 -76 30 -76 74s32 75 76 75s75 -31 75 -75s-31 -74 -75 -74zM429 718c200 0 362 -162 362 -362s-162 -362 -362 -362s-361 162 -361 362s161 362 361 362z" />
    <glyph glyph-name="uni2791" unicode="&#x2791;" horiz-adv-x="859" 
d="M431 187c-48 0 -83 35 -83 82s36 82 83 82s83 -35 83 -82s-35 -82 -83 -82zM431 161c64 0 110 46 110 108c0 43 -21 76 -61 96c37 18 54 48 54 87c0 58 -43 100 -103 100c-61 0 -103 -42 -103 -100c0 -39 17 -69 53 -87c-39 -20 -61 -53 -61 -96c0 -62 47 -108 111 -108z
M431 377c-44 0 -76 30 -76 74s32 75 76 75s75 -31 75 -75s-31 -74 -75 -74zM429 718c200 0 362 -162 362 -362s-162 -362 -362 -362s-361 162 -361 362s161 362 361 362z" />
    <glyph glyph-name="uni2792" unicode="&#x277e;" horiz-adv-x="859" 
d="M386 165h28l98 200c15 29 19 53 19 79c0 33 -9 59 -26 79c-17 19 -41 30 -73 30c-34 0 -60 -13 -77 -33c-16 -19 -24 -45 -24 -75c0 -36 10 -64 29 -84c16 -18 40 -28 70 -28c16 0 33 4 46 14zM432 357c-23 0 -42 9 -55 24c-12 15 -20 37 -20 63c0 25 7 45 18 59
c12 17 33 25 57 25c25 0 44 -9 57 -26c11 -15 16 -34 16 -58c0 -26 -7 -48 -20 -63c-12 -15 -31 -24 -53 -24zM429 718c200 0 362 -162 362 -362s-162 -362 -362 -362s-361 162 -361 362s161 362 361 362z" />
    <glyph glyph-name="uni2792" unicode="&#x2792;" horiz-adv-x="859" 
d="M386 165h28l98 200c15 29 19 53 19 79c0 33 -9 59 -26 79c-17 19 -41 30 -73 30c-34 0 -60 -13 -77 -33c-16 -19 -24 -45 -24 -75c0 -36 10 -64 29 -84c16 -18 40 -28 70 -28c16 0 33 4 46 14zM432 357c-23 0 -42 9 -55 24c-12 15 -20 37 -20 63c0 25 7 45 18 59
c12 17 33 25 57 25c25 0 44 -9 57 -26c11 -15 16 -34 16 -58c0 -26 -7 -48 -20 -63c-12 -15 -31 -24 -53 -24zM429 718c200 0 362 -162 362 -362s-162 -362 -362 -362s-361 162 -361 362s161 362 361 362z" />
    <glyph glyph-name="uni2793" unicode="&#x277f;" horiz-adv-x="859" 
d="M522 161c29 0 52 8 69 22c22 18 33 48 33 82v183c0 34 -11 64 -33 82c-17 14 -40 22 -69 22c-30 0 -53 -8 -70 -22c-22 -18 -33 -48 -33 -82v-183c0 -34 11 -64 33 -82c17 -14 40 -22 70 -22zM522 186c-53 0 -77 33 -77 82v177c0 49 24 82 77 82c52 0 76 -33 76 -82v-177
c0 -49 -24 -82 -76 -82zM304 518v-353h26v384h-26l-70 -59v-33zM429 718c200 0 362 -162 362 -362s-162 -362 -362 -362s-361 162 -361 362s161 362 361 362z" />
    <glyph glyph-name="uni2793" unicode="&#x2793;" horiz-adv-x="859" 
d="M522 161c29 0 52 8 69 22c22 18 33 48 33 82v183c0 34 -11 64 -33 82c-17 14 -40 22 -69 22c-30 0 -53 -8 -70 -22c-22 -18 -33 -48 -33 -82v-183c0 -34 11 -64 33 -82c17 -14 40 -22 70 -22zM522 186c-53 0 -77 33 -77 82v177c0 49 24 82 77 82c52 0 76 -33 76 -82v-177
c0 -49 -24 -82 -76 -82zM304 518v-353h26v384h-26l-70 -59v-33zM429 718c200 0 362 -162 362 -362s-162 -362 -362 -362s-361 162 -361 362s161 362 361 362z" />
    <glyph glyph-name="fi" unicode="&#xfb01;" horiz-adv-x="535" 
d="M264 712v-33h-44c-47 0 -68 -28 -68 -73v-130h112v-29h-112v-447h-36v447h-68v29h68v130c0 64 36 106 98 106h50zM434 476v-476h-36v476h36zM437 712v-77h-43v77h43z" />
    <glyph glyph-name="fl" unicode="&#xfb02;" horiz-adv-x="571" 
d="M264 712v-33h-44c-47 0 -68 -28 -68 -73v-130h112v-29h-112v-447h-36v447h-68v29h68v130c0 64 36 106 98 106h50zM427 712v-605c0 -47 18 -74 68 -74h44v-33h-51c-63 0 -97 40 -97 105v607h36z" />
    <glyph glyph-name="onequarter.afrc" horiz-adv-x="338" 
d="M45 344v25h248v-25h-248zM177 0v46h-112v25l102 211h26l-102 -211h86v83h26v-83h30v-25h-30v-46h-26zM156 430v251l-58 -50v32l58 49h27v-282h-27z" />
    <glyph glyph-name="onehalf.afrc" horiz-adv-x="338" 
d="M93 0v25l108 136c14 18 18 33 18 51c0 26 -17 49 -50 49c-28 0 -47 -18 -50 -51h-26c4 45 34 75 76 75c47 0 76 -34 76 -73c0 -23 -7 -42 -26 -65l-97 -122h114v-25h-143zM156 430v251l-58 -50v32l58 49h27v-282h-27zM45 344v25h248v-25h-248z" />
    <glyph glyph-name="threequarters.afrc" horiz-adv-x="338" 
d="M45 344v25h248v-25h-248zM168 427c-41 0 -76 27 -81 71h26c3 -27 27 -46 55 -46c32 0 57 21 57 57s-29 56 -58 56h-9v23h9c27 0 51 19 51 51c0 34 -21 51 -50 51c-27 0 -45 -18 -50 -44h-26c7 42 33 69 76 69c42 0 76 -28 76 -75c0 -30 -15 -52 -40 -63
c28 -11 47 -37 47 -70c0 -47 -37 -80 -83 -80zM177 0v46h-112v25l102 211h26l-102 -211h86v83h26v-83h30v-25h-30v-46h-26z" />
    <glyph glyph-name="fraction.afrc" horiz-adv-x="338" 
d="M45 344v25h248v-25h-248z" />
    <glyph glyph-name="uni2150.afrc" horiz-adv-x="338" 
d="M45 344v25h248v-25h-248zM120 0l100 259h-101v-41h-26v64h152v-23l-99 -259h-26zM156 430v251l-58 -50v32l58 49h27v-282h-27z" />
    <glyph glyph-name="uni2151.afrc" horiz-adv-x="338" 
d="M45 344v25h248v-25h-248zM137 0l62 126c-8 -6 -18 -10 -31 -10c-46 0 -78 33 -78 84s33 85 80 85s79 -34 79 -85c0 -19 -2 -36 -16 -64l-68 -136h-28zM170 140c34 0 53 21 53 60c0 38 -19 60 -53 60s-53 -22 -53 -60c0 -39 19 -60 53 -60zM156 430v251l-58 -50v32l58 49
h27v-282h-27z" />
    <glyph glyph-name="uni2152.afrc" horiz-adv-x="469" 
d="M45 344v25h379v-25h-379zM140 0v251l-58 -50v32l58 49h27v-282h-27zM312 -4c-51 1 -80 39 -80 80v128c0 41 29 79 80 79s80 -38 80 -79v-128c0 -41 -29 -79 -80 -80zM312 22c36 0 53 24 53 56v124c0 32 -17 56 -53 56c-35 0 -53 -24 -53 -56v-124c0 -32 18 -56 53 -56z
M219 430v251l-58 -50v32l58 49h27v-282h-27z" />
    <glyph glyph-name="onethird.afrc" horiz-adv-x="338" 
d="M45 344v25h248v-25h-248zM168 -3c-41 0 -76 27 -81 71h26c3 -27 27 -46 55 -46c32 0 57 21 57 57s-29 56 -58 56h-9v23h9c27 0 51 19 51 51c0 34 -21 51 -50 51c-27 0 -45 -18 -50 -44h-26c7 42 33 69 76 69c42 0 76 -28 76 -75c0 -30 -15 -52 -40 -63
c28 -11 47 -37 47 -70c0 -47 -37 -80 -83 -80zM156 430v251l-58 -50v32l58 49h27v-282h-27z" />
    <glyph glyph-name="twothirds.afrc" horiz-adv-x="338" 
d="M45 344v25h248v-25h-248zM93 430v25l108 136c14 18 18 33 18 51c0 26 -17 49 -50 49c-28 0 -47 -18 -50 -51h-26c4 45 34 75 76 75c47 0 76 -34 76 -73c0 -23 -7 -42 -26 -65l-97 -122h114v-25h-143zM168 -3c-41 0 -76 27 -81 71h26c3 -27 27 -46 55 -46
c32 0 57 21 57 57s-29 56 -58 56h-9v23h9c27 0 51 19 51 51c0 34 -21 51 -50 51c-27 0 -45 -18 -50 -44h-26c7 42 33 69 76 69c42 0 76 -28 76 -75c0 -30 -15 -52 -40 -63c28 -11 47 -37 47 -70c0 -47 -37 -80 -83 -80z" />
    <glyph glyph-name="uni2155.afrc" horiz-adv-x="338" 
d="M45 344v25h248v-25h-248zM168 -4c-25 0 -44 7 -57 18c-10 9 -19 23 -21 43h27c4 -23 19 -36 51 -36c35 0 53 24 53 71c0 50 -15 70 -51 70c-26 0 -41 -9 -56 -36h-20v156h140v-25h-118v-97c16 18 34 26 55 26c23 0 39 -6 53 -20c17 -16 24 -40 24 -74
c0 -33 -8 -57 -24 -74c-14 -15 -34 -22 -56 -22zM156 430v251l-58 -50v32l58 49h27v-282h-27z" />
    <glyph glyph-name="uni2156.afrc" horiz-adv-x="338" 
d="M45 344v25h248v-25h-248zM93 430v25l108 136c14 18 18 33 18 51c0 26 -17 49 -50 49c-28 0 -47 -18 -50 -51h-26c4 45 34 75 76 75c47 0 76 -34 76 -73c0 -23 -7 -42 -26 -65l-97 -122h114v-25h-143zM168 -4c-25 0 -44 7 -57 18c-10 9 -19 23 -21 43h27
c4 -23 19 -36 51 -36c35 0 53 24 53 71c0 50 -15 70 -51 70c-26 0 -41 -9 -56 -36h-20v156h140v-25h-118v-97c16 18 34 26 55 26c23 0 39 -6 53 -20c17 -16 24 -40 24 -74c0 -33 -8 -57 -24 -74c-14 -15 -34 -22 -56 -22z" />
    <glyph glyph-name="uni2157.afrc" horiz-adv-x="338" 
d="M45 344v25h248v-25h-248zM168 427c-41 0 -76 27 -81 71h26c3 -27 27 -46 55 -46c32 0 57 21 57 57s-29 56 -58 56h-9v23h9c27 0 51 19 51 51c0 34 -21 51 -50 51c-27 0 -45 -18 -50 -44h-26c7 42 33 69 76 69c42 0 76 -28 76 -75c0 -30 -15 -52 -40 -63
c28 -11 47 -37 47 -70c0 -47 -37 -80 -83 -80zM168 -4c-25 0 -44 7 -57 18c-10 9 -19 23 -21 43h27c4 -23 19 -36 51 -36c35 0 53 24 53 71c0 50 -15 70 -51 70c-26 0 -41 -9 -56 -36h-20v156h140v-25h-118v-97c16 18 34 26 55 26c23 0 39 -6 53 -20c17 -16 24 -40 24 -74
c0 -33 -8 -57 -24 -74c-14 -15 -34 -22 -56 -22z" />
    <glyph glyph-name="uni2158.afrc" horiz-adv-x="338" 
d="M45 344v25h248v-25h-248zM177 430v46h-112v25l102 211h26l-102 -211h86v83h26v-83h30v-25h-30v-46h-26zM168 -4c-25 0 -44 7 -57 18c-10 9 -19 23 -21 43h27c4 -23 19 -36 51 -36c35 0 53 24 53 71c0 50 -15 70 -51 70c-26 0 -41 -9 -56 -36h-20v156h140v-25h-118v-97
c16 18 34 26 55 26c23 0 39 -6 53 -20c17 -16 24 -40 24 -74c0 -33 -8 -57 -24 -74c-14 -15 -34 -22 -56 -22z" />
    <glyph glyph-name="uni2159.afrc" horiz-adv-x="338" 
d="M45 344v25h248v-25h-248zM169 -3c-47 0 -79 34 -79 85c0 19 2 36 16 64l68 136h28l-62 -126c8 6 18 10 31 10c46 0 78 -33 78 -84s-33 -85 -80 -85zM169 22c34 0 53 22 53 60c0 39 -19 60 -53 60s-53 -21 -53 -60c0 -38 19 -60 53 -60zM156 430v251l-58 -50v32l58 49h27
v-282h-27z" />
    <glyph glyph-name="uni215A.afrc" horiz-adv-x="338" 
d="M45 344v25h248v-25h-248zM168 426c-25 0 -44 7 -57 18c-10 9 -19 23 -21 43h27c4 -23 19 -36 51 -36c35 0 53 24 53 71c0 50 -15 70 -51 70c-26 0 -41 -9 -56 -36h-20v156h140v-25h-118v-97c16 18 34 26 55 26c23 0 39 -6 53 -20c17 -16 24 -40 24 -74
c0 -33 -8 -57 -24 -74c-14 -15 -34 -22 -56 -22zM169 -3c-47 0 -79 34 -79 85c0 19 2 36 16 64l68 136h28l-62 -126c8 6 18 10 31 10c46 0 78 -33 78 -84s-33 -85 -80 -85zM169 22c34 0 53 22 53 60c0 39 -19 60 -53 60s-53 -21 -53 -60c0 -38 19 -60 53 -60z" />
    <glyph glyph-name="oneeighth.afrc" horiz-adv-x="338" 
d="M45 344v25h248v-25h-248zM169 -4c-46 0 -84 36 -84 81c0 29 15 56 48 70c-30 14 -42 38 -42 64c0 43 36 75 78 75c43 0 78 -32 78 -75c0 -26 -12 -50 -41 -64c32 -14 47 -41 47 -70c0 -45 -38 -81 -84 -81zM169 20c32 0 58 25 58 57c0 33 -26 58 -58 58
c-31 0 -57 -25 -57 -58c0 -32 26 -57 57 -57zM169 159c29 0 52 22 52 51c0 30 -23 52 -52 52c-28 0 -52 -22 -52 -52c0 -29 24 -51 52 -51zM156 430v251l-58 -50v32l58 49h27v-282h-27z" />
    <glyph glyph-name="threeeighths.afrc" horiz-adv-x="338" 
d="M45 344v25h248v-25h-248zM168 426c-41 0 -76 27 -81 71h26c3 -27 27 -46 55 -46c32 0 57 21 57 57s-29 56 -58 56h-9v23h9c27 0 51 19 51 51c0 34 -21 51 -50 51c-27 0 -45 -18 -50 -44h-26c7 42 33 69 76 69c42 0 76 -28 76 -75c0 -30 -15 -52 -40 -63
c28 -11 47 -37 47 -70c0 -47 -37 -80 -83 -80zM169 -4c-46 0 -84 36 -84 81c0 29 15 56 48 70c-30 14 -42 38 -42 64c0 43 36 75 78 75c43 0 78 -32 78 -75c0 -26 -12 -50 -41 -64c32 -14 47 -41 47 -70c0 -45 -38 -81 -84 -81zM169 20c32 0 58 25 58 57c0 33 -26 58 -58 58
c-31 0 -57 -25 -57 -58c0 -32 26 -57 57 -57zM169 159c29 0 52 22 52 51c0 30 -23 52 -52 52c-28 0 -52 -22 -52 -52c0 -29 24 -51 52 -51z" />
    <glyph glyph-name="fiveeighths.afrc" horiz-adv-x="338" 
d="M45 344v25h248v-25h-248zM168 426c-25 0 -44 7 -57 18c-10 9 -19 23 -21 43h27c4 -23 19 -36 51 -36c35 0 53 24 53 71c0 50 -15 70 -51 70c-26 0 -41 -9 -56 -36h-20v156h140v-25h-118v-97c16 18 34 26 55 26c23 0 39 -6 53 -20c17 -16 24 -40 24 -74
c0 -33 -8 -57 -24 -74c-14 -15 -34 -22 -56 -22zM169 -4c-46 0 -84 36 -84 81c0 29 15 56 48 70c-30 14 -42 38 -42 64c0 43 36 75 78 75c43 0 78 -32 78 -75c0 -26 -12 -50 -41 -64c32 -14 47 -41 47 -70c0 -45 -38 -81 -84 -81zM169 20c32 0 58 25 58 57
c0 33 -26 58 -58 58c-31 0 -57 -25 -57 -58c0 -32 26 -57 57 -57zM169 159c29 0 52 22 52 51c0 30 -23 52 -52 52c-28 0 -52 -22 -52 -52c0 -29 24 -51 52 -51z" />
    <glyph glyph-name="seveneighths.afrc" horiz-adv-x="338" 
d="M45 344v25h248v-25h-248zM120 430l100 259h-101v-41h-26v64h152v-23l-99 -259h-26zM169 -4c-46 0 -84 36 -84 81c0 29 15 56 48 70c-30 14 -42 38 -42 64c0 43 36 75 78 75c43 0 78 -32 78 -75c0 -26 -12 -50 -41 -64c32 -14 47 -41 47 -70c0 -45 -38 -81 -84 -81z
M169 20c32 0 58 25 58 57c0 33 -26 58 -58 58c-31 0 -57 -25 -57 -58c0 -32 26 -57 57 -57zM169 159c29 0 52 22 52 51c0 30 -23 52 -52 52c-28 0 -52 -22 -52 -52c0 -29 24 -51 52 -51z" />
    <glyph glyph-name="uni215F.afrc" horiz-adv-x="338" 
d="M45 344v25h248v-25h-248zM156 430v251l-58 -50v32l58 49h27v-282h-27z" />
    <glyph glyph-name="uni2189.afrc" horiz-adv-x="338" 
d="M45 344v25h248v-25h-248zM169 426c-51 1 -80 39 -80 80v128c0 41 29 79 80 79s80 -38 80 -79v-128c0 -41 -29 -79 -80 -80zM169 452c36 0 53 24 53 56v124c0 32 -17 56 -53 56c-35 0 -53 -24 -53 -56v-124c0 -32 18 -56 53 -56zM168 -3c-41 0 -76 27 -81 71h26
c3 -27 27 -46 55 -46c32 0 57 21 57 57s-29 56 -58 56h-9v23h9c27 0 51 19 51 51c0 34 -21 51 -50 51c-27 0 -45 -18 -50 -44h-26c7 42 33 69 76 69c42 0 76 -28 76 -75c0 -30 -15 -52 -40 -63c28 -11 47 -37 47 -70c0 -47 -37 -80 -83 -80z" />
    <glyph glyph-name="zero.sinf" horiz-adv-x="214" 
d="M107 -4c-51 1 -80 39 -80 80v128c0 41 29 79 80 79s80 -38 80 -79v-128c0 -41 -29 -79 -80 -80zM107 22c36 0 53 24 53 56v124c0 32 -17 56 -53 56c-35 0 -53 -24 -53 -56v-124c0 -32 18 -56 53 -56z" />
    <glyph glyph-name="one.sinf" horiz-adv-x="218" 
d="M111 0v251l-58 -50v32l58 49h27v-282h-27z" />
    <glyph glyph-name="two.sinf" horiz-adv-x="207" 
d="M29 0v25l108 136c14 18 18 33 18 51c0 26 -17 49 -50 49c-28 0 -47 -18 -50 -51h-26c4 45 34 75 76 75c47 0 76 -34 76 -73c0 -23 -7 -42 -26 -65l-97 -122h114v-25h-143z" />
    <glyph glyph-name="three.sinf" horiz-adv-x="208" 
d="M98 -3c-41 0 -76 27 -81 71h26c3 -27 27 -46 55 -46c32 0 57 21 57 57s-29 56 -58 56h-9v23h9c27 0 51 19 51 51c0 34 -21 51 -50 51c-27 0 -45 -18 -50 -44h-26c7 42 33 69 76 69c42 0 76 -28 76 -75c0 -30 -15 -52 -40 -63c28 -11 47 -37 47 -70c0 -47 -37 -80 -83 -80
z" />
    <glyph glyph-name="four.sinf" horiz-adv-x="202" 
d="M129 0v46h-112v25l102 211h26l-102 -211h86v83h26v-83h30v-25h-30v-46h-26z" />
    <glyph glyph-name="five.sinf" horiz-adv-x="210" 
d="M106 -4c-25 0 -44 7 -57 18c-10 9 -19 23 -21 43h27c4 -23 19 -36 51 -36c35 0 53 24 53 71c0 50 -15 70 -51 70c-26 0 -41 -9 -56 -36h-20v156h140v-25h-118v-97c16 18 34 26 55 26c23 0 39 -6 53 -20c17 -16 24 -40 24 -74c0 -33 -8 -57 -24 -74
c-14 -15 -34 -22 -56 -22z" />
    <glyph glyph-name="six.sinf" horiz-adv-x="213" 
d="M106 -3c-47 0 -79 34 -79 85c0 19 2 36 16 64l68 136h28l-62 -126c8 6 18 10 31 10c46 0 78 -33 78 -84s-33 -85 -80 -85zM106 22c34 0 53 22 53 60c0 39 -19 60 -53 60s-53 -21 -53 -60c0 -38 19 -60 53 -60z" />
    <glyph glyph-name="seven.sinf" horiz-adv-x="210" 
d="M62 0l100 259h-101v-41h-26v64h152v-23l-99 -259h-26z" />
    <glyph glyph-name="eight.sinf" horiz-adv-x="210" 
d="M105 -4c-46 0 -84 36 -84 81c0 29 15 56 48 70c-30 14 -42 38 -42 64c0 43 36 75 78 75c43 0 78 -32 78 -75c0 -26 -12 -50 -41 -64c32 -14 47 -41 47 -70c0 -45 -38 -81 -84 -81zM105 20c32 0 58 25 58 57c0 33 -26 58 -58 58c-31 0 -57 -25 -57 -58
c0 -32 26 -57 57 -57zM105 159c29 0 52 22 52 51c0 30 -23 52 -52 52c-28 0 -52 -22 -52 -52c0 -29 24 -51 52 -51z" />
    <glyph glyph-name="nine.sinf" horiz-adv-x="213" 
d="M75 0l62 126c-8 -6 -18 -10 -31 -10c-46 0 -78 33 -78 84s33 85 80 85s79 -34 79 -85c0 -19 -2 -36 -16 -64l-68 -136h-28zM108 140c34 0 53 21 53 60c0 38 -19 60 -53 60s-53 -22 -53 -60c0 -39 19 -60 53 -60z" />
    <glyph glyph-name="zero.sups" horiz-adv-x="214" 
d="M106 430c-51 1 -80 39 -80 80v128c0 41 29 79 80 79s80 -38 80 -79v-128c0 -41 -29 -79 -80 -80zM106 456c36 0 53 24 53 56v124c0 32 -17 56 -53 56c-35 0 -53 -24 -53 -56v-124c0 -32 18 -56 53 -56z" />
    <glyph glyph-name="one.sups" horiz-adv-x="218" 
d="M111 434v251l-58 -50v32l58 49h27v-282h-27z" />
    <glyph glyph-name="two.sups" horiz-adv-x="207" 
d="M29 434v25l108 136c14 18 18 33 18 51c0 26 -17 49 -50 49c-28 0 -47 -18 -50 -51h-26c4 45 34 75 76 75c47 0 76 -34 76 -73c0 -23 -7 -42 -26 -65l-97 -122h114v-25h-143z" />
    <glyph glyph-name="three.sups" horiz-adv-x="208" 
d="M98 431c-41 0 -76 27 -81 71h26c3 -27 27 -46 55 -46c32 0 57 21 57 57s-29 56 -58 56h-9v23h9c27 0 51 19 51 51c0 34 -21 51 -50 51c-27 0 -45 -18 -50 -44h-26c7 42 33 69 76 69c42 0 76 -28 76 -75c0 -30 -15 -52 -40 -63c28 -11 47 -37 47 -70
c0 -47 -37 -80 -83 -80z" />
    <glyph glyph-name="four.sups" horiz-adv-x="202" 
d="M129 434v46h-112v25l102 211h26l-102 -211h86v83h26v-83h30v-25h-30v-46h-26z" />
    <glyph glyph-name="five.sups" horiz-adv-x="210" 
d="M106 430c-25 0 -44 7 -57 18c-10 9 -19 23 -21 43h27c4 -23 19 -36 51 -36c35 0 53 24 53 71c0 50 -15 70 -51 70c-26 0 -41 -9 -56 -36h-20v156h140v-25h-118v-97c16 18 34 26 55 26c23 0 39 -6 53 -20c17 -16 24 -40 24 -74c0 -33 -8 -57 -24 -74
c-14 -15 -34 -22 -56 -22z" />
    <glyph glyph-name="six.sups" horiz-adv-x="213" 
d="M106 431c-47 0 -79 34 -79 85c0 19 2 36 16 64l68 136h28l-62 -126c8 6 18 10 31 10c46 0 78 -33 78 -84s-33 -85 -80 -85zM106 456c34 0 53 22 53 60c0 39 -19 60 -53 60s-53 -21 -53 -60c0 -38 19 -60 53 -60z" />
    <glyph glyph-name="seven.sups" horiz-adv-x="210" 
d="M62 434l100 259h-101v-41h-26v64h152v-23l-99 -259h-26z" />
    <glyph glyph-name="eight.sups" horiz-adv-x="210" 
d="M105 430c-46 0 -84 36 -84 81c0 29 15 56 48 70c-30 14 -42 38 -42 64c0 43 36 75 78 75c43 0 78 -32 78 -75c0 -26 -12 -50 -41 -64c32 -14 47 -41 47 -70c0 -45 -38 -81 -84 -81zM105 454c32 0 58 25 58 57c0 33 -26 58 -58 58c-31 0 -57 -25 -57 -58
c0 -32 26 -57 57 -57zM105 593c29 0 52 22 52 51c0 30 -23 52 -52 52c-28 0 -52 -22 -52 -52c0 -29 24 -51 52 -51z" />
    <glyph glyph-name="nine.sups" horiz-adv-x="213" 
d="M75 434l62 126c-8 -6 -18 -10 -31 -10c-46 0 -78 33 -78 84s33 85 80 85s79 -34 79 -85c0 -19 -2 -36 -16 -64l-68 -136h-28zM108 574c34 0 53 21 53 60c0 38 -19 60 -53 60s-53 -22 -53 -60c0 -39 19 -60 53 -60z" />
    <glyph glyph-name="a.sups" horiz-adv-x="286" 
d="M127 324c-38 0 -59 7 -77 25c-12 12 -18 32 -18 51c0 48 37 76 93 76h82v29c0 39 -20 63 -72 63c-35 0 -52 -8 -71 -31l-19 16c21 27 49 41 90 41c68 0 100 -34 100 -87v-179h-30v30c-17 -24 -42 -34 -78 -34zM129 350c51 0 77 18 78 68v34h-79c-41 0 -68 -17 -68 -51
c0 -15 3 -26 10 -34c12 -14 25 -17 59 -17z" />
    <glyph glyph-name="b.sups" horiz-adv-x="296" 
d="M158 324c-40 0 -61 16 -76 39v-35h-28v384h28v-157c15 23 36 39 76 39c34 0 60 -15 76 -37c19 -26 24 -65 24 -98s-6 -72 -25 -99c-16 -21 -41 -36 -75 -36zM155 350c64 0 75 54 75 109s-11 109 -75 109s-73 -54 -73 -109s9 -109 73 -109z" />
    <glyph glyph-name="c.sups" horiz-adv-x="263" 
d="M149 324c-73 0 -110 57 -110 135c0 77 37 135 110 135c35 0 60 -13 82 -38l-20 -17c-19 22 -34 29 -62 29s-48 -12 -62 -31s-20 -46 -20 -78s6 -59 20 -79c14 -19 34 -30 62 -30s43 6 62 28l20 -16c-22 -26 -47 -38 -82 -38z" />
    <glyph glyph-name="d.sups" horiz-adv-x="296" 
d="M138 324c-34 0 -60 15 -76 36c-19 27 -24 66 -24 99s5 72 24 98c16 22 41 37 76 37c40 0 61 -16 75 -39v157h29v-384h-28v35c-15 -23 -36 -39 -76 -39zM140 350c65 0 74 54 74 109s-9 109 -74 109c-63 0 -74 -54 -74 -109s11 -109 74 -109z" />
    <glyph glyph-name="e.sups" horiz-adv-x="283" 
d="M149 325c-69 0 -111 49 -111 130c0 100 40 139 103 139c67 0 104 -54 104 -134v-6h-180c1 -67 31 -104 84 -104c28 0 47 8 67 28l19 -17c-25 -25 -52 -36 -86 -36zM65 477h152c-2 31 -9 54 -22 70c-13 14 -31 22 -54 22s-41 -8 -54 -22c-13 -16 -20 -39 -22 -70z" />
    <glyph glyph-name="g.sups" horiz-adv-x="296" 
d="M140 204c-37 0 -61 9 -87 32l18 18c21 -19 37 -25 69 -25c50 1 74 31 74 86v57c-15 -32 -39 -48 -77 -48c-46 0 -72 23 -85 53c-11 25 -14 55 -14 82c0 28 4 57 15 82c13 30 38 53 84 53c39 0 62 -16 78 -44v40h26v-276c0 -68 -35 -110 -101 -110zM140 350
c63 0 74 54 74 110c0 54 -11 108 -74 108c-64 0 -74 -54 -74 -109s10 -109 74 -109z" />
    <glyph glyph-name="h.sups" horiz-adv-x="306" 
d="M54 328v384h28v-161c14 26 41 43 77 43c31 0 54 -9 71 -25s25 -40 25 -75v-166h-28v163c0 54 -20 77 -70 77c-42 0 -75 -28 -75 -79v-161h-28z" />
    <glyph glyph-name="l.sups" horiz-adv-x="161" 
d="M143 328h-39c-33 0 -52 25 -52 56v328h28v-326c0 -19 9 -32 27 -32h36v-26z" />
    <glyph glyph-name="m.sups" horiz-adv-x="479" 
d="M54 328v262h28v-38c17 28 43 42 76 42c37 0 59 -12 74 -32c4 -5 8 -11 12 -18c16 30 44 50 87 50c32 0 56 -10 72 -28c18 -18 25 -43 25 -73v-165h-27v161c0 48 -25 79 -73 79s-73 -32 -73 -79v-161h-28v161c0 48 -23 79 -71 79c-47 0 -74 -32 -74 -79v-161h-28z" />
    <glyph glyph-name="o.sups" horiz-adv-x="286" 
d="M143 324c-30 0 -57 11 -75 29c-20 22 -30 53 -30 106s10 84 30 105c18 18 45 30 75 30c31 0 57 -12 75 -30c20 -21 30 -52 30 -105s-10 -84 -30 -106c-18 -18 -44 -29 -75 -29zM143 350c23 0 43 9 55 21c14 16 22 44 22 88s-8 72 -22 88c-12 12 -32 21 -55 21
s-43 -9 -54 -21c-14 -16 -23 -44 -23 -88s9 -72 23 -88c11 -12 31 -21 54 -21z" />
    <glyph glyph-name="p.sups" horiz-adv-x="296" 
d="M54 206v384h28v-35c15 23 36 39 76 39c34 0 59 -15 75 -36c20 -27 25 -66 25 -99s-6 -72 -25 -98c-16 -22 -41 -37 -75 -37c-40 0 -61 16 -76 39v-157h-28zM155 350c64 0 75 54 75 109s-11 109 -75 109s-73 -54 -73 -109s9 -109 73 -109z" />
    <glyph glyph-name="r.sups" horiz-adv-x="224" 
d="M157 594c24 0 45 -10 64 -27l-21 -20c-12 14 -28 21 -47 21c-35 0 -71 -28 -71 -90v-150h-28v262h28v-42c18 31 44 46 75 46z" />
    <glyph glyph-name="s.sups" horiz-adv-x="268" 
d="M126 324c-39 0 -73 14 -97 35l20 20c18 -18 44 -29 78 -29c52 0 81 19 81 51c0 34 -24 42 -54 45l-45 5c-45 5 -73 26 -73 68c0 45 37 75 94 75c36 0 64 -7 86 -24l-17 -20c-17 13 -36 18 -69 18c-45 0 -68 -19 -68 -49c0 -27 16 -40 51 -44l44 -5c35 -3 78 -20 78 -68
s-43 -78 -109 -78z" />
    <glyph glyph-name="t.sups" horiz-adv-x="183" 
d="M87 677v-87h62v-24h-62v-179c0 -22 11 -33 29 -33h36v-26h-38c-33 0 -55 24 -55 59v179h-35v24h35v87h28z" />
    <glyph glyph-name="u.sups" horiz-adv-x="305" 
d="M147 323c-31 0 -54 9 -71 25c-17 17 -25 40 -25 75v166h28v-163c0 -57 17 -77 70 -77c42 0 75 28 75 79v161h27v-262h-28v39c-13 -26 -40 -43 -76 -43z" />
    <glyph glyph-name="copyright.sups" horiz-adv-x="554" 
d="M277 266c-126 0 -226 100 -226 226s100 226 226 226s226 -100 226 -226s-100 -226 -226 -226zM279 360c-76 0 -109 60 -109 132s33 132 109 132c32 0 56 -11 80 -35l-17 -16c-21 23 -36 29 -63 29s-48 -10 -64 -28c-15 -21 -21 -50 -21 -82s6 -61 21 -82
c16 -18 37 -28 64 -28s42 6 63 29l17 -17c-24 -23 -46 -34 -80 -34zM277 290c111 0 200 90 200 202s-89 202 -200 202c-110 0 -200 -90 -200 -202s90 -202 200 -202z" />
    <glyph glyph-name="registered.sups" horiz-adv-x="554" 
d="M277 266c-126 0 -226 100 -226 226s100 226 226 226s226 -100 226 -226s-100 -226 -226 -226zM277 290c112 0 200 90 200 202s-88 202 -200 202s-200 -90 -200 -202s88 -202 200 -202zM197 366v254h102c45 0 78 -24 78 -71c0 -38 -21 -62 -58 -69l58 -114h-26l-58 112
h-72v-112h-24zM221 500h75c37 0 57 13 57 49c0 35 -20 49 -57 49h-75v-98z" />
    <glyph glyph-name="egrave.sups" horiz-adv-x="283" 
d="M149 325c-69 0 -111 49 -111 130c0 100 40 139 103 139c67 0 104 -54 104 -134v-6h-180c1 -67 31 -104 84 -104c28 0 47 8 67 28l19 -17c-25 -25 -52 -36 -86 -36zM65 477h152c-2 31 -9 54 -22 70c-13 14 -31 22 -54 22s-41 -8 -54 -22c-13 -16 -20 -39 -22 -70zM141 645
l-57 79h31l52 -79h-26z" />
    <glyph glyph-name="uni2117.sups" horiz-adv-x="554" 
d="M277 266c-126 0 -226 100 -226 226s100 226 226 226s226 -100 226 -226s-100 -226 -226 -226zM277 290c112 0 200 90 200 202s-88 202 -200 202s-200 -90 -200 -202s88 -202 200 -202zM197 366v254h103c46 0 78 -27 78 -76c0 -48 -32 -75 -78 -75h-79v-103h-24zM221 491
h75c38 0 58 14 58 53c0 40 -20 54 -58 54h-75v-107z" />
    <glyph glyph-name="zero.numr" horiz-adv-x="320" 
d="M159 281c-70 0 -117 51 -117 117v201c0 66 47 117 117 117s118 -51 118 -117v-201c0 -66 -48 -117 -118 -117zM159 310c55 0 87 38 87 89v199c0 50 -32 89 -87 89c-54 0 -86 -38 -86 -89v-199c0 -52 32 -89 86 -89z" />
    <glyph glyph-name="one.numr" horiz-adv-x="311" 
d="M161 285v391l-80 -70v38l80 68h30v-427h-30z" />
    <glyph glyph-name="two.numr" horiz-adv-x="315" 
d="M45 285v29l171 218c22 28 30 46 30 75c0 48 -33 80 -85 80c-48 0 -82 -27 -85 -79h-30c3 64 46 108 115 108c70 0 115 -45 115 -109c0 -36 -11 -58 -37 -92l-158 -201h189v-29h-225z" />
    <glyph glyph-name="three.numr" horiz-adv-x="309" 
d="M147 281c-61 0 -115 37 -122 104h31c6 -49 48 -75 91 -75c52 0 92 34 92 90c0 55 -40 92 -95 92h-13v28h12c51 0 87 33 87 84c0 54 -38 83 -84 83c-45 0 -76 -29 -83 -73h-31c8 62 54 102 114 102c66 0 115 -42 115 -112c0 -47 -25 -81 -65 -97c45 -17 73 -55 73 -107
c0 -75 -53 -119 -122 -119z" />
    <glyph glyph-name="four.numr" horiz-adv-x="301" 
d="M195 285v70h-170v29l157 328h32l-157 -328h138v129h31v-129h50v-29h-50v-70h-31z" />
    <glyph glyph-name="five.numr" horiz-adv-x="309" 
d="M155 281c-36 0 -64 9 -85 29c-17 16 -26 40 -28 69h31c7 -45 33 -69 82 -69c26 0 45 6 60 21c26 26 27 66 27 93c0 53 -12 113 -81 113c-43 0 -72 -19 -84 -48h-26v223h213v-29h-185v-156c18 25 48 39 85 39c32 0 56 -10 73 -27c28 -28 36 -69 36 -115
c0 -48 -9 -86 -34 -112c-20 -20 -49 -31 -84 -31z" />
    <glyph glyph-name="six.numr" horiz-adv-x="318" 
d="M159 281c-74 0 -119 53 -119 123c0 25 6 55 22 86l115 222h33l-105 -202c16 10 35 16 55 16c72 0 116 -53 116 -121c0 -69 -43 -124 -117 -124zM158 310c55 0 88 40 88 94c0 52 -31 95 -88 95s-87 -43 -87 -95c0 -54 32 -94 87 -94z" />
    <glyph glyph-name="seven.numr" horiz-adv-x="310" 
d="M97 285l149 399h-163v-62h-30v90h223v-28l-148 -399h-31z" />
    <glyph glyph-name="eight.numr" horiz-adv-x="314" 
d="M157 281c-71 0 -124 50 -124 120c0 49 26 85 69 106c-40 21 -60 53 -60 97c0 64 47 112 115 112c67 0 115 -48 115 -112c0 -44 -20 -76 -61 -97c43 -21 70 -57 70 -106c0 -70 -54 -120 -124 -120zM157 310c52 0 93 38 93 91c0 51 -41 91 -93 91c-53 0 -94 -40 -94 -91
c0 -53 41 -91 94 -91zM157 521c49 0 84 34 84 83s-34 83 -84 83s-85 -34 -85 -83s35 -83 85 -83z" />
    <glyph glyph-name="nine.numr" horiz-adv-x="314" 
d="M107 284l101 201c-14 -10 -35 -15 -54 -15c-70 0 -112 53 -112 121c0 69 43 124 116 124c71 0 116 -53 116 -123c0 -26 -7 -55 -23 -86l-111 -222h-33zM158 497c56 0 85 43 85 95c-1 54 -31 94 -85 94c-55 0 -86 -40 -86 -94c0 -52 30 -95 86 -95z" />
    <glyph glyph-name="zero.dnom" horiz-adv-x="320" 
d="M159 -4c-70 0 -117 51 -117 117v201c0 66 47 117 117 117s118 -51 118 -117v-201c0 -66 -48 -117 -118 -117zM159 25c55 0 87 38 87 89v199c0 50 -32 89 -87 89c-54 0 -86 -38 -86 -89v-199c0 -52 32 -89 86 -89z" />
    <glyph glyph-name="one.dnom" horiz-adv-x="311" 
d="M161 0v391l-80 -70v38l80 68h30v-427h-30z" />
    <glyph glyph-name="two.dnom" horiz-adv-x="315" 
d="M45 0v29l171 218c22 28 30 46 30 75c0 48 -33 80 -85 80c-48 0 -82 -27 -85 -79h-30c3 64 46 108 115 108c70 0 115 -45 115 -109c0 -36 -11 -58 -37 -92l-158 -201h189v-29h-225z" />
    <glyph glyph-name="three.dnom" horiz-adv-x="309" 
d="M147 -4c-61 0 -115 37 -122 104h31c6 -49 48 -75 91 -75c52 0 92 34 92 90c0 55 -40 92 -95 92h-13v28h12c51 0 87 33 87 84c0 54 -38 83 -84 83c-45 0 -76 -29 -83 -73h-31c8 62 54 102 114 102c66 0 115 -42 115 -112c0 -47 -25 -81 -65 -97c45 -17 73 -55 73 -107
c0 -75 -53 -119 -122 -119z" />
    <glyph glyph-name="four.dnom" horiz-adv-x="301" 
d="M195 0v70h-170v29l157 328h32l-157 -328h138v129h31v-129h50v-29h-50v-70h-31z" />
    <glyph glyph-name="five.dnom" horiz-adv-x="309" 
d="M155 -4c-36 0 -64 9 -85 29c-17 16 -26 40 -28 69h31c7 -45 33 -69 82 -69c26 0 45 6 60 21c26 26 27 66 27 93c0 53 -12 113 -81 113c-43 0 -72 -19 -84 -48h-26v223h213v-29h-185v-156c18 25 48 39 85 39c32 0 56 -10 73 -27c28 -28 36 -69 36 -115
c0 -48 -9 -86 -34 -112c-20 -20 -49 -31 -84 -31z" />
    <glyph glyph-name="six.dnom" horiz-adv-x="318" 
d="M159 -4c-74 0 -119 53 -119 123c0 25 6 55 22 86l115 222h33l-105 -202c16 10 35 16 55 16c72 0 116 -53 116 -121c0 -69 -43 -124 -117 -124zM158 25c55 0 88 40 88 94c0 52 -31 95 -88 95s-87 -43 -87 -95c0 -54 32 -94 87 -94z" />
    <glyph glyph-name="seven.dnom" horiz-adv-x="310" 
d="M97 0l149 399h-163v-62h-30v90h223v-28l-148 -399h-31z" />
    <glyph glyph-name="eight.dnom" horiz-adv-x="314" 
d="M157 -4c-71 0 -124 50 -124 120c0 49 26 85 69 106c-40 21 -60 53 -60 97c0 64 47 112 115 112c67 0 115 -48 115 -112c0 -44 -20 -76 -61 -97c43 -21 70 -57 70 -106c0 -70 -54 -120 -124 -120zM157 25c52 0 93 38 93 91c0 51 -41 91 -93 91c-53 0 -94 -40 -94 -91
c0 -53 41 -91 94 -91zM157 236c49 0 84 34 84 83s-34 83 -84 83s-85 -34 -85 -83s35 -83 85 -83z" />
    <glyph glyph-name="nine.dnom" horiz-adv-x="314" 
d="M107 0l101 201c-14 -10 -35 -15 -54 -15c-70 0 -112 53 -112 121c0 69 43 124 116 124c71 0 116 -53 116 -123c0 -26 -7 -55 -23 -86l-111 -222h-33zM158 213c56 0 85 43 85 95c-1 54 -31 94 -85 94c-55 0 -86 -40 -86 -94c0 -52 30 -95 86 -95z" />
    <glyph glyph-name="space.frac" horiz-adv-x="51" 
 />
    <glyph glyph-name="zero.osf" horiz-adv-x="507" 
d="M254 -6c-110 0 -182 80 -182 186v237c0 106 72 186 182 186s181 -80 181 -186v-237c0 -106 -71 -186 -181 -186zM254 27c95 0 145 70 145 158v227c0 88 -50 158 -145 158c-96 0 -146 -70 -146 -158v-227c0 -88 50 -158 146 -158z" />
    <glyph glyph-name="one.osf" horiz-adv-x="345" 
d="M186 0v555l-135 -117v43l135 116h36v-597h-36z" />
    <glyph glyph-name="two.osf" horiz-adv-x="473" 
d="M42 0v32l249 257c53 54 79 99 79 159c0 81 -55 143 -144 143c-82 0 -139 -55 -145 -141h-36c6 101 76 173 181 173c112 0 180 -75 180 -175c0 -70 -30 -120 -85 -177l-232 -239h327v-32h-374z" />
    <glyph glyph-name="three.osf" horiz-adv-x="504" 
d="M241 -122c-103 0 -188 61 -198 174h36c10 -93 83 -141 162 -141c89 0 162 63 162 162c0 102 -67 163 -167 163h-16v33h16c92 0 152 54 152 150c0 97 -67 152 -147 152c-85 0 -138 -53 -149 -137h-36c13 107 83 169 185 169c106 0 183 -72 183 -184
c0 -74 -35 -135 -112 -165c83 -28 127 -92 127 -181c0 -120 -89 -195 -198 -195z" />
    <glyph glyph-name="four.osf" horiz-adv-x="521" 
d="M344 -116v144h-307v33l274 561h38l-274 -561h269v239h36v-239h101v-33h-101v-144h-36z" />
    <glyph glyph-name="five.osf" horiz-adv-x="507" 
d="M247 -121c-65 0 -107 16 -138 48c-24 24 -41 59 -46 107h36c12 -79 60 -122 148 -122c43 0 80 13 104 37c39 39 51 98 51 167c0 90 -26 200 -150 200c-74 0 -121 -35 -142 -90h-31v372h344v-33h-312v-282c35 45 81 66 143 66c54 0 95 -17 124 -46c45 -45 60 -107 60 -187
c0 -81 -14 -143 -58 -187c-34 -34 -80 -50 -133 -50z" />
    <glyph glyph-name="six.osf" horiz-adv-x="509" 
d="M255 -6c-125 0 -198 94 -198 219c0 47 14 103 48 162l202 353h38l-184 -319c29 18 60 26 95 26c124 0 196 -96 196 -219s-72 -222 -197 -222zM254 26c98 0 162 75 162 188c0 108 -61 189 -162 189c-97 0 -161 -75 -161 -189c0 -113 64 -188 161 -188z" />
    <glyph glyph-name="seven.osf" horiz-adv-x="471" 
d="M124 -119l275 683h-317v-111h-36v144h390v-33l-274 -683h-38z" />
    <glyph glyph-name="eight.osf" horiz-adv-x="520" 
d="M260 -6c-113 0 -199 85 -199 195c0 81 43 144 121 182c-73 36 -106 92 -106 165c0 104 77 182 184 182s184 -78 184 -182c0 -73 -32 -129 -106 -165c78 -38 121 -101 121 -182c0 -110 -86 -195 -199 -195zM260 27c92 0 163 69 163 162c0 94 -72 164 -163 164
c-92 0 -163 -70 -163 -164c0 -93 71 -162 163 -162zM260 386c85 0 148 61 148 150c0 88 -63 149 -148 149s-148 -61 -148 -149c0 -89 63 -150 148 -150z" />
    <glyph glyph-name="nine.osf" horiz-adv-x="509" 
d="M164 -131l185 319c-30 -18 -61 -26 -96 -26c-124 0 -196 96 -196 219s72 222 197 222c126 0 198 -94 198 -219c0 -47 -14 -103 -48 -162l-202 -353h-38zM255 194c97 0 161 75 161 189c0 113 -64 188 -161 188c-98 0 -162 -75 -162 -188c0 -108 61 -189 162 -189z" />
    <glyph glyph-name="zero.lf" horiz-adv-x="507" 
d="M254 -6c-110 0 -182 80 -182 186v352c0 106 72 186 182 186s181 -80 181 -186v-352c0 -106 -71 -186 -181 -186zM254 27c95 0 145 70 145 158v342c0 88 -50 158 -145 158c-96 0 -146 -70 -146 -158v-342c0 -88 50 -158 146 -158z" />
    <glyph glyph-name="one.lf" horiz-adv-x="344" 
d="M187 0v669l-135 -118v45l135 116h36v-712h-36z" />
    <glyph glyph-name="two.lf" horiz-adv-x="465" 
d="M42 0v33l281 373c34 46 49 83 49 130c0 89 -53 149 -146 149c-85 0 -144 -51 -148 -150h-36c3 108 73 183 184 183c112 0 182 -73 182 -182c0 -54 -15 -93 -55 -146l-268 -357h323v-33h-366z" />
    <glyph glyph-name="three.lf" horiz-adv-x="499" 
d="M240 -6c-103 0 -189 61 -198 174h36c10 -94 82 -141 162 -141c89 0 162 63 162 162c0 101 -68 163 -167 163h-17v33h16c92 0 152 54 152 150s-66 150 -147 150c-84 0 -138 -51 -148 -136h-36c13 107 83 169 184 169c107 0 183 -71 183 -183c0 -74 -34 -135 -111 -165
c83 -28 127 -93 127 -181c0 -121 -89 -195 -198 -195z" />
    <glyph glyph-name="four.lf" horiz-adv-x="500" 
d="M322 0v118h-284v33l267 561h39l-268 -561h246v242h36v-242h101v-33h-101v-118h-36z" />
    <glyph glyph-name="five.lf" horiz-adv-x="503" 
d="M245 -6c-65 0 -107 16 -138 47c-24 24 -41 59 -46 108h36c12 -80 60 -122 148 -122c43 0 80 12 104 37c39 39 51 98 51 167c0 90 -26 199 -150 199c-74 0 -121 -35 -142 -90h-31v372h344v-33h-312v-282c35 46 81 66 143 66c54 0 95 -17 124 -46c45 -44 60 -106 60 -186
c0 -82 -14 -143 -58 -188c-34 -34 -80 -49 -133 -49z" />
    <glyph glyph-name="six.lf" horiz-adv-x="494" 
d="M249 -6c-118 0 -186 87 -186 202c0 46 10 87 36 139l187 377h37l-171 -344c26 22 61 32 99 32c116 0 184 -89 184 -201c0 -114 -68 -205 -186 -205zM249 27c90 0 150 67 150 170c0 98 -57 170 -150 170c-91 0 -150 -67 -150 -170s59 -170 150 -170z" />
    <glyph glyph-name="seven.lf" horiz-adv-x="437" 
d="M109 0l255 679h-287v-111h-36v144h360v-33l-256 -679h-36z" />
    <glyph glyph-name="eight.lf" horiz-adv-x="518" 
d="M259 -6c-113 0 -199 85 -199 195c0 81 43 144 121 182c-73 36 -106 92 -106 165c0 104 77 182 184 182s184 -78 184 -182c0 -73 -32 -129 -106 -165c78 -38 121 -101 121 -182c0 -110 -86 -195 -199 -195zM259 27c92 0 163 69 163 162c0 94 -72 164 -163 164
c-92 0 -163 -70 -163 -164c0 -93 71 -162 163 -162zM259 386c85 0 148 61 148 150c0 88 -63 149 -148 149s-148 -61 -148 -149c0 -89 63 -150 148 -150z" />
    <glyph glyph-name="nine.lf" horiz-adv-x="474" 
d="M162 0l172 344c-26 -22 -62 -32 -99 -32c-116 0 -184 89 -184 201c0 114 68 205 186 205c117 0 186 -87 186 -202c0 -46 -10 -87 -36 -139l-187 -377h-38zM237 345c91 0 150 67 150 170s-59 170 -150 170s-150 -67 -150 -170c0 -98 57 -170 150 -170z" />
    <glyph glyph-name="zero.tosf" horiz-adv-x="507" 
d="M254 -6c-110 0 -182 80 -182 186v237c0 106 72 186 182 186s181 -80 181 -186v-237c0 -106 -71 -186 -181 -186zM254 27c95 0 145 70 145 158v227c0 88 -50 158 -145 158c-96 0 -146 -70 -146 -158v-227c0 -88 50 -158 146 -158z" />
    <glyph glyph-name="one.tosf" horiz-adv-x="507" 
d="M269 0v554l-135 -118v45l135 116h36v-597h-36z" />
    <glyph glyph-name="two.tosf" horiz-adv-x="507" 
d="M65 0v32l249 257c53 54 79 99 79 159c0 81 -55 143 -145 143c-81 0 -138 -55 -144 -141h-36c6 101 76 173 180 173c113 0 181 -75 181 -175c0 -70 -31 -119 -86 -177l-231 -239h327v-32h-374z" />
    <glyph glyph-name="three.tosf" horiz-adv-x="507" 
d="M242 -122c-103 0 -189 61 -198 174h36c10 -93 82 -141 162 -141c89 0 162 63 162 162c0 102 -68 163 -167 163h-17v33h16c92 0 152 54 152 150c0 97 -66 151 -147 151c-84 0 -138 -52 -148 -136h-36c13 107 83 169 184 169c107 0 183 -72 183 -184
c0 -74 -34 -135 -111 -165c83 -28 127 -92 127 -181c0 -120 -89 -195 -198 -195z" />
    <glyph glyph-name="four.tosf" horiz-adv-x="507" 
d="M341 -116v144h-307v33l274 561h38l-274 -561h269v239h36v-239h101v-33h-101v-144h-36z" />
    <glyph glyph-name="five.tosf" horiz-adv-x="507" 
d="M254 -121c-65 0 -107 16 -138 48c-24 24 -41 59 -46 107h36c12 -79 60 -122 148 -122c43 0 80 13 104 37c39 39 51 98 51 167c0 90 -26 200 -150 200c-74 0 -121 -35 -142 -90h-31v372h344v-33h-312v-282c35 45 81 66 143 66c54 0 95 -17 124 -46c45 -45 60 -107 60 -187
c0 -81 -14 -143 -58 -187c-34 -34 -80 -50 -133 -50z" />
    <glyph glyph-name="six.tosf" horiz-adv-x="507" 
d="M255 -6c-125 0 -198 94 -198 219c0 47 14 103 48 162l202 353h38l-184 -319c29 18 60 26 95 26c124 0 196 -96 196 -219s-72 -222 -197 -222zM254 26c98 0 162 75 162 188c0 108 -61 189 -162 189c-97 0 -161 -75 -161 -189c0 -113 64 -188 161 -188z" />
    <glyph glyph-name="seven.tosf" horiz-adv-x="507" 
d="M145 -119l275 683h-317v-111h-36v144h390v-33l-274 -683h-38z" />
    <glyph glyph-name="eight.tosf" horiz-adv-x="507" 
d="M254 -6c-113 0 -199 85 -199 195c0 81 43 144 121 182c-73 36 -106 92 -106 165c0 104 77 182 184 182s184 -78 184 -182c0 -73 -32 -129 -106 -165c78 -38 121 -101 121 -182c0 -110 -86 -195 -199 -195zM254 27c92 0 163 69 163 162c0 94 -72 164 -163 164
c-92 0 -163 -70 -163 -164c0 -93 71 -162 163 -162zM254 386c85 0 148 61 148 150c0 88 -63 149 -148 149s-148 -61 -148 -149c0 -89 63 -150 148 -150z" />
    <glyph glyph-name="nine.tosf" horiz-adv-x="507" 
d="M161 -131l185 319c-30 -18 -61 -26 -96 -26c-124 0 -196 96 -196 219s72 222 197 222c126 0 198 -94 198 -219c0 -47 -14 -103 -48 -162l-202 -353h-38zM252 194c97 0 161 75 161 189c0 113 -64 188 -161 188c-98 0 -162 -75 -162 -188c0 -108 61 -189 162 -189z" />
    <glyph glyph-name="uni2007.tosf" horiz-adv-x="507" 
 />
    <glyph glyph-name="hyphen.case" horiz-adv-x="426" 
d="M340 376v-33h-254v33h254z" />
    <glyph glyph-name="exclamdown.case" horiz-adv-x="295" 
d="M151 526l3 -526h-39l2 526h34zM161 712v-54h-54v54h54z" />
    <glyph glyph-name="guillemotleft.case" horiz-adv-x="507" 
d="M422 546v-48l-139 -139l139 -139v-47l-186 186zM229 546v-48l-139 -139l139 -139v-47l-186 186z" />
    <glyph glyph-name="uni00AD.case" horiz-adv-x="426" 
d="M340 376v-33h-254v33h254z" />
    <glyph glyph-name="periodcentered.case" horiz-adv-x="257" 
d="M159 390v-61h-61v61h61z" />
    <glyph glyph-name="guillemotright.case" horiz-adv-x="507" 
d="M278 546l186 -187l-186 -186v47l139 139l-139 139v48zM85 546l186 -187l-186 -186v47l139 139l-139 139v48z" />
    <glyph glyph-name="questiondown.case" horiz-adv-x="479" 
d="M235 527v-48c0 -36 -7 -57 -27 -87l-86 -129c-23 -36 -35 -58 -35 -97c0 -80 59 -140 137 -140c83 0 138 66 138 139h36c0 -90 -69 -171 -174 -171c-100 0 -173 77 -173 172c0 43 15 76 42 116l88 131c12 18 18 43 18 63v51h36zM244 712v-54h-54v54h54z" />
    <glyph glyph-name="endash.case" horiz-adv-x="573" 
d="M487 376v-33h-401v33h401z" />
    <glyph glyph-name="emdash.case" horiz-adv-x="844" 
d="M758 376v-33h-672v33h672z" />
    <glyph glyph-name="bullet.case" horiz-adv-x="554" 
d="M277 522c90 0 163 -73 163 -163s-73 -163 -163 -163s-163 73 -163 163s73 163 163 163z" />
    <glyph glyph-name="guilsinglleft.case" horiz-adv-x="314" 
d="M229 546v-48l-139 -139l139 -139v-47l-186 186z" />
    <glyph glyph-name="guilsinglright.case" horiz-adv-x="314" 
d="M85 546l186 -187l-186 -186v47l139 139l-139 139v48z" />
    <glyph glyph-name="zero.zero" horiz-adv-x="505" 
d="M231 319v74h43v-74h-43zM253 -6c-110 0 -182 80 -182 186v352c0 106 72 186 182 186s181 -80 181 -186v-352c0 -106 -71 -186 -181 -186zM253 26c95 0 145 71 145 159v342c0 88 -50 159 -145 159c-96 0 -146 -71 -146 -159v-342c0 -88 50 -159 146 -159z" />
    <glyph glyph-name="zero.osf.zero" horiz-adv-x="509" 
d="M233 262v74h43v-74h-43zM255 -6c-110 0 -182 80 -182 186v237c0 106 72 186 182 186s181 -80 181 -186v-237c0 -106 -71 -186 -181 -186zM255 27c95 0 145 70 145 158v227c0 88 -50 158 -145 158c-96 0 -146 -70 -146 -158v-227c0 -88 50 -158 146 -158z" />
    <glyph glyph-name="zero.lf.zero" horiz-adv-x="507" 
d="M232 319v74h43v-74h-43zM254 -6c-110 0 -182 80 -182 186v352c0 106 72 186 182 186s181 -80 181 -186v-352c0 -106 -71 -186 -181 -186zM254 27c95 0 145 70 145 158v342c0 88 -50 158 -145 158c-96 0 -146 -70 -146 -158v-342c0 -88 50 -158 146 -158z" />
    <glyph glyph-name="zero.tosf.zero" horiz-adv-x="507" 
d="M232 262v74h43v-74h-43zM254 -6c-110 0 -182 80 -182 186v237c0 106 72 186 182 186s181 -80 181 -186v-237c0 -106 -71 -186 -181 -186zM254 27c95 0 145 70 145 158v227c0 88 -50 158 -145 158c-96 0 -146 -70 -146 -158v-227c0 -88 50 -158 146 -158z" />
    <glyph glyph-name="exclam.ss01" horiz-adv-x="295" 
d="M181 712l-4 -526h-32l-4 526h40zM161 64c19 0 34 -15 34 -34c0 -18 -15 -33 -34 -33c-18 0 -33 15 -33 33c0 19 15 34 33 34z" />
    <glyph glyph-name="period.ss01" horiz-adv-x="253" 
d="M127 72c20 0 37 -17 37 -37c0 -21 -17 -38 -37 -38c-21 0 -38 17 -38 38c0 20 17 37 38 37z" />
    <glyph glyph-name="colon.ss01" horiz-adv-x="280" 
d="M155 383c20 0 37 -17 37 -38c0 -20 -17 -37 -37 -37c-21 0 -38 17 -38 37c0 21 17 38 38 38zM155 74c20 0 37 -17 37 -38c0 -20 -17 -37 -37 -37c-21 0 -38 17 -38 37c0 21 17 38 38 38z" />
    <glyph glyph-name="semicolon.ss01" horiz-adv-x="281" 
d="M179 60v-128l-50 -50v178h50zM155 383c20 0 37 -17 37 -38c0 -20 -17 -37 -37 -37c-21 0 -38 17 -38 37c0 21 17 38 38 38z" />
    <glyph glyph-name="question.ss01" horiz-adv-x="479" 
d="M255 718c99 0 173 -77 173 -172c0 -43 -16 -76 -43 -116l-88 -131c-12 -18 -18 -43 -18 -63v-51h-36v48c0 36 8 57 28 87l85 129c23 35 36 58 36 97c0 80 -60 139 -137 139c-84 0 -138 -65 -138 -138h-36c0 90 69 171 174 171zM261 64c19 0 34 -15 34 -34
c0 -18 -15 -33 -34 -33c-18 0 -33 15 -33 33c0 19 15 34 33 34z" />
    <glyph glyph-name="at.ss01" horiz-adv-x="937" 
d="M498 655c223 0 355 -131 355 -344c0 -166 -113 -289 -283 -290h-35l14 66c-31 -42 -68 -72 -129 -72c-81 0 -136 46 -136 142c0 23 4 55 9 80c17 79 37 137 79 176c35 34 77 47 119 47c57 0 100 -30 115 -82l15 76h34l-80 -402c140 3 242 110 242 259
c0 190 -121 312 -319 312c-207 0 -378 -174 -378 -389c0 -218 154 -396 386 -396h34l-7 -32h-33c-242 0 -416 183 -416 428c0 236 184 421 414 421zM489 428c-43 0 -77 -19 -102 -49c-28 -33 -46 -79 -58 -142c-6 -28 -9 -57 -9 -80c0 -68 35 -110 102 -110
c39 0 72 17 97 48c26 32 45 76 58 142c7 36 11 64 11 85c0 59 -35 106 -99 106z" />
    <glyph glyph-name="i.ss01" horiz-adv-x="239" 
d="M138 476v-476h-36v476h36zM120 704c17 0 31 -14 31 -31c0 -16 -14 -30 -31 -30s-31 14 -31 30c0 17 14 31 31 31z" />
    <glyph glyph-name="j.ss01" horiz-adv-x="240" 
d="M138 476v-606c0 -65 -35 -106 -98 -106h-50v33h44c49 0 68 27 68 74v605h36zM120 704c17 0 31 -14 31 -31c0 -16 -14 -30 -31 -30s-31 14 -31 30c0 17 14 31 31 31z" />
    <glyph glyph-name="exclamdown.ss01" horiz-adv-x="295" 
d="M149 291l4 -526h-40l4 526h32zM133 480c19 0 34 -15 34 -34c0 -18 -15 -33 -34 -33c-18 0 -33 15 -33 33c0 19 15 34 33 34z" />
    <glyph glyph-name="dieresis.ss01" 
d="M361 671c17 0 32 -14 32 -32c0 -17 -15 -32 -32 -32s-32 15 -32 32c0 18 15 32 32 32zM159 671c17 0 32 -14 32 -32c0 -17 -15 -32 -32 -32s-32 15 -32 32c0 18 15 32 32 32z" />
    <glyph glyph-name="periodcentered.ss01" horiz-adv-x="253" 
d="M127 294c20 0 37 -16 37 -37s-17 -38 -37 -38c-21 0 -38 17 -38 38s17 37 38 37z" />
    <glyph glyph-name="cedilla.ss01" 
d="M248 -224v29c37 0 64 27 64 62s-27 62 -64 62v29c56 0 96 -38 96 -91s-40 -91 -96 -91z" />
    <glyph glyph-name="questiondown.ss01" horiz-adv-x="479" 
d="M235 292v-48c0 -36 -7 -57 -27 -87l-86 -130c-23 -35 -35 -57 -35 -97c0 -79 59 -139 137 -139c83 0 138 65 138 139h36c0 -90 -69 -171 -174 -171c-100 0 -173 76 -173 171c0 43 16 77 42 116l88 132c12 17 18 42 18 63v51h36zM218 480c19 0 34 -15 34 -34
c0 -18 -15 -33 -34 -33c-18 0 -33 15 -33 33c0 19 15 34 33 34z" />
    <glyph glyph-name="Adieresis.ss01" horiz-adv-x="590" 
d="M312 712l262 -712h-39l-67 183h-346l-66 -183h-40l261 712h35zM295 661l-161 -443h322zM397 853c18 0 32 -14 32 -31s-14 -32 -31 -32s-32 14 -32 31c0 18 14 32 31 32zM194 853c18 0 32 -14 32 -31s-14 -32 -31 -32s-32 14 -32 31c0 18 14 32 31 32z" />
    <glyph glyph-name="Ccedilla.ss01" horiz-adv-x="640" 
d="M324 718c127 0 215 -81 238 -205h-38c-23 107 -99 170 -200 170c-58 0 -105 -19 -143 -56c-52 -51 -59 -119 -59 -271s7 -220 59 -271c38 -37 85 -56 143 -56c101 0 177 63 200 170h38c-23 -124 -111 -205 -238 -205c-71 0 -126 24 -170 67c-63 63 -70 127 -70 295
s7 232 70 295c44 43 99 67 170 67zM298 -71v29c56 0 96 -38 96 -91s-40 -91 -96 -91v29c36 0 64 27 64 62s-28 62 -64 62z" />
    <glyph glyph-name="Edieresis.ss01" horiz-adv-x="595" 
d="M539 712v-35h-387v-300h330v-35h-330v-307h387v-35h-425v712h425zM418 853c18 0 32 -14 32 -31s-14 -32 -31 -32s-32 14 -32 31c0 18 14 32 31 32zM215 853c18 0 32 -14 32 -31s-14 -32 -31 -32s-32 14 -32 31c0 18 14 32 31 32z" />
    <glyph glyph-name="Idieresis.ss01" horiz-adv-x="266" 
d="M152 712v-712h-38v712h38zM235 853c18 0 32 -14 32 -31s-14 -32 -31 -32s-32 14 -32 31c0 18 14 32 31 32zM32 853c18 0 32 -14 32 -31s-14 -32 -31 -32s-32 14 -32 31c0 18 14 32 31 32z" />
    <glyph glyph-name="Odieresis.ss01" horiz-adv-x="647" 
d="M324 718c71 0 126 -24 169 -67c63 -63 70 -127 70 -295s-7 -232 -70 -295c-43 -43 -98 -67 -169 -67s-126 24 -170 67c-63 63 -70 127 -70 295s7 232 70 295c44 43 99 67 170 67zM324 683c-58 0 -105 -19 -143 -56c-52 -51 -59 -119 -59 -271s7 -220 59 -271
c38 -37 85 -56 143 -56s104 19 142 56c52 52 59 119 59 271s-7 219 -59 271c-38 37 -84 56 -142 56zM427 853c18 0 32 -14 32 -31s-14 -32 -31 -32s-32 14 -32 31c0 18 14 32 31 32zM224 853c18 0 32 -14 32 -31s-14 -32 -31 -32s-32 14 -32 31c0 18 14 32 31 32z" />
    <glyph glyph-name="Udieresis.ss01" horiz-adv-x="689" 
d="M585 712v-485c0 -135 -98 -233 -241 -233s-240 98 -240 233v485h38v-478c0 -123 79 -205 202 -205c122 0 203 82 203 205v478h38zM448 853c18 0 32 -14 32 -31s-14 -32 -31 -32s-32 14 -32 31c0 18 14 32 31 32zM245 853c18 0 32 -14 32 -31s-14 -32 -31 -32
s-32 14 -32 31c0 18 14 32 31 32z" />
    <glyph glyph-name="adieresis.ss01" horiz-adv-x="517" 
d="M231 -6c-71 0 -109 11 -141 43c-22 22 -32 56 -32 90c0 89 63 136 165 136h163v60c0 82 -39 126 -143 126c-72 0 -108 -18 -139 -64l-28 22c37 54 85 75 166 75c126 0 180 -54 180 -154v-328h-36v57c-34 -45 -82 -63 -155 -63zM231 26c45 0 90 5 126 40
c19 19 29 50 29 98v68h-159c-88 0 -133 -34 -133 -104c0 -69 43 -102 137 -102zM345 671c17 0 32 -14 32 -32c0 -17 -15 -32 -32 -32s-32 15 -32 32c0 18 15 32 32 32zM143 671c17 0 32 -14 32 -32c0 -17 -15 -32 -32 -32s-32 15 -32 32c0 18 15 32 32 32z" />
    <glyph glyph-name="ccedilla.ss01" horiz-adv-x="487" 
d="M273 482c66 0 109 -20 154 -75l-27 -22c-38 46 -73 64 -128 64c-50 0 -88 -17 -118 -51c-35 -41 -47 -94 -47 -160s12 -119 47 -160c30 -34 68 -51 118 -51c55 0 90 18 128 64l27 -22c-45 -55 -88 -75 -154 -75c-136 0 -202 101 -202 244s66 244 202 244zM248 -224v29
c37 0 64 27 64 62s-27 62 -64 62v29c56 0 96 -38 96 -91s-40 -91 -96 -91z" />
    <glyph glyph-name="edieresis.ss01" horiz-adv-x="515" 
d="M257 482c119 0 187 -90 187 -234v-16h-337c0 -133 57 -205 165 -205c57 0 95 19 138 63l27 -23c-48 -49 -91 -73 -168 -73c-134 0 -198 91 -198 243c0 153 67 245 186 245zM257 449c-47 0 -86 -21 -112 -57c-23 -31 -34 -67 -38 -129h300c-4 62 -15 98 -38 129
c-26 36 -65 57 -112 57zM361 671c17 0 32 -14 32 -32c0 -17 -15 -32 -32 -32s-32 15 -32 32c0 18 15 32 32 32zM159 671c17 0 32 -14 32 -32c0 -17 -15 -32 -32 -32s-32 15 -32 32c0 18 15 32 32 32z" />
    <glyph glyph-name="idieresis.ss01" horiz-adv-x="239" 
d="M219 671c17 0 32 -14 32 -32c0 -17 -15 -32 -32 -32s-32 15 -32 32c0 18 15 32 32 32zM17 671c17 0 32 -14 32 -32c0 -17 -15 -32 -32 -32s-32 15 -32 32c0 18 15 32 32 32zM138 476v-476h-36v476h36z" />
    <glyph glyph-name="odieresis.ss01" 
d="M259 -6c-53 0 -96 16 -132 52c-52 52 -56 124 -56 192s4 140 56 192c36 36 79 52 132 52c54 0 96 -16 132 -52c52 -52 57 -124 57 -192s-5 -140 -57 -192c-36 -36 -78 -52 -132 -52zM259 27c43 0 79 14 107 42c43 43 46 113 46 169s-3 126 -46 169c-28 28 -64 42 -107 42
c-42 0 -78 -14 -107 -42c-43 -43 -45 -113 -45 -169s2 -126 45 -169c29 -28 65 -42 107 -42zM361 671c17 0 32 -14 32 -32c0 -17 -15 -32 -32 -32s-32 15 -32 32c0 18 15 32 32 32zM159 671c17 0 32 -14 32 -32c0 -17 -15 -32 -32 -32s-32 15 -32 32c0 18 15 32 32 32z" />
    <glyph glyph-name="divide.ss01" horiz-adv-x="509" 
d="M455 273v-33h-401v33h401zM255 129c20 0 37 -17 37 -38s-17 -38 -37 -38c-21 0 -38 17 -38 38s17 38 38 38zM255 460c20 0 37 -17 37 -38s-17 -37 -37 -37c-21 0 -38 16 -38 37s17 38 38 38z" />
    <glyph glyph-name="udieresis.ss01" horiz-adv-x="553" 
d="M453 476v-476h-36v71c-32 -52 -81 -77 -149 -77c-55 0 -96 15 -127 45c-32 30 -47 75 -47 134v303h36v-295c0 -98 46 -154 142 -154c95 0 145 57 145 153v296h36zM376 671c17 0 32 -14 32 -32c0 -17 -15 -32 -32 -32s-32 15 -32 32c0 18 15 32 32 32zM174 671
c17 0 32 -14 32 -32c0 -17 -15 -32 -32 -32s-32 15 -32 32c0 18 15 32 32 32z" />
    <glyph glyph-name="ydieresis.ss01" horiz-adv-x="416" 
d="M401 476l-231 -628c-8 -23 -19 -42 -33 -55c-20 -20 -49 -29 -84 -29h-22v33h17c57 0 76 23 93 68l50 135l-176 476h39l155 -431l153 431h39zM309 671c17 0 32 -14 32 -32c0 -17 -15 -32 -32 -32s-32 15 -32 32c0 18 15 32 32 32zM107 671c17 0 32 -14 32 -32
c0 -17 -15 -32 -32 -32s-32 15 -32 32c0 18 15 32 32 32z" />
    <glyph glyph-name="ij.ss01" horiz-adv-x="479" 
d="M138 476v-476h-36v476h36zM120 704c17 0 31 -14 31 -31c0 -16 -14 -30 -31 -30s-31 14 -31 30c0 17 14 31 31 31zM377 476v-606c0 -65 -35 -106 -98 -106h-50v33h44c49 0 68 27 68 74v605h36zM359 704c17 0 31 -14 31 -31c0 -16 -14 -30 -31 -30s-31 14 -31 30
c0 17 14 31 31 31z" />
    <glyph glyph-name="Ydieresis.ss01" horiz-adv-x="491" 
d="M227 0v296l-216 416h41l195 -377l193 377h40l-215 -416v-296h-38zM347 853c18 0 32 -14 32 -31s-14 -32 -31 -32s-32 14 -32 31c0 18 14 32 31 32zM144 853c18 0 32 -14 32 -31s-14 -32 -31 -32s-32 14 -32 31c0 18 14 32 31 32z" />
    <glyph glyph-name="dotaccent.ss01" 
d="M262 613c-17 0 -31 14 -31 31s14 31 31 31s31 -14 31 -31s-14 -31 -31 -31z" />
    <glyph glyph-name="ogonek.ss01" 
d="M294 -195v-29c-56 0 -96 38 -96 91s40 91 96 91v-29c-37 0 -65 -27 -65 -62s28 -62 65 -62z" />
    <glyph glyph-name="uni0312.ss01" horiz-adv-x="1" 
d="M49 756v-29c-37 0 -65 -27 -65 -62s28 -62 65 -62v-29c-56 0 -96 38 -96 91s40 91 96 91z" />
    <glyph glyph-name="uni0313.ss01" horiz-adv-x="1" 
d="M19 712v-130l-37 -39v169h37z" />
    <glyph glyph-name="uni0324.ss01" horiz-adv-x="1" 
d="M102 -85c17 0 32 -14 32 -32c0 -17 -15 -32 -32 -32s-32 15 -32 32s14 32 32 32zM-100 -85c17 0 32 -14 32 -32c0 -17 -15 -32 -32 -32s-32 15 -32 32s14 32 32 32z" />
    <glyph glyph-name="uni0327.ss01" horiz-adv-x="1" 
d="M-47 -224v29c37 0 64 27 64 62s-27 62 -64 62v29c56 0 96 -38 96 -91s-40 -91 -96 -91z" />
    <glyph glyph-name="uni0328.ss01" horiz-adv-x="1" 
d="M49 -195v-29c-56 0 -96 38 -96 91s40 91 96 91v-29c-37 0 -65 -27 -65 -62s28 -62 65 -62z" />
    <glyph glyph-name="uni037E.ss01" horiz-adv-x="286" 
d="M179 60v-128l-50 -50v178h50zM155 383c20 0 37 -17 37 -38c0 -20 -17 -37 -37 -37c-21 0 -38 17 -38 37c0 21 17 38 38 38z" />
    <glyph glyph-name="uni03A9.ss01" horiz-adv-x="647" 
d="M90 0v35h466v-35h-466zM323 124c-71 0 -128 23 -170 66c-51 52 -69 110 -69 231s18 179 69 231c42 43 99 66 170 66s128 -23 170 -66c52 -52 69 -110 69 -231s-17 -179 -69 -231c-42 -43 -99 -66 -170 -66zM323 159c60 0 107 19 143 56c41 43 58 93 58 206
s-17 163 -58 206c-36 37 -83 56 -143 56c-59 0 -107 -19 -143 -56c-42 -42 -58 -93 -58 -206s16 -164 58 -206c36 -37 84 -56 143 -56z" />
    <glyph glyph-name="ellipsis.ss01" horiz-adv-x="712" 
d="M578 72c20 0 37 -17 37 -37c0 -21 -17 -38 -37 -38c-21 0 -38 17 -38 38c0 20 17 37 38 37zM135 72c20 0 37 -17 37 -37c0 -21 -17 -38 -37 -38c-21 0 -38 17 -38 38c0 20 17 37 38 37zM356 72c20 0 37 -17 37 -37c0 -21 -17 -38 -37 -38c-21 0 -38 17 -38 38
c0 20 17 37 38 37z" />
    <glyph glyph-name="uni2071.ss01" horiz-adv-x="136" 
d="M54 328v262h28v-262h-28zM68 659c-10 0 -20 9 -20 20c0 10 10 20 20 20c11 0 20 -10 20 -20c0 -11 -9 -20 -20 -20z" />
    <glyph glyph-name="lira.ss01" horiz-adv-x="515" 
d="M106 0v201l-65 -41v33l65 41v115l-65 -42v33l65 41v331h38v-307l190 120v-33l-190 -120v-115l190 120v-32l-190 -121v-190h123c83 0 142 31 190 92l28 -26c-58 -68 -125 -100 -210 -100h-169z" />
    <glyph glyph-name="Euro.ss01" horiz-adv-x="629" 
d="M356 718c82 0 146 -33 201 -92l-27 -26c-47 53 -102 83 -174 83c-58 0 -105 -19 -143 -56c-41 -41 -53 -91 -58 -182h260v-29h-261v-114h261v-29h-260c4 -96 17 -147 58 -188c38 -37 85 -56 143 -56c72 0 127 30 174 83l27 -26c-55 -59 -119 -92 -201 -92
c-71 0 -126 24 -170 67c-51 51 -66 103 -69 212h-65v29h64v114h-63v29h64c4 104 18 156 69 206c44 43 99 67 170 67z" />
    <glyph glyph-name="uni20BD.ss01" horiz-adv-x="625" 
d="M109 712h255c123 0 215 -68 215 -202s-92 -202 -215 -202h-217v-117h166v-29h-166v-162h-38v162h-68v29h68v521zM356 677h-210v-334h210c108 0 184 50 184 167s-76 167 -184 167z" />
    <glyph glyph-name="dotmath.ss01" horiz-adv-x="509" 
d="M255 294c20 0 37 -16 37 -37s-17 -38 -37 -38c-21 0 -38 17 -38 38s17 37 38 37z" />
    <glyph glyph-name="fi.ss01" horiz-adv-x="535" 
d="M264 712v-33h-44c-47 0 -68 -28 -68 -73v-130h112v-29h-112v-447h-36v447h-68v29h68v130c0 64 36 106 98 106h50zM434 476v-476h-36v476h36zM416 704c17 0 31 -14 31 -31c0 -16 -14 -30 -31 -30s-31 14 -31 30c0 17 14 31 31 31z" />
    <glyph glyph-name="exclamdown.case.ss01" horiz-adv-x="295" 
d="M149 526l4 -526h-40l4 526h32zM133 715c19 0 34 -15 34 -33c0 -19 -15 -34 -34 -34c-18 0 -33 15 -33 34c0 18 15 33 33 33z" />
    <glyph glyph-name="periodcentered.case.ss01" horiz-adv-x="253" 
d="M127 397c20 0 37 -17 37 -38s-17 -37 -37 -37c-21 0 -38 16 -38 37s17 38 38 38z" />
    <glyph glyph-name="questiondown.case.ss01" horiz-adv-x="479" 
d="M235 527v-48c0 -36 -7 -57 -27 -87l-86 -129c-23 -35 -35 -58 -35 -97c0 -80 59 -140 137 -140c83 0 138 66 138 139h36c0 -90 -69 -171 -174 -171c-100 0 -173 77 -173 172c0 43 16 76 42 116l88 131c12 18 18 43 18 63v51h36zM217 715c19 0 34 -15 34 -33
c0 -19 -15 -34 -34 -34c-18 0 -33 15 -33 34c0 18 15 33 33 33z" />
    <glyph glyph-name="zero.zero.ss01" horiz-adv-x="505" 
d="M253 -6c-110 0 -182 80 -182 186v352c0 106 72 186 182 186s181 -80 181 -186v-352c0 -106 -71 -186 -181 -186zM253 26c95 0 145 71 145 159v342c0 88 -50 159 -145 159c-96 0 -146 -71 -146 -159v-342c0 -88 50 -159 146 -159zM253 325c-17 0 -31 14 -31 31
s14 31 31 31s31 -14 31 -31s-14 -31 -31 -31z" />
    <glyph glyph-name="zero.osf.zero.ss01" horiz-adv-x="509" 
d="M255 -6c-110 0 -182 80 -182 186v237c0 106 72 186 182 186s181 -80 181 -186v-237c0 -106 -71 -186 -181 -186zM255 27c95 0 145 70 145 158v227c0 88 -50 158 -145 158c-96 0 -146 -70 -146 -158v-227c0 -88 50 -158 146 -158zM255 268c-17 0 -31 14 -31 31
s14 31 31 31s31 -14 31 -31s-14 -31 -31 -31z" />
    <glyph glyph-name="zero.lf.zero.ss01" horiz-adv-x="507" 
d="M254 -6c-110 0 -182 80 -182 186v352c0 106 72 186 182 186s181 -80 181 -186v-352c0 -106 -71 -186 -181 -186zM254 27c95 0 145 70 145 158v342c0 88 -50 158 -145 158c-96 0 -146 -70 -146 -158v-342c0 -88 50 -158 146 -158zM255 325c-17 0 -31 14 -31 31
s14 31 31 31s31 -14 31 -31s-14 -31 -31 -31z" />
    <glyph glyph-name="zero.tosf.zero.ss01" horiz-adv-x="507" 
d="M254 -6c-110 0 -182 80 -182 186v237c0 106 72 186 182 186s181 -80 181 -186v-237c0 -106 -71 -186 -181 -186zM254 27c95 0 145 70 145 158v227c0 88 -50 158 -145 158c-96 0 -146 -70 -146 -158v-227c0 -88 50 -158 146 -158zM255 268c-17 0 -31 14 -31 31
s14 31 31 31s31 -14 31 -31s-14 -31 -31 -31z" />
    <glyph glyph-name="dieresis.lc.ss01" 
d="M361 671c17 0 32 -14 32 -32c0 -17 -15 -32 -32 -32s-32 15 -32 32c0 18 15 32 32 32zM159 671c17 0 32 -14 32 -32c0 -17 -15 -32 -32 -32s-32 15 -32 32c0 18 15 32 32 32z" />
    <glyph glyph-name="cedilla.lc.ss01" 
d="M248 -224v29c37 0 64 27 64 62s-27 62 -64 62v29c56 0 96 -38 96 -91s-40 -91 -96 -91z" />
    <glyph glyph-name="dotaccent.lc.ss01" 
d="M262 613c-17 0 -31 14 -31 31s14 31 31 31s31 -14 31 -31s-14 -31 -31 -31z" />
    <glyph glyph-name="ogonek.lc.ss01" 
d="M294 -195v-29c-56 0 -96 38 -96 91s40 91 96 91v-29c-37 0 -65 -27 -65 -62s28 -62 65 -62z" />
    <glyph glyph-name="dotbelowcomb.lc.ss01" 
d="M291 -115c0 -17 -14 -31 -31 -31s-31 14 -31 31s14 31 31 31s31 -14 31 -31z" />
    <glyph glyph-name="uni0324.lc.ss01" 
d="M360 -85c17 0 32 -14 32 -32c0 -17 -15 -32 -32 -32s-32 15 -32 32s14 32 32 32zM158 -85c17 0 32 -14 32 -32c0 -17 -15 -32 -32 -32s-32 15 -32 32s14 32 32 32z" />
    <glyph glyph-name="commaaccent.lc.ss01" 
d="M248 -71v29c56 0 96 -38 96 -91s-40 -91 -96 -91v29c36 0 64 27 64 62s-28 62 -64 62z" />
    <glyph glyph-name="dieresis.uc.ss01" horiz-adv-x="647" 
d="M427 853c18 0 32 -14 32 -31s-14 -32 -31 -32s-32 14 -32 31c0 18 14 32 31 32zM224 853c18 0 32 -14 32 -31s-14 -32 -31 -32s-32 14 -32 31c0 18 14 32 31 32z" />
    <glyph glyph-name="cedilla.uc.ss01" horiz-adv-x="647" 
d="M298 -71v29c56 0 96 -38 96 -91s-40 -91 -96 -91v29c36 0 64 27 64 62s-28 62 -64 62z" />
    <glyph glyph-name="dotaccent.uc.ss01" horiz-adv-x="647" 
d="M326 799c-17 0 -31 14 -31 31s14 31 31 31s31 -14 31 -31s-14 -31 -31 -31z" />
    <glyph glyph-name="ogonek.uc.ss01" horiz-adv-x="647" 
d="M361 -195v-29c-56 0 -96 38 -96 91s40 91 96 91v-29c-37 0 -65 -27 -65 -62s28 -62 65 -62z" />
    <glyph glyph-name="dotbelowcomb.uc.ss01" horiz-adv-x="647" 
d="M355 -115c0 -17 -14 -31 -31 -31s-31 14 -31 31s14 31 31 31s31 -14 31 -31z" />
    <glyph glyph-name="uni0324.uc.ss01" horiz-adv-x="647" 
d="M425 -85c18 0 32 -14 32 -32c0 -17 -14 -31 -31 -31s-32 14 -32 31s14 32 31 32zM222 -85c18 0 32 -14 32 -32c0 -17 -14 -31 -31 -31s-32 14 -32 31s14 32 31 32z" />
    <glyph glyph-name="commaaccent.uc.ss01" horiz-adv-x="647" 
d="M298 -71v29c56 0 96 -38 96 -91s-40 -91 -96 -91v29c36 0 64 27 64 62s-28 62 -64 62z" />
    <glyph glyph-name="C.ss02" horiz-adv-x="598" 
d="M324 718c82 0 146 -33 201 -92l-27 -26c-47 53 -102 83 -174 83c-57 0 -105 -19 -142 -57c-51 -52 -60 -118 -60 -270s9 -218 60 -270c37 -38 85 -57 142 -57c72 0 127 30 174 83l27 -25c-56 -61 -118 -93 -201 -93c-71 0 -126 24 -169 67c-63 63 -71 127 -71 295
s8 232 71 295c43 43 98 67 169 67z" />
    <glyph glyph-name="G.ss02" horiz-adv-x="647" 
d="M326 718c87 0 151 -34 210 -100l-27 -26c-50 58 -106 91 -183 91c-58 0 -106 -19 -144 -57c-52 -52 -60 -117 -60 -270s8 -218 60 -270c38 -38 85 -57 143 -57c54 0 109 20 148 63c39 41 54 95 54 160v72h-202v35h240v-112c0 -74 -19 -133 -62 -178
c-47 -49 -110 -75 -178 -75c-71 0 -127 24 -170 67c-62 62 -71 126 -71 295s9 233 71 295c43 43 100 67 171 67z" />
    <glyph glyph-name="Ccedilla.ss02" horiz-adv-x="598" 
d="M324 718c82 0 146 -33 201 -92l-27 -26c-47 53 -102 83 -174 83c-57 0 -105 -19 -142 -57c-51 -52 -60 -118 -60 -270s9 -218 60 -270c37 -38 85 -57 142 -57c72 0 127 30 174 83l27 -25c-56 -61 -118 -93 -201 -93c-71 0 -126 24 -169 67c-63 63 -71 127 -71 295
s8 232 71 295c43 43 98 67 169 67zM346 -72l-64 -143h-41l69 143h36z" />
    <glyph glyph-name="Omega.ss02" horiz-adv-x="647" 
d="M90 0v35h466v-35h-466zM323 124c-71 0 -128 23 -170 66c-51 52 -69 110 -69 231s18 179 69 231c42 43 99 66 170 66s128 -23 170 -66c52 -52 69 -110 69 -231s-17 -179 -69 -231c-42 -43 -99 -66 -170 -66zM323 159c60 0 107 19 143 56c41 43 58 93 58 206
s-17 163 -58 206c-36 37 -83 56 -143 56c-59 0 -107 -19 -143 -56c-42 -42 -58 -93 -58 -206s16 -164 58 -206c36 -37 84 -56 143 -56z" />
    <glyph glyph-name="Ccedilla.ss03" horiz-adv-x="598" 
d="M324 718c82 0 146 -33 201 -92l-27 -26c-47 53 -102 83 -174 83c-57 0 -105 -19 -142 -57c-51 -52 -60 -118 -60 -270s9 -218 60 -270c37 -38 85 -57 142 -57c72 0 127 30 174 83l27 -25c-56 -61 -118 -93 -201 -93c-71 0 -126 24 -169 67c-63 63 -71 127 -71 295
s8 232 71 295c43 43 98 67 169 67zM298 -71v29c56 0 96 -38 96 -91s-40 -91 -96 -91v29c36 0 64 27 64 62s-28 62 -64 62z" />
    <glyph glyph-name="Iacute_J_acutecomb" horiz-adv-x="759" 
d="M655 712v-506c0 -125 -77 -212 -205 -212c-62 0 -112 20 -151 59l27 28c31 -31 67 -52 124 -52c109 0 167 69 167 188v495h38zM760 920l-107 -142h-41l101 142h47zM152 712v-712h-38v712h38zM256 920l-107 -142h-41l101 142h47z" />
    <glyph glyph-name="J_acutecomb" horiz-adv-x="493" 
d="M389 712v-506c0 -125 -77 -212 -205 -212c-62 0 -112 20 -151 59l27 28c31 -31 67 -52 124 -52c109 0 167 69 167 188v495h38zM494 920l-107 -142h-41l101 142h47z" />
    <glyph glyph-name="breveacute" 
d="M370 706h33c-9 -77 -52 -121 -144 -121c-91 0 -134 44 -143 121h32c8 -53 44 -88 111 -88c68 0 104 35 111 88zM392 873l-108 -142h-41l101 142h48z" />
    <glyph glyph-name="brevegrave" 
d="M370 706h33c-9 -77 -52 -121 -144 -121c-91 0 -134 44 -143 121h32c8 -53 44 -88 111 -88c68 0 104 35 111 88zM191 873l101 -142h-41l-108 142h48z" />
    <glyph glyph-name="brevehook" 
d="M370 706h33c-9 -77 -52 -121 -144 -121c-91 0 -134 44 -143 121h32c8 -53 44 -88 111 -88c68 0 104 35 111 88zM248 859v29c56 0 96 -38 96 -91s-40 -91 -96 -91v29c37 0 64 27 64 62s-27 62 -64 62z" />
    <glyph glyph-name="brevetilde" 
d="M259 585c-91 0 -134 44 -143 121h32c8 -53 44 -88 111 -88c68 0 104 35 111 88h33c-9 -77 -52 -121 -144 -121zM319 752c-22 0 -35 4 -66 24c-24 15 -37 21 -54 21s-32 -5 -63 -37l-22 21c43 44 64 48 86 48c24 0 38 -6 66 -24c25 -16 37 -21 54 -21c16 0 32 5 63 37
l22 -21c-43 -44 -64 -48 -86 -48z" />
    <glyph glyph-name="circumflexacute" 
d="M532 822l-108 -142h-41l101 142h48zM279 730l122 -142h-42l-97 112l-97 -112h-42l122 142h34z" />
    <glyph glyph-name="circumflexgrave" 
d="M123 588l122 142h34l122 -142h-42l-97 112l-97 -112h-42zM429 679l-122 143h48l115 -143h-41z" />
    <glyph glyph-name="circumflexhook" 
d="M123 588l122 142h34l122 -142h-42l-97 112l-97 -112h-42zM386 670v29c37 0 64 27 64 62s-27 62 -64 62v29c56 0 96 -38 96 -91s-40 -91 -96 -91z" />
    <glyph glyph-name="circumflextilde" 
d="M123 588l122 142h34l122 -142h-42l-97 112l-97 -112h-42zM321 772c-22 0 -35 4 -66 24c-24 15 -37 21 -54 21s-32 -5 -63 -37l-22 21c43 44 64 48 86 48c24 0 38 -6 66 -24c25 -16 37 -21 54 -21c16 0 32 5 63 37l22 -21c-43 -44 -64 -48 -86 -48z" />
    <glyph glyph-name="caroncomma.uc.ss01.comp" horiz-adv-x="647" 
d="M342 712v-130l-37 -39v169h37z" />
    <glyph glyph-name="iacute_j_acutecomb" horiz-adv-x="480" 
d="M491 730l-108 -142h-41l101 142h48zM378 476v-606c0 -66 -34 -106 -98 -106h-50v33h44c49 0 68 27 68 74v605h36zM251 730l-108 -142h-41l101 142h48zM138 476v-476h-36v476h36z" />
    <glyph glyph-name="j_acutecomb" horiz-adv-x="240" 
d="M138 476v-606c0 -66 -34 -106 -98 -106h-50v33h44c49 0 68 27 68 74v605h36zM252 730l-108 -142h-41l101 142h48z" />
    <glyph glyph-name="grave.lc" 
d="M184 730l101 -142h-41l-108 142h48z" />
    <glyph glyph-name="dieresis.lc" 
d="M381 681v-83h-41v83h41zM180 681v-83h-41v83h41z" />
    <glyph glyph-name="macron.lc" 
d="M394 646v-34h-268v34h268z" />
    <glyph glyph-name="acute.lc" 
d="M393 730l-108 -142h-41l101 142h48z" />
    <glyph glyph-name="cedilla.lc" 
d="M181 -215l69 143h36l-63 -143h-42z" />
    <glyph glyph-name="uni02C0.lc" 
d="M248 728v29c56 0 96 -38 96 -91s-40 -91 -96 -91v29c36 0 64 27 64 62s-28 62 -64 62z" />
    <glyph glyph-name="circumflex.lc" 
d="M277 730l122 -142h-42l-97 112l-97 -112h-42l122 142h34z" />
    <glyph glyph-name="caron.lc" 
d="M399 730l-122 -142h-34l-122 142h42l97 -112l97 112h42z" />
    <glyph glyph-name="breve.lc" 
d="M370 706h33c-9 -77 -52 -121 -144 -121c-91 0 -134 44 -143 121h32c8 -53 44 -88 111 -88c68 0 104 35 111 88z" />
    <glyph glyph-name="dotaccent.lc" 
d="M280 680v-83h-41v83h41z" />
    <glyph glyph-name="ring.lc" 
d="M260 776c59 0 106 -48 106 -107c0 -58 -47 -106 -106 -106s-106 48 -106 106c0 59 47 107 106 107zM259 745c-41 0 -75 -34 -75 -76c0 -41 34 -75 75 -75c42 0 76 34 76 75c0 42 -34 76 -76 76z" />
    <glyph glyph-name="ogonek.lc" 
d="M181 -215l69 143h36l-63 -143h-42z" />
    <glyph glyph-name="tilde.lc" 
d="M200 683c24 0 38 -6 66 -24c25 -16 37 -21 54 -21c16 0 32 5 63 37l22 -21c-43 -44 -64 -48 -86 -48s-35 4 -66 24c-24 15 -37 21 -54 21s-32 -5 -63 -37l-22 21c43 44 64 48 86 48z" />
    <glyph glyph-name="hungarumlaut.lc" 
d="M465 730l-107 -142h-41l101 142h47zM295 730l-107 -142h-41l101 142h47z" />
    <glyph glyph-name="uni030F.lc" 
d="M277 730l100 -142h-41l-107 142h48zM107 730l100 -142h-40l-108 142h48z" />
    <glyph glyph-name="uni0310.lc" 
d="M370 706h33c-9 -77 -52 -121 -144 -121c-91 0 -134 44 -143 121h32c8 -53 44 -88 111 -88c68 0 104 35 111 88zM281 817v-83h-41v83h41z" />
    <glyph glyph-name="uni0311.lc" 
d="M148 582h-32c9 77 52 121 143 121c92 0 135 -44 144 -121h-33c-7 53 -43 88 -111 88c-67 0 -103 -35 -111 -88z" />
    <glyph glyph-name="uni0316.lc" 
d="M184 -71l101 -142h-41l-108 142h48z" />
    <glyph glyph-name="uni0317.lc" 
d="M336 -72l-108 -142h-41l101 142h48z" />
    <glyph glyph-name="uni031B.lc" 
d="M559 501v-52c0 -61 -22 -94 -83 -94h-23v30h25c32 0 47 24 47 71v45h34z" />
    <glyph glyph-name="uni031C.lc" 
d="M294 -42v-29c-36 0 -64 -27 -64 -62s28 -62 64 -62v-29c-56 0 -96 38 -96 91s40 91 96 91z" />
    <glyph glyph-name="dotbelowcomb.lc" 
d="M280 -82v-83h-41v83h41z" />
    <glyph glyph-name="uni0324.lc" 
d="M380 -77v-83h-41v83h41zM179 -77v-83h-41v83h41z" />
    <glyph glyph-name="uni0325.lc" 
d="M259 -42c59 0 106 -48 106 -107c0 -58 -47 -106 -106 -106s-106 48 -106 106c0 59 47 107 106 107zM258 -73c-41 0 -75 -34 -75 -76c0 -41 34 -75 75 -75c42 0 76 34 76 75c0 42 -34 76 -76 76z" />
    <glyph glyph-name="uni032C.lc" 
d="M399 -72l-122 -142h-34l-122 142h42l97 -112l97 112h42z" />
    <glyph glyph-name="uni032D.lc" 
d="M277 -72l122 -142h-42l-97 112l-97 -112h-42l122 142h34z" />
    <glyph glyph-name="uni032E.lc" 
d="M371 -71h32c-9 -77 -52 -121 -143 -121s-135 44 -144 121h33c7 -53 44 -88 111 -88s103 35 111 88z" />
    <glyph glyph-name="uni032F.lc" 
d="M148 -195h-32c9 77 52 121 143 121c92 0 135 -44 144 -121h-33c-7 53 -43 88 -111 88c-67 0 -103 -35 -111 -88z" />
    <glyph glyph-name="uni0330.lc" 
d="M200 -90c24 0 38 -6 66 -24c25 -16 37 -21 54 -21c16 0 32 5 63 37l22 -21c-43 -44 -64 -48 -86 -48s-35 4 -66 24c-24 15 -37 21 -54 21s-32 -5 -63 -37l-22 21c43 44 64 48 86 48z" />
    <glyph glyph-name="uni0331.lc" 
d="M393 -94v-34h-268v34h268z" />
    <glyph glyph-name="uni0340.lc" 
d="M355 822l115 -143h-41l-122 143h48z" />
    <glyph glyph-name="uni0341.lc" 
d="M532 822l-108 -142h-41l101 142h48z" />
    <glyph glyph-name="commaaccent.lc" 
d="M286 -72l-63 -143h-42l69 143h36z" />
    <glyph glyph-name="breveacute.uc" horiz-adv-x="647" 
d="M323 778c-91 0 -134 44 -143 121h32c8 -53 44 -88 111 -88c68 0 104 35 111 88h33c-9 -77 -52 -121 -144 -121zM307 924l101 142h48l-108 -142h-41z" />
    <glyph glyph-name="brevegrave.uc" horiz-adv-x="647" 
d="M434 899h33c-9 -77 -52 -121 -144 -121c-91 0 -134 44 -143 121h32c8 -53 44 -88 111 -88c68 0 104 35 111 88zM255 1066l101 -142h-41l-108 142h48z" />
    <glyph glyph-name="brevehook.uc" horiz-adv-x="647" 
d="M434 899h33c-9 -77 -52 -121 -144 -121c-91 0 -134 44 -143 121h32c8 -53 44 -88 111 -88c68 0 104 35 111 88zM312 1052v29c56 0 96 -38 96 -91s-40 -91 -96 -91v29c37 0 64 27 64 62s-27 62 -64 62z" />
    <glyph glyph-name="brevetilde.uc" horiz-adv-x="647" 
d="M323 778c-91 0 -134 44 -143 121h32c8 -53 44 -88 111 -88c68 0 104 35 111 88h33c-9 -77 -52 -121 -144 -121zM383 945c-22 0 -35 4 -66 24c-24 15 -37 21 -54 21s-32 -5 -63 -37l-22 21c43 44 64 48 86 48c24 0 38 -6 66 -24c25 -16 37 -21 54 -21c16 0 32 5 63 37
l22 -21c-43 -44 -64 -48 -86 -48z" />
    <glyph glyph-name="circumflexacute.uc" horiz-adv-x="647" 
d="M595 1012l-108 -142h-41l101 142h48zM342 920l122 -142h-42l-97 112l-97 -112h-42l122 142h34z" />
    <glyph glyph-name="circumflexgrave.uc" horiz-adv-x="647" 
d="M186 778l122 142h34l122 -142h-42l-97 112l-97 -112h-42zM492 869l-122 143h48l115 -143h-41z" />
    <glyph glyph-name="circumflexhook.uc" horiz-adv-x="647" 
d="M186 778l122 142h34l122 -142h-42l-97 112l-97 -112h-42zM449 860v29c37 0 64 27 64 62s-27 62 -64 62v29c56 0 96 -38 96 -91s-40 -91 -96 -91z" />
    <glyph glyph-name="circumflextilde.uc" horiz-adv-x="647" 
d="M186 778l122 142h34l122 -142h-42l-97 112l-97 -112h-42zM384 962c-22 0 -35 4 -66 24c-24 15 -37 21 -54 21s-32 -5 -63 -37l-22 21c43 44 64 48 86 48c24 0 38 -6 66 -24c25 -16 37 -21 54 -21c16 0 32 5 63 37l22 -21c-43 -44 -64 -48 -86 -48z" />
    <glyph glyph-name="grave.uc" horiz-adv-x="647" 
d="M250 920l101 -142h-41l-107 142h47z" />
    <glyph glyph-name="dieresis.uc" horiz-adv-x="647" 
d="M445 869v-80h-41v80h41zM244 869v-80h-41v80h41z" />
    <glyph glyph-name="macron.uc" horiz-adv-x="647" 
d="M457 836v-34h-266v34h266z" />
    <glyph glyph-name="acute.uc" horiz-adv-x="647" 
d="M448 920l-107 -142h-41l101 142h47z" />
    <glyph glyph-name="cedilla.uc" horiz-adv-x="647" 
d="M346 -72l-64 -143h-41l69 143h36z" />
    <glyph glyph-name="uni02C0.uc" horiz-adv-x="647" 
d="M278 917v29c56 0 96 -38 96 -91s-40 -91 -96 -91v29c37 0 65 27 65 62s-28 62 -65 62z" />
    <glyph glyph-name="circumflex.uc" horiz-adv-x="647" 
d="M341 920l122 -142h-42l-97 112l-97 -112h-42l122 142h34z" />
    <glyph glyph-name="caron.uc" horiz-adv-x="647" 
d="M462 920l-122 -142h-33l-122 142h42l96 -112l97 112h42z" />
    <glyph glyph-name="breve.uc" horiz-adv-x="647" 
d="M434 899h33c-9 -77 -52 -121 -144 -121c-91 0 -134 44 -143 121h32c8 -53 44 -88 111 -88c68 0 104 35 111 88z" />
    <glyph glyph-name="dotaccent.uc" horiz-adv-x="647" 
d="M346 868v-83h-41v83h41z" />
    <glyph glyph-name="ring.uc" horiz-adv-x="647" 
d="M324 955c59 0 106 -47 106 -106c0 -58 -47 -106 -106 -106s-106 48 -106 106c0 59 47 106 106 106zM324 925c-42 0 -75 -34 -75 -76s33 -75 75 -75s75 33 75 75s-33 76 -75 76z" />
    <glyph glyph-name="ogonek.uc" horiz-adv-x="647" 
d="M238 -215l69 143h36l-63 -143h-42z" />
    <glyph glyph-name="tilde.uc" horiz-adv-x="647" 
d="M264 873c24 0 38 -6 66 -24c25 -16 37 -21 54 -21c16 0 32 5 63 37l22 -21c-43 -44 -65 -48 -86 -48c-22 0 -35 4 -66 24c-24 15 -37 21 -54 21s-32 -5 -64 -37l-21 21c43 43 64 48 86 48z" />
    <glyph glyph-name="hungarumlaut.uc" horiz-adv-x="647" 
d="M529 920l-108 -142h-40l101 142h47zM359 920l-107 -142h-41l101 142h47z" />
    <glyph glyph-name="uni030F.uc" horiz-adv-x="647" 
d="M340 920l101 -142h-41l-107 142h47zM170 920l101 -142h-40l-108 142h47z" />
    <glyph glyph-name="uni0311.uc" horiz-adv-x="647" 
d="M467 772h-33c-7 53 -43 88 -111 88c-67 0 -103 -35 -111 -88h-32c9 77 52 121 143 121c92 0 135 -44 144 -121z" />
    <glyph glyph-name="dotbelowcomb.uc" horiz-adv-x="647" 
d="M344 -82v-83h-41v83h41z" />
    <glyph glyph-name="uni0324.uc" horiz-adv-x="647" 
d="M445 -77v-83h-41v83h41zM244 -77v-83h-41v83h41z" />
    <glyph glyph-name="uni0325.uc" horiz-adv-x="647" 
d="M323 -43c59 0 106 -47 106 -106s-47 -106 -106 -106s-106 47 -106 106s47 106 106 106zM323 -74c-42 0 -75 -33 -75 -75s33 -76 75 -76s75 34 75 76s-33 75 -75 75z" />
    <glyph glyph-name="uni032D.uc" horiz-adv-x="647" 
d="M341 -72l122 -142h-42l-97 112l-97 -112h-42l122 142h34z" />
    <glyph glyph-name="uni032E.uc" horiz-adv-x="647" 
d="M434 -71h33c-9 -77 -52 -121 -144 -121c-91 0 -134 44 -143 121h33c8 -53 43 -88 110 -88c68 0 104 35 111 88z" />
    <glyph glyph-name="uni0330.uc" horiz-adv-x="647" 
d="M264 -89c24 0 38 -6 66 -24c25 -16 37 -21 54 -21c16 0 32 5 63 36l22 -21c-43 -44 -64 -48 -86 -48c-21 0 -35 5 -66 24c-24 15 -37 21 -54 21s-32 -5 -63 -37l-22 22c43 43 64 48 86 48z" />
    <glyph glyph-name="uni0331.uc" horiz-adv-x="647" 
d="M459 -94v-34h-268v34h268z" />
    <glyph glyph-name="commaaccent.uc" horiz-adv-x="647" 
d="M238 -215l69 143h36l-63 -143h-42z" />
    </font>
</defs>
</svg>
